<?xml version="1.0" encoding="utf-8" standalone="no"?>
<!DOCTYPE svg PUBLIC "-//W3C//DTD SVG 1.1//EN"
  "http://www.w3.org/Graphics/SVG/1.1/DTD/svg11.dtd">
<svg xmlns:xlink="http://www.w3.org/1999/xlink" width="864pt" height="504pt" viewBox="0 0 864 504" xmlns="http://www.w3.org/2000/svg" version="1.1">
 <metadata>
  <rdf:RDF xmlns:dc="http://purl.org/dc/elements/1.1/" xmlns:cc="http://creativecommons.org/ns#" xmlns:rdf="http://www.w3.org/1999/02/22-rdf-syntax-ns#">
   <cc:Work>
    <dc:type rdf:resource="http://purl.org/dc/dcmitype/StillImage"/>
    <dc:date>2026-03-17T22:05:18.904764</dc:date>
    <dc:format>image/svg+xml</dc:format>
    <dc:creator>
     <cc:Agent>
      <dc:title>Matplotlib v3.9.2, https://matplotlib.org/</dc:title>
     </cc:Agent>
    </dc:creator>
   </cc:Work>
  </rdf:RDF>
 </metadata>
 <defs>
  <style type="text/css">*{stroke-linejoin: round; stroke-linecap: butt}</style>
 </defs>
 <g id="figure_1">
  <g id="patch_1">
   <path d="M 0 504 
L 864 504 
L 864 0 
L 0 0 
L 0 504 
z
" style="fill: none; opacity: 0"/>
  </g>
  <g id="axes_1">
   <g id="patch_2">
    <path d="M 95.04 433.44 
L 777.6 433.44 
L 777.6 90.72 
L 95.04 90.72 
L 95.04 433.44 
z
" style="fill: none"/>
   </g>
   <g id="matplotlib.axis_1">
    <g id="xtick_1">
     <g id="line2d_1"/>
     <g id="text_1">
      <!-- 0 -->
      <g style="fill: #5f5f5f" transform="translate(123.006939 447.313594) scale(0.11 -0.11)">
       <defs>
        <path id="ArialMT-30" d="M 266 2259 
Q 266 3072 433 3567 
Q 600 4063 929 4331 
Q 1259 4600 1759 4600 
Q 2128 4600 2406 4451 
Q 2684 4303 2865 4023 
Q 3047 3744 3150 3342 
Q 3253 2941 3253 2259 
Q 3253 1453 3087 958 
Q 2922 463 2592 192 
Q 2263 -78 1759 -78 
Q 1097 -78 719 397 
Q 266 969 266 2259 
z
M 844 2259 
Q 844 1131 1108 757 
Q 1372 384 1759 384 
Q 2147 384 2411 759 
Q 2675 1134 2675 2259 
Q 2675 3391 2411 3762 
Q 2147 4134 1753 4134 
Q 1366 4134 1134 3806 
Q 844 3388 844 2259 
z
" transform="scale(0.015625)"/>
       </defs>
       <use xlink:href="#ArialMT-30"/>
      </g>
     </g>
    </g>
    <g id="xtick_2">
     <g id="line2d_2"/>
     <g id="text_2">
      <!-- 5 -->
      <g style="fill: #5f5f5f" transform="translate(229.991265 447.313594) scale(0.11 -0.11)">
       <defs>
        <path id="ArialMT-35" d="M 266 1200 
L 856 1250 
Q 922 819 1161 601 
Q 1400 384 1738 384 
Q 2144 384 2425 690 
Q 2706 997 2706 1503 
Q 2706 1984 2436 2262 
Q 2166 2541 1728 2541 
Q 1456 2541 1237 2417 
Q 1019 2294 894 2097 
L 366 2166 
L 809 4519 
L 3088 4519 
L 3088 3981 
L 1259 3981 
L 1013 2750 
Q 1425 3038 1878 3038 
Q 2478 3038 2890 2622 
Q 3303 2206 3303 1553 
Q 3303 931 2941 478 
Q 2500 -78 1738 -78 
Q 1113 -78 717 272 
Q 322 622 266 1200 
z
" transform="scale(0.015625)"/>
       </defs>
       <use xlink:href="#ArialMT-35"/>
      </g>
     </g>
    </g>
    <g id="xtick_3">
     <g id="line2d_3"/>
     <g id="text_3">
      <!-- 10 -->
      <g style="fill: #5f5f5f" transform="translate(333.917075 447.313594) scale(0.11 -0.11)">
       <defs>
        <path id="ArialMT-31" d="M 2384 0 
L 1822 0 
L 1822 3584 
Q 1619 3391 1289 3197 
Q 959 3003 697 2906 
L 697 3450 
Q 1169 3672 1522 3987 
Q 1875 4303 2022 4600 
L 2384 4600 
L 2384 0 
z
" transform="scale(0.015625)"/>
       </defs>
       <use xlink:href="#ArialMT-31"/>
       <use xlink:href="#ArialMT-30" x="55.615234"/>
      </g>
     </g>
    </g>
    <g id="xtick_4">
     <g id="line2d_4"/>
     <g id="text_4">
      <!-- 15 -->
      <g style="fill: #5f5f5f" transform="translate(440.901401 447.313594) scale(0.11 -0.11)">
       <use xlink:href="#ArialMT-31"/>
       <use xlink:href="#ArialMT-35" x="55.615234"/>
      </g>
     </g>
    </g>
    <g id="xtick_5">
     <g id="line2d_5"/>
     <g id="text_5">
      <!-- 20 -->
      <g style="fill: #5f5f5f" transform="translate(547.885727 447.313594) scale(0.11 -0.11)">
       <defs>
        <path id="ArialMT-32" d="M 3222 541 
L 3222 0 
L 194 0 
Q 188 203 259 391 
Q 375 700 629 1000 
Q 884 1300 1366 1694 
Q 2113 2306 2375 2664 
Q 2638 3022 2638 3341 
Q 2638 3675 2398 3904 
Q 2159 4134 1775 4134 
Q 1369 4134 1125 3890 
Q 881 3647 878 3216 
L 300 3275 
Q 359 3922 746 4261 
Q 1134 4600 1788 4600 
Q 2447 4600 2831 4234 
Q 3216 3869 3216 3328 
Q 3216 3053 3103 2787 
Q 2991 2522 2730 2228 
Q 2469 1934 1863 1422 
Q 1356 997 1212 845 
Q 1069 694 975 541 
L 3222 541 
z
" transform="scale(0.015625)"/>
       </defs>
       <use xlink:href="#ArialMT-32"/>
       <use xlink:href="#ArialMT-30" x="55.615234"/>
      </g>
     </g>
    </g>
    <g id="xtick_6">
     <g id="line2d_6"/>
     <g id="text_6">
      <!-- 25 -->
      <g style="fill: #5f5f5f" transform="translate(654.870053 447.313594) scale(0.11 -0.11)">
       <use xlink:href="#ArialMT-32"/>
       <use xlink:href="#ArialMT-35" x="55.615234"/>
      </g>
     </g>
    </g>
    <g id="xtick_7">
     <g id="line2d_7"/>
     <g id="text_7">
      <!-- 30 -->
      <g style="fill: #5f5f5f" transform="translate(761.854379 447.313594) scale(0.11 -0.11)">
       <defs>
        <path id="ArialMT-33" d="M 269 1209 
L 831 1284 
Q 928 806 1161 595 
Q 1394 384 1728 384 
Q 2125 384 2398 659 
Q 2672 934 2672 1341 
Q 2672 1728 2419 1979 
Q 2166 2231 1775 2231 
Q 1616 2231 1378 2169 
L 1441 2663 
Q 1497 2656 1531 2656 
Q 1891 2656 2178 2843 
Q 2466 3031 2466 3422 
Q 2466 3731 2256 3934 
Q 2047 4138 1716 4138 
Q 1388 4138 1169 3931 
Q 950 3725 888 3313 
L 325 3413 
Q 428 3978 793 4289 
Q 1159 4600 1703 4600 
Q 2078 4600 2393 4439 
Q 2709 4278 2876 4000 
Q 3044 3722 3044 3409 
Q 3044 3113 2884 2869 
Q 2725 2625 2413 2481 
Q 2819 2388 3044 2092 
Q 3269 1797 3269 1353 
Q 3269 753 2831 336 
Q 2394 -81 1725 -81 
Q 1122 -81 723 278 
Q 325 638 269 1209 
z
" transform="scale(0.015625)"/>
       </defs>
       <use xlink:href="#ArialMT-33"/>
       <use xlink:href="#ArialMT-30" x="55.615234"/>
      </g>
     </g>
    </g>
    <g id="text_8">
     <!-- Minutes into sweep -->
     <g style="fill: #5f5f5f" transform="translate(384.962813 472.089219) scale(0.12 -0.12)">
      <defs>
       <path id="ArialMT-4d" d="M 475 0 
L 475 4581 
L 1388 4581 
L 2472 1338 
Q 2622 884 2691 659 
Q 2769 909 2934 1394 
L 4031 4581 
L 4847 4581 
L 4847 0 
L 4263 0 
L 4263 3834 
L 2931 0 
L 2384 0 
L 1059 3900 
L 1059 0 
L 475 0 
z
" transform="scale(0.015625)"/>
       <path id="ArialMT-69" d="M 425 3934 
L 425 4581 
L 988 4581 
L 988 3934 
L 425 3934 
z
M 425 0 
L 425 3319 
L 988 3319 
L 988 0 
L 425 0 
z
" transform="scale(0.015625)"/>
       <path id="ArialMT-6e" d="M 422 0 
L 422 3319 
L 928 3319 
L 928 2847 
Q 1294 3394 1984 3394 
Q 2284 3394 2536 3286 
Q 2788 3178 2913 3003 
Q 3038 2828 3088 2588 
Q 3119 2431 3119 2041 
L 3119 0 
L 2556 0 
L 2556 2019 
Q 2556 2363 2490 2533 
Q 2425 2703 2258 2804 
Q 2091 2906 1866 2906 
Q 1506 2906 1245 2678 
Q 984 2450 984 1813 
L 984 0 
L 422 0 
z
" transform="scale(0.015625)"/>
       <path id="ArialMT-75" d="M 2597 0 
L 2597 488 
Q 2209 -75 1544 -75 
Q 1250 -75 995 37 
Q 741 150 617 320 
Q 494 491 444 738 
Q 409 903 409 1263 
L 409 3319 
L 972 3319 
L 972 1478 
Q 972 1038 1006 884 
Q 1059 663 1231 536 
Q 1403 409 1656 409 
Q 1909 409 2131 539 
Q 2353 669 2445 892 
Q 2538 1116 2538 1541 
L 2538 3319 
L 3100 3319 
L 3100 0 
L 2597 0 
z
" transform="scale(0.015625)"/>
       <path id="ArialMT-74" d="M 1650 503 
L 1731 6 
Q 1494 -44 1306 -44 
Q 1000 -44 831 53 
Q 663 150 594 308 
Q 525 466 525 972 
L 525 2881 
L 113 2881 
L 113 3319 
L 525 3319 
L 525 4141 
L 1084 4478 
L 1084 3319 
L 1650 3319 
L 1650 2881 
L 1084 2881 
L 1084 941 
Q 1084 700 1114 631 
Q 1144 563 1211 522 
Q 1278 481 1403 481 
Q 1497 481 1650 503 
z
" transform="scale(0.015625)"/>
       <path id="ArialMT-65" d="M 2694 1069 
L 3275 997 
Q 3138 488 2766 206 
Q 2394 -75 1816 -75 
Q 1088 -75 661 373 
Q 234 822 234 1631 
Q 234 2469 665 2931 
Q 1097 3394 1784 3394 
Q 2450 3394 2872 2941 
Q 3294 2488 3294 1666 
Q 3294 1616 3291 1516 
L 816 1516 
Q 847 969 1125 678 
Q 1403 388 1819 388 
Q 2128 388 2347 550 
Q 2566 713 2694 1069 
z
M 847 1978 
L 2700 1978 
Q 2663 2397 2488 2606 
Q 2219 2931 1791 2931 
Q 1403 2931 1139 2672 
Q 875 2413 847 1978 
z
" transform="scale(0.015625)"/>
       <path id="ArialMT-73" d="M 197 991 
L 753 1078 
Q 800 744 1014 566 
Q 1228 388 1613 388 
Q 2000 388 2187 545 
Q 2375 703 2375 916 
Q 2375 1106 2209 1216 
Q 2094 1291 1634 1406 
Q 1016 1563 777 1677 
Q 538 1791 414 1992 
Q 291 2194 291 2438 
Q 291 2659 392 2848 
Q 494 3038 669 3163 
Q 800 3259 1026 3326 
Q 1253 3394 1513 3394 
Q 1903 3394 2198 3281 
Q 2494 3169 2634 2976 
Q 2775 2784 2828 2463 
L 2278 2388 
Q 2241 2644 2061 2787 
Q 1881 2931 1553 2931 
Q 1166 2931 1000 2803 
Q 834 2675 834 2503 
Q 834 2394 903 2306 
Q 972 2216 1119 2156 
Q 1203 2125 1616 2013 
Q 2213 1853 2448 1751 
Q 2684 1650 2818 1456 
Q 2953 1263 2953 975 
Q 2953 694 2789 445 
Q 2625 197 2315 61 
Q 2006 -75 1616 -75 
Q 969 -75 630 194 
Q 291 463 197 991 
z
" transform="scale(0.015625)"/>
       <path id="ArialMT-20" transform="scale(0.015625)"/>
       <path id="ArialMT-6f" d="M 213 1659 
Q 213 2581 725 3025 
Q 1153 3394 1769 3394 
Q 2453 3394 2887 2945 
Q 3322 2497 3322 1706 
Q 3322 1066 3130 698 
Q 2938 331 2570 128 
Q 2203 -75 1769 -75 
Q 1072 -75 642 372 
Q 213 819 213 1659 
z
M 791 1659 
Q 791 1022 1069 705 
Q 1347 388 1769 388 
Q 2188 388 2466 706 
Q 2744 1025 2744 1678 
Q 2744 2294 2464 2611 
Q 2184 2928 1769 2928 
Q 1347 2928 1069 2612 
Q 791 2297 791 1659 
z
" transform="scale(0.015625)"/>
       <path id="ArialMT-77" d="M 1034 0 
L 19 3319 
L 600 3319 
L 1128 1403 
L 1325 691 
Q 1338 744 1497 1375 
L 2025 3319 
L 2603 3319 
L 3100 1394 
L 3266 759 
L 3456 1400 
L 4025 3319 
L 4572 3319 
L 3534 0 
L 2950 0 
L 2422 1988 
L 2294 2553 
L 1622 0 
L 1034 0 
z
" transform="scale(0.015625)"/>
       <path id="ArialMT-70" d="M 422 -1272 
L 422 3319 
L 934 3319 
L 934 2888 
Q 1116 3141 1344 3267 
Q 1572 3394 1897 3394 
Q 2322 3394 2647 3175 
Q 2972 2956 3137 2557 
Q 3303 2159 3303 1684 
Q 3303 1175 3120 767 
Q 2938 359 2589 142 
Q 2241 -75 1856 -75 
Q 1575 -75 1351 44 
Q 1128 163 984 344 
L 984 -1272 
L 422 -1272 
z
M 931 1641 
Q 931 1000 1190 694 
Q 1450 388 1819 388 
Q 2194 388 2461 705 
Q 2728 1022 2728 1688 
Q 2728 2322 2467 2637 
Q 2206 2953 1844 2953 
Q 1484 2953 1207 2617 
Q 931 2281 931 1641 
z
" transform="scale(0.015625)"/>
      </defs>
      <use xlink:href="#ArialMT-4d"/>
      <use xlink:href="#ArialMT-69" x="83.300781"/>
      <use xlink:href="#ArialMT-6e" x="105.517578"/>
      <use xlink:href="#ArialMT-75" x="161.132812"/>
      <use xlink:href="#ArialMT-74" x="216.748047"/>
      <use xlink:href="#ArialMT-65" x="244.53125"/>
      <use xlink:href="#ArialMT-73" x="300.146484"/>
      <use xlink:href="#ArialMT-20" x="350.146484"/>
      <use xlink:href="#ArialMT-69" x="377.929688"/>
      <use xlink:href="#ArialMT-6e" x="400.146484"/>
      <use xlink:href="#ArialMT-74" x="455.761719"/>
      <use xlink:href="#ArialMT-6f" x="483.544922"/>
      <use xlink:href="#ArialMT-20" x="539.160156"/>
      <use xlink:href="#ArialMT-73" x="566.943359"/>
      <use xlink:href="#ArialMT-77" x="616.943359"/>
      <use xlink:href="#ArialMT-65" x="689.160156"/>
      <use xlink:href="#ArialMT-65" x="744.775391"/>
      <use xlink:href="#ArialMT-70" x="800.390625"/>
     </g>
    </g>
   </g>
   <g id="matplotlib.axis_2">
    <g id="ytick_1">
     <g id="line2d_8">
      <path d="M 95.04 417.861818 
L 777.6 417.861818 
" clip-path="url(#p825216654a)" style="fill: none; stroke: #e8e8e3; stroke-width: 0.9; stroke-linecap: square"/>
     </g>
     <g id="line2d_9"/>
     <g id="text_9">
      <!-- 0 -->
      <g style="fill: #0f4c81" transform="translate(82.922969 421.798615) scale(0.11 -0.11)">
       <use xlink:href="#ArialMT-30"/>
      </g>
     </g>
    </g>
    <g id="ytick_2">
     <g id="line2d_10">
      <path d="M 95.04 353.621893 
L 777.6 353.621893 
" clip-path="url(#p825216654a)" style="fill: none; stroke: #e8e8e3; stroke-width: 0.9; stroke-linecap: square"/>
     </g>
     <g id="line2d_11"/>
     <g id="text_10">
      <!-- 20 -->
      <g style="fill: #0f4c81" transform="translate(76.805937 357.55869) scale(0.11 -0.11)">
       <use xlink:href="#ArialMT-32"/>
       <use xlink:href="#ArialMT-30" x="55.615234"/>
      </g>
     </g>
    </g>
    <g id="ytick_3">
     <g id="line2d_12">
      <path d="M 95.04 289.381968 
L 777.6 289.381968 
" clip-path="url(#p825216654a)" style="fill: none; stroke: #e8e8e3; stroke-width: 0.9; stroke-linecap: square"/>
     </g>
     <g id="line2d_13"/>
     <g id="text_11">
      <!-- 40 -->
      <g style="fill: #0f4c81" transform="translate(76.805937 293.318765) scale(0.11 -0.11)">
       <defs>
        <path id="ArialMT-34" d="M 2069 0 
L 2069 1097 
L 81 1097 
L 81 1613 
L 2172 4581 
L 2631 4581 
L 2631 1613 
L 3250 1613 
L 3250 1097 
L 2631 1097 
L 2631 0 
L 2069 0 
z
M 2069 1613 
L 2069 3678 
L 634 1613 
L 2069 1613 
z
" transform="scale(0.015625)"/>
       </defs>
       <use xlink:href="#ArialMT-34"/>
       <use xlink:href="#ArialMT-30" x="55.615234"/>
      </g>
     </g>
    </g>
    <g id="ytick_4">
     <g id="line2d_14">
      <path d="M 95.04 225.142043 
L 777.6 225.142043 
" clip-path="url(#p825216654a)" style="fill: none; stroke: #e8e8e3; stroke-width: 0.9; stroke-linecap: square"/>
     </g>
     <g id="line2d_15"/>
     <g id="text_12">
      <!-- 60 -->
      <g style="fill: #0f4c81" transform="translate(76.805937 229.07884) scale(0.11 -0.11)">
       <defs>
        <path id="ArialMT-36" d="M 3184 3459 
L 2625 3416 
Q 2550 3747 2413 3897 
Q 2184 4138 1850 4138 
Q 1581 4138 1378 3988 
Q 1113 3794 959 3422 
Q 806 3050 800 2363 
Q 1003 2672 1297 2822 
Q 1591 2972 1913 2972 
Q 2475 2972 2870 2558 
Q 3266 2144 3266 1488 
Q 3266 1056 3080 686 
Q 2894 316 2569 119 
Q 2244 -78 1831 -78 
Q 1128 -78 684 439 
Q 241 956 241 2144 
Q 241 3472 731 4075 
Q 1159 4600 1884 4600 
Q 2425 4600 2770 4297 
Q 3116 3994 3184 3459 
z
M 888 1484 
Q 888 1194 1011 928 
Q 1134 663 1356 523 
Q 1578 384 1822 384 
Q 2178 384 2434 671 
Q 2691 959 2691 1453 
Q 2691 1928 2437 2201 
Q 2184 2475 1800 2475 
Q 1419 2475 1153 2201 
Q 888 1928 888 1484 
z
" transform="scale(0.015625)"/>
       </defs>
       <use xlink:href="#ArialMT-36"/>
       <use xlink:href="#ArialMT-30" x="55.615234"/>
      </g>
     </g>
    </g>
    <g id="ytick_5">
     <g id="line2d_16">
      <path d="M 95.04 160.902118 
L 777.6 160.902118 
" clip-path="url(#p825216654a)" style="fill: none; stroke: #e8e8e3; stroke-width: 0.9; stroke-linecap: square"/>
     </g>
     <g id="line2d_17"/>
     <g id="text_13">
      <!-- 80 -->
      <g style="fill: #0f4c81" transform="translate(76.805937 164.838915) scale(0.11 -0.11)">
       <defs>
        <path id="ArialMT-38" d="M 1131 2484 
Q 781 2613 612 2850 
Q 444 3088 444 3419 
Q 444 3919 803 4259 
Q 1163 4600 1759 4600 
Q 2359 4600 2725 4251 
Q 3091 3903 3091 3403 
Q 3091 3084 2923 2848 
Q 2756 2613 2416 2484 
Q 2838 2347 3058 2040 
Q 3278 1734 3278 1309 
Q 3278 722 2862 322 
Q 2447 -78 1769 -78 
Q 1091 -78 675 323 
Q 259 725 259 1325 
Q 259 1772 486 2073 
Q 713 2375 1131 2484 
z
M 1019 3438 
Q 1019 3113 1228 2906 
Q 1438 2700 1772 2700 
Q 2097 2700 2305 2904 
Q 2513 3109 2513 3406 
Q 2513 3716 2298 3927 
Q 2084 4138 1766 4138 
Q 1444 4138 1231 3931 
Q 1019 3725 1019 3438 
z
M 838 1322 
Q 838 1081 952 856 
Q 1066 631 1291 507 
Q 1516 384 1775 384 
Q 2178 384 2440 643 
Q 2703 903 2703 1303 
Q 2703 1709 2433 1975 
Q 2163 2241 1756 2241 
Q 1359 2241 1098 1978 
Q 838 1716 838 1322 
z
" transform="scale(0.015625)"/>
       </defs>
       <use xlink:href="#ArialMT-38"/>
       <use xlink:href="#ArialMT-30" x="55.615234"/>
      </g>
     </g>
    </g>
    <g id="ytick_6">
     <g id="line2d_18">
      <path d="M 95.04 96.662193 
L 777.6 96.662193 
" clip-path="url(#p825216654a)" style="fill: none; stroke: #e8e8e3; stroke-width: 0.9; stroke-linecap: square"/>
     </g>
     <g id="line2d_19"/>
     <g id="text_14">
      <!-- 100 -->
      <g style="fill: #0f4c81" transform="translate(70.688906 100.59899) scale(0.11 -0.11)">
       <use xlink:href="#ArialMT-31"/>
       <use xlink:href="#ArialMT-30" x="55.615234"/>
       <use xlink:href="#ArialMT-30" x="111.230469"/>
      </g>
     </g>
    </g>
    <g id="text_15">
     <!-- GPU Utilization (%) -->
     <g style="fill: #5f5f5f" transform="translate(56.163281 313.755938) rotate(-90) scale(0.12 -0.12)">
      <defs>
       <path id="ArialMT-47" d="M 2638 1797 
L 2638 2334 
L 4578 2338 
L 4578 638 
Q 4131 281 3656 101 
Q 3181 -78 2681 -78 
Q 2006 -78 1454 211 
Q 903 500 622 1047 
Q 341 1594 341 2269 
Q 341 2938 620 3517 
Q 900 4097 1425 4378 
Q 1950 4659 2634 4659 
Q 3131 4659 3532 4498 
Q 3934 4338 4162 4050 
Q 4391 3763 4509 3300 
L 3963 3150 
Q 3859 3500 3706 3700 
Q 3553 3900 3268 4020 
Q 2984 4141 2638 4141 
Q 2222 4141 1919 4014 
Q 1616 3888 1430 3681 
Q 1244 3475 1141 3228 
Q 966 2803 966 2306 
Q 966 1694 1177 1281 
Q 1388 869 1791 669 
Q 2194 469 2647 469 
Q 3041 469 3416 620 
Q 3791 772 3984 944 
L 3984 1797 
L 2638 1797 
z
" transform="scale(0.015625)"/>
       <path id="ArialMT-50" d="M 494 0 
L 494 4581 
L 2222 4581 
Q 2678 4581 2919 4538 
Q 3256 4481 3484 4323 
Q 3713 4166 3852 3881 
Q 3991 3597 3991 3256 
Q 3991 2672 3619 2267 
Q 3247 1863 2275 1863 
L 1100 1863 
L 1100 0 
L 494 0 
z
M 1100 2403 
L 2284 2403 
Q 2872 2403 3119 2622 
Q 3366 2841 3366 3238 
Q 3366 3525 3220 3729 
Q 3075 3934 2838 4000 
Q 2684 4041 2272 4041 
L 1100 4041 
L 1100 2403 
z
" transform="scale(0.015625)"/>
       <path id="ArialMT-55" d="M 3500 4581 
L 4106 4581 
L 4106 1934 
Q 4106 1244 3950 837 
Q 3794 431 3386 176 
Q 2978 -78 2316 -78 
Q 1672 -78 1262 144 
Q 853 366 678 786 
Q 503 1206 503 1934 
L 503 4581 
L 1109 4581 
L 1109 1938 
Q 1109 1341 1220 1058 
Q 1331 775 1601 622 
Q 1872 469 2263 469 
Q 2931 469 3215 772 
Q 3500 1075 3500 1938 
L 3500 4581 
z
" transform="scale(0.015625)"/>
       <path id="ArialMT-6c" d="M 409 0 
L 409 4581 
L 972 4581 
L 972 0 
L 409 0 
z
" transform="scale(0.015625)"/>
       <path id="ArialMT-7a" d="M 125 0 
L 125 456 
L 2238 2881 
Q 1878 2863 1603 2863 
L 250 2863 
L 250 3319 
L 2963 3319 
L 2963 2947 
L 1166 841 
L 819 456 
Q 1197 484 1528 484 
L 3063 484 
L 3063 0 
L 125 0 
z
" transform="scale(0.015625)"/>
       <path id="ArialMT-61" d="M 2588 409 
Q 2275 144 1986 34 
Q 1697 -75 1366 -75 
Q 819 -75 525 192 
Q 231 459 231 875 
Q 231 1119 342 1320 
Q 453 1522 633 1644 
Q 813 1766 1038 1828 
Q 1203 1872 1538 1913 
Q 2219 1994 2541 2106 
Q 2544 2222 2544 2253 
Q 2544 2597 2384 2738 
Q 2169 2928 1744 2928 
Q 1347 2928 1158 2789 
Q 969 2650 878 2297 
L 328 2372 
Q 403 2725 575 2942 
Q 747 3159 1072 3276 
Q 1397 3394 1825 3394 
Q 2250 3394 2515 3294 
Q 2781 3194 2906 3042 
Q 3031 2891 3081 2659 
Q 3109 2516 3109 2141 
L 3109 1391 
Q 3109 606 3145 398 
Q 3181 191 3288 0 
L 2700 0 
Q 2613 175 2588 409 
z
M 2541 1666 
Q 2234 1541 1622 1453 
Q 1275 1403 1131 1340 
Q 988 1278 909 1158 
Q 831 1038 831 891 
Q 831 666 1001 516 
Q 1172 366 1500 366 
Q 1825 366 2078 508 
Q 2331 650 2450 897 
Q 2541 1088 2541 1459 
L 2541 1666 
z
" transform="scale(0.015625)"/>
       <path id="ArialMT-28" d="M 1497 -1347 
Q 1031 -759 709 28 
Q 388 816 388 1659 
Q 388 2403 628 3084 
Q 909 3875 1497 4659 
L 1900 4659 
Q 1522 4009 1400 3731 
Q 1209 3300 1100 2831 
Q 966 2247 966 1656 
Q 966 153 1900 -1347 
L 1497 -1347 
z
" transform="scale(0.015625)"/>
       <path id="ArialMT-25" d="M 372 3481 
Q 372 3972 619 4315 
Q 866 4659 1334 4659 
Q 1766 4659 2048 4351 
Q 2331 4044 2331 3447 
Q 2331 2866 2045 2552 
Q 1759 2238 1341 2238 
Q 925 2238 648 2547 
Q 372 2856 372 3481 
z
M 1350 4272 
Q 1141 4272 1002 4090 
Q 863 3909 863 3425 
Q 863 2984 1003 2804 
Q 1144 2625 1350 2625 
Q 1563 2625 1702 2806 
Q 1841 2988 1841 3469 
Q 1841 3913 1700 4092 
Q 1559 4272 1350 4272 
z
M 1353 -169 
L 3859 4659 
L 4316 4659 
L 1819 -169 
L 1353 -169 
z
M 3334 1075 
Q 3334 1569 3581 1911 
Q 3828 2253 4300 2253 
Q 4731 2253 5014 1945 
Q 5297 1638 5297 1041 
Q 5297 459 5011 145 
Q 4725 -169 4303 -169 
Q 3888 -169 3611 142 
Q 3334 453 3334 1075 
z
M 4316 1866 
Q 4103 1866 3964 1684 
Q 3825 1503 3825 1019 
Q 3825 581 3965 400 
Q 4106 219 4313 219 
Q 4528 219 4667 400 
Q 4806 581 4806 1063 
Q 4806 1506 4665 1686 
Q 4525 1866 4316 1866 
z
" transform="scale(0.015625)"/>
       <path id="ArialMT-29" d="M 791 -1347 
L 388 -1347 
Q 1322 153 1322 1656 
Q 1322 2244 1188 2822 
Q 1081 3291 891 3722 
Q 769 4003 388 4659 
L 791 4659 
Q 1378 3875 1659 3084 
Q 1900 2403 1900 1659 
Q 1900 816 1576 28 
Q 1253 -759 791 -1347 
z
" transform="scale(0.015625)"/>
      </defs>
      <use xlink:href="#ArialMT-47"/>
      <use xlink:href="#ArialMT-50" x="77.783203"/>
      <use xlink:href="#ArialMT-55" x="144.482422"/>
      <use xlink:href="#ArialMT-20" x="216.699219"/>
      <use xlink:href="#ArialMT-55" x="244.482422"/>
      <use xlink:href="#ArialMT-74" x="316.699219"/>
      <use xlink:href="#ArialMT-69" x="344.482422"/>
      <use xlink:href="#ArialMT-6c" x="366.699219"/>
      <use xlink:href="#ArialMT-69" x="388.916016"/>
      <use xlink:href="#ArialMT-7a" x="411.132812"/>
      <use xlink:href="#ArialMT-61" x="461.132812"/>
      <use xlink:href="#ArialMT-74" x="516.748047"/>
      <use xlink:href="#ArialMT-69" x="544.53125"/>
      <use xlink:href="#ArialMT-6f" x="566.748047"/>
      <use xlink:href="#ArialMT-6e" x="622.363281"/>
      <use xlink:href="#ArialMT-20" x="677.978516"/>
      <use xlink:href="#ArialMT-28" x="705.761719"/>
      <use xlink:href="#ArialMT-25" x="739.0625"/>
      <use xlink:href="#ArialMT-29" x="827.978516"/>
     </g>
    </g>
   </g>
   <g id="PolyCollection_1">
    <defs>
     <path id="mac3c9d9101" d="M 126.065455 -86.138182 
L 126.065455 -86.138182 
L 131.414671 -397.701818 
L 136.763887 -397.701818 
L 142.113103 -394.489822 
L 147.46232 -397.701818 
L 152.811536 -394.489822 
L 158.160752 -397.701818 
L 163.509969 -275.645961 
L 168.859185 -397.701818 
L 174.208401 -397.701818 
L 179.557618 -397.701818 
L 184.906834 -397.701818 
L 190.25605 -397.701818 
L 195.605266 -282.069953 
L 200.954483 -282.069953 
L 206.303699 -278.857957 
L 211.652915 -282.069953 
L 217.002132 -282.069953 
L 222.351348 -282.069953 
L 227.700564 -288.493946 
L 233.049781 -282.069953 
L 238.398997 -282.069953 
L 243.748213 -282.069953 
L 249.097429 -285.281949 
L 254.446646 -288.493946 
L 259.795862 -285.281949 
L 265.145078 -282.069953 
L 270.494295 -288.493946 
L 275.843511 -288.493946 
L 281.192727 -282.069953 
L 286.541944 -285.281949 
L 291.89116 -285.281949 
L 297.240376 -240.314002 
L 302.589592 -243.525998 
L 307.938809 -249.949991 
L 313.288025 -246.737994 
L 318.637241 -243.525998 
L 323.986458 -237.102006 
L 329.335674 -243.525998 
L 334.68489 -237.102006 
L 340.034107 -240.314002 
L 345.383323 -249.949991 
L 350.732539 -246.737994 
L 356.081755 -240.314002 
L 361.430972 -243.525998 
L 366.780188 -237.102006 
L 372.129404 -243.525998 
L 377.478621 -240.314002 
L 382.827837 -240.314002 
L 388.177053 -237.102006 
L 393.52627 -240.314002 
L 398.875486 -240.314002 
L 404.224702 -243.525998 
L 409.573918 -240.314002 
L 414.923135 -237.102006 
L 420.272351 -249.949991 
L 425.621567 -275.645961 
L 430.970784 -266.009972 
L 436.32 -269.221968 
L 441.669216 -233.890009 
L 447.018433 -262.797976 
L 452.367649 -256.373983 
L 457.716865 -259.585979 
L 463.066082 -253.161987 
L 468.415298 -262.797976 
L 473.764514 -266.009972 
L 479.11373 -278.857957 
L 484.462947 -269.221968 
L 489.812163 -272.433964 
L 495.161379 -269.221968 
L 500.510596 -269.221968 
L 505.859812 -269.221968 
L 511.209028 -282.069953 
L 516.558245 -259.585979 
L 521.907461 -256.373983 
L 527.256677 -259.585979 
L 532.605893 -249.949991 
L 537.95511 -288.493946 
L 543.304326 -272.433964 
L 548.653542 -269.221968 
L 554.002759 -272.433964 
L 559.351975 -269.221968 
L 564.701191 -269.221968 
L 570.050408 -282.069953 
L 575.399624 -272.433964 
L 580.74884 -275.645961 
L 586.098056 -288.493946 
L 591.447273 -282.069953 
L 596.796489 -269.221968 
L 602.145705 -262.797976 
L 607.494922 -272.433964 
L 612.844138 -266.009972 
L 618.193354 -269.221968 
L 623.542571 -269.221968 
L 628.891787 -294.917938 
L 634.241003 -269.221968 
L 639.590219 -262.797976 
L 644.939436 -179.286073 
L 650.288652 -269.221968 
L 655.637868 -275.645961 
L 660.987085 -262.797976 
L 666.336301 -266.009972 
L 671.685517 -269.221968 
L 677.034734 -278.857957 
L 682.38395 -275.645961 
L 687.733166 -262.797976 
L 693.082382 -272.433964 
L 698.431599 -275.645961 
L 703.780815 -272.433964 
L 709.130031 -259.585979 
L 714.479248 -269.221968 
L 719.828464 -272.433964 
L 725.17768 -275.645961 
L 730.526897 -256.373983 
L 735.876113 -266.009972 
L 741.225329 -256.373983 
L 746.574545 -272.433964 
L 746.574545 -86.138182 
L 746.574545 -86.138182 
L 741.225329 -86.138182 
L 735.876113 -86.138182 
L 730.526897 -86.138182 
L 725.17768 -86.138182 
L 719.828464 -86.138182 
L 714.479248 -86.138182 
L 709.130031 -86.138182 
L 703.780815 -86.138182 
L 698.431599 -86.138182 
L 693.082382 -86.138182 
L 687.733166 -86.138182 
L 682.38395 -86.138182 
L 677.034734 -86.138182 
L 671.685517 -86.138182 
L 666.336301 -86.138182 
L 660.987085 -86.138182 
L 655.637868 -86.138182 
L 650.288652 -86.138182 
L 644.939436 -86.138182 
L 639.590219 -86.138182 
L 634.241003 -86.138182 
L 628.891787 -86.138182 
L 623.542571 -86.138182 
L 618.193354 -86.138182 
L 612.844138 -86.138182 
L 607.494922 -86.138182 
L 602.145705 -86.138182 
L 596.796489 -86.138182 
L 591.447273 -86.138182 
L 586.098056 -86.138182 
L 580.74884 -86.138182 
L 575.399624 -86.138182 
L 570.050408 -86.138182 
L 564.701191 -86.138182 
L 559.351975 -86.138182 
L 554.002759 -86.138182 
L 548.653542 -86.138182 
L 543.304326 -86.138182 
L 537.95511 -86.138182 
L 532.605893 -86.138182 
L 527.256677 -86.138182 
L 521.907461 -86.138182 
L 516.558245 -86.138182 
L 511.209028 -86.138182 
L 505.859812 -86.138182 
L 500.510596 -86.138182 
L 495.161379 -86.138182 
L 489.812163 -86.138182 
L 484.462947 -86.138182 
L 479.11373 -86.138182 
L 473.764514 -86.138182 
L 468.415298 -86.138182 
L 463.066082 -86.138182 
L 457.716865 -86.138182 
L 452.367649 -86.138182 
L 447.018433 -86.138182 
L 441.669216 -86.138182 
L 436.32 -86.138182 
L 430.970784 -86.138182 
L 425.621567 -86.138182 
L 420.272351 -86.138182 
L 414.923135 -86.138182 
L 409.573918 -86.138182 
L 404.224702 -86.138182 
L 398.875486 -86.138182 
L 393.52627 -86.138182 
L 388.177053 -86.138182 
L 382.827837 -86.138182 
L 377.478621 -86.138182 
L 372.129404 -86.138182 
L 366.780188 -86.138182 
L 361.430972 -86.138182 
L 356.081755 -86.138182 
L 350.732539 -86.138182 
L 345.383323 -86.138182 
L 340.034107 -86.138182 
L 334.68489 -86.138182 
L 329.335674 -86.138182 
L 323.986458 -86.138182 
L 318.637241 -86.138182 
L 313.288025 -86.138182 
L 307.938809 -86.138182 
L 302.589592 -86.138182 
L 297.240376 -86.138182 
L 291.89116 -86.138182 
L 286.541944 -86.138182 
L 281.192727 -86.138182 
L 275.843511 -86.138182 
L 270.494295 -86.138182 
L 265.145078 -86.138182 
L 259.795862 -86.138182 
L 254.446646 -86.138182 
L 249.097429 -86.138182 
L 243.748213 -86.138182 
L 238.398997 -86.138182 
L 233.049781 -86.138182 
L 227.700564 -86.138182 
L 222.351348 -86.138182 
L 217.002132 -86.138182 
L 211.652915 -86.138182 
L 206.303699 -86.138182 
L 200.954483 -86.138182 
L 195.605266 -86.138182 
L 190.25605 -86.138182 
L 184.906834 -86.138182 
L 179.557618 -86.138182 
L 174.208401 -86.138182 
L 168.859185 -86.138182 
L 163.509969 -86.138182 
L 158.160752 -86.138182 
L 152.811536 -86.138182 
L 147.46232 -86.138182 
L 142.113103 -86.138182 
L 136.763887 -86.138182 
L 131.414671 -86.138182 
L 126.065455 -86.138182 
z
" style="stroke: #0f4c81; stroke-opacity: 0.08"/>
    </defs>
    <g clip-path="url(#p825216654a)">
     <use xlink:href="#mac3c9d9101" x="0" y="504" style="fill: #0f4c81; fill-opacity: 0.08; stroke: #0f4c81; stroke-opacity: 0.08"/>
    </g>
   </g>
   <g id="line2d_20">
    <path d="M 126.065455 417.861818 
L 131.414671 106.298182 
L 136.763887 106.298182 
L 142.113103 109.510178 
L 147.46232 106.298182 
L 152.811536 109.510178 
L 158.160752 106.298182 
L 163.509969 228.354039 
L 168.859185 106.298182 
L 174.208401 106.298182 
L 179.557618 106.298182 
L 184.906834 106.298182 
L 190.25605 106.298182 
L 195.605266 221.930047 
L 200.954483 221.930047 
L 206.303699 225.142043 
L 211.652915 221.930047 
L 217.002132 221.930047 
L 222.351348 221.930047 
L 227.700564 215.506054 
L 233.049781 221.930047 
L 238.398997 221.930047 
L 243.748213 221.930047 
L 249.097429 218.718051 
L 254.446646 215.506054 
L 259.795862 218.718051 
L 265.145078 221.930047 
L 270.494295 215.506054 
L 275.843511 215.506054 
L 281.192727 221.930047 
L 286.541944 218.718051 
L 291.89116 218.718051 
L 297.240376 263.685998 
L 302.589592 260.474002 
L 307.938809 254.050009 
L 313.288025 257.262006 
L 318.637241 260.474002 
L 323.986458 266.897994 
L 329.335674 260.474002 
L 334.68489 266.897994 
L 340.034107 263.685998 
L 345.383323 254.050009 
L 350.732539 257.262006 
L 356.081755 263.685998 
L 361.430972 260.474002 
L 366.780188 266.897994 
L 372.129404 260.474002 
L 377.478621 263.685998 
L 382.827837 263.685998 
L 388.177053 266.897994 
L 393.52627 263.685998 
L 398.875486 263.685998 
L 404.224702 260.474002 
L 409.573918 263.685998 
L 414.923135 266.897994 
L 420.272351 254.050009 
L 425.621567 228.354039 
L 430.970784 237.990028 
L 436.32 234.778032 
L 441.669216 270.109991 
L 447.018433 241.202024 
L 452.367649 247.626017 
L 457.716865 244.414021 
L 463.066082 250.838013 
L 468.415298 241.202024 
L 473.764514 237.990028 
L 479.11373 225.142043 
L 484.462947 234.778032 
L 489.812163 231.566036 
L 495.161379 234.778032 
L 500.510596 234.778032 
L 505.859812 234.778032 
L 511.209028 221.930047 
L 516.558245 244.414021 
L 521.907461 247.626017 
L 527.256677 244.414021 
L 532.605893 254.050009 
L 537.95511 215.506054 
L 543.304326 231.566036 
L 548.653542 234.778032 
L 554.002759 231.566036 
L 559.351975 234.778032 
L 564.701191 234.778032 
L 570.050408 221.930047 
L 575.399624 231.566036 
L 580.74884 228.354039 
L 586.098056 215.506054 
L 591.447273 221.930047 
L 596.796489 234.778032 
L 602.145705 241.202024 
L 607.494922 231.566036 
L 612.844138 237.990028 
L 618.193354 234.778032 
L 623.542571 234.778032 
L 628.891787 209.082062 
L 634.241003 234.778032 
L 639.590219 241.202024 
L 644.939436 324.713927 
L 650.288652 234.778032 
L 655.637868 228.354039 
L 660.987085 241.202024 
L 666.336301 237.990028 
L 671.685517 234.778032 
L 677.034734 225.142043 
L 682.38395 228.354039 
L 687.733166 241.202024 
L 693.082382 231.566036 
L 698.431599 228.354039 
L 703.780815 231.566036 
L 709.130031 244.414021 
L 714.479248 234.778032 
L 719.828464 231.566036 
L 725.17768 228.354039 
L 730.526897 247.626017 
L 735.876113 237.990028 
L 741.225329 247.626017 
L 746.574545 231.566036 
" clip-path="url(#p825216654a)" style="fill: none; stroke: #0f4c81; stroke-width: 3; stroke-linecap: square"/>
   </g>
   <g id="patch_3">
    <path d="M 95.04 433.44 
L 95.04 90.72 
" style="fill: none; stroke: #d9d9d2; stroke-width: 0.8; stroke-linejoin: miter; stroke-linecap: square"/>
   </g>
   <g id="patch_4">
    <path d="M 95.04 433.44 
L 777.6 433.44 
" style="fill: none; stroke: #d9d9d2; stroke-width: 0.8; stroke-linejoin: miter; stroke-linecap: square"/>
   </g>
   <g id="PathCollection_1">
    <defs>
     <path id="m35244cf004" d="M 0 3 
C 0.795609 3 1.55874 2.683901 2.12132 2.12132 
C 2.683901 1.55874 3 0.795609 3 0 
C 3 -0.795609 2.683901 -1.55874 2.12132 -2.12132 
C 1.55874 -2.683901 0.795609 -3 0 -3 
C -0.795609 -3 -1.55874 -2.683901 -2.12132 -2.12132 
C -2.683901 -1.55874 -3 -0.795609 -3 0 
C -3 0.795609 -2.683901 1.55874 -2.12132 2.12132 
C -1.55874 2.683901 -0.795609 3 0 3 
z
" style="stroke: #0f4c81"/>
    </defs>
    <g clip-path="url(#p825216654a)">
     <use xlink:href="#m35244cf004" x="126.065455" y="417.861818" style="fill: #0f4c81; stroke: #0f4c81"/>
     <use xlink:href="#m35244cf004" x="746.574545" y="231.566036" style="fill: #0f4c81; stroke: #0f4c81"/>
    </g>
   </g>
   <g id="legend_1">
    <g id="line2d_21">
     <path d="M 103.59 103.213984 
L 113.09 103.213984 
L 122.59 103.213984 
" style="fill: none; stroke: #0f4c81; stroke-width: 3; stroke-linecap: square"/>
    </g>
    <g id="text_16">
     <!-- GPU Utilization (%) -->
     <g style="fill: #5f5f5f" transform="translate(130.19 106.538984) scale(0.095 -0.095)">
      <defs>
       <path id="DejaVuSansMono-47" d="M 3450 384 
Q 3197 150 2880 29 
Q 2563 -91 2194 -91 
Q 1306 -91 812 545 
Q 319 1181 319 2328 
Q 319 3472 819 4111 
Q 1319 4750 2209 4750 
Q 2503 4750 2772 4667 
Q 3041 4584 3291 4416 
L 3291 3769 
Q 3038 4009 2772 4123 
Q 2506 4238 2209 4238 
Q 1594 4238 1286 3761 
Q 978 3284 978 2328 
Q 978 1356 1276 889 
Q 1575 422 2194 422 
Q 2403 422 2561 470 
Q 2719 519 2847 622 
L 2847 1875 
L 2169 1875 
L 2169 2394 
L 3450 2394 
L 3450 384 
z
" transform="scale(0.015625)"/>
       <path id="DejaVuSansMono-50" d="M 1247 4147 
L 1247 2394 
L 1978 2394 
Q 2416 2394 2661 2625 
Q 2906 2856 2906 3272 
Q 2906 3688 2662 3917 
Q 2419 4147 1978 4147 
L 1247 4147 
z
M 616 4666 
L 1978 4666 
Q 2759 4666 3162 4311 
Q 3566 3956 3566 3272 
Q 3566 2581 3164 2228 
Q 2763 1875 1978 1875 
L 1247 1875 
L 1247 0 
L 616 0 
L 616 4666 
z
" transform="scale(0.015625)"/>
       <path id="DejaVuSansMono-55" d="M 459 1791 
L 459 4666 
L 1094 4666 
L 1094 1503 
Q 1094 1163 1112 1017 
Q 1131 872 1178 794 
Q 1278 609 1467 515 
Q 1656 422 1925 422 
Q 2197 422 2384 515 
Q 2572 609 2675 794 
Q 2722 872 2740 1015 
Q 2759 1159 2759 1497 
L 2759 4666 
L 3391 4666 
L 3391 1791 
Q 3391 1075 3302 773 
Q 3213 472 2994 275 
Q 2788 91 2522 0 
Q 2256 -91 1925 -91 
Q 1597 -91 1331 0 
Q 1066 91 856 275 
Q 641 469 550 776 
Q 459 1084 459 1791 
z
" transform="scale(0.015625)"/>
       <path id="DejaVuSansMono-20" transform="scale(0.015625)"/>
       <path id="DejaVuSansMono-74" d="M 1919 4494 
L 1919 3500 
L 3225 3500 
L 3225 3053 
L 1919 3053 
L 1919 1153 
Q 1919 766 2066 612 
Q 2213 459 2578 459 
L 3225 459 
L 3225 0 
L 2522 0 
Q 1875 0 1609 259 
Q 1344 519 1344 1153 
L 1344 3053 
L 409 3053 
L 409 3500 
L 1344 3500 
L 1344 4494 
L 1919 4494 
z
" transform="scale(0.015625)"/>
       <path id="DejaVuSansMono-69" d="M 800 3500 
L 2272 3500 
L 2272 447 
L 3413 447 
L 3413 0 
L 556 0 
L 556 447 
L 1697 447 
L 1697 3053 
L 800 3053 
L 800 3500 
z
M 1697 4863 
L 2272 4863 
L 2272 4134 
L 1697 4134 
L 1697 4863 
z
" transform="scale(0.015625)"/>
       <path id="DejaVuSansMono-6c" d="M 1997 1269 
Q 1997 881 2139 684 
Q 2281 488 2559 488 
L 3231 488 
L 3231 0 
L 2503 0 
Q 1988 0 1705 331 
Q 1422 663 1422 1269 
L 1422 4447 
L 500 4447 
L 500 4897 
L 1997 4897 
L 1997 1269 
z
" transform="scale(0.015625)"/>
       <path id="DejaVuSansMono-7a" d="M 709 3506 
L 3250 3506 
L 3250 2981 
L 1241 469 
L 3250 469 
L 3250 0 
L 634 0 
L 634 531 
L 2644 3047 
L 709 3047 
L 709 3506 
z
" transform="scale(0.015625)"/>
       <path id="DejaVuSansMono-61" d="M 2194 1759 
L 2003 1759 
Q 1500 1759 1245 1582 
Q 991 1406 991 1056 
Q 991 741 1181 566 
Q 1372 391 1709 391 
Q 2184 391 2456 720 
Q 2728 1050 2731 1631 
L 2731 1759 
L 2194 1759 
z
M 3309 1997 
L 3309 0 
L 2731 0 
L 2731 519 
Q 2547 206 2267 57 
Q 1988 -91 1588 -91 
Q 1053 -91 734 211 
Q 416 513 416 1019 
Q 416 1603 808 1906 
Q 1200 2209 1959 2209 
L 2731 2209 
L 2731 2300 
Q 2728 2719 2518 2908 
Q 2309 3097 1850 3097 
Q 1556 3097 1256 3012 
Q 956 2928 672 2766 
L 672 3341 
Q 991 3463 1283 3523 
Q 1575 3584 1850 3584 
Q 2284 3584 2592 3456 
Q 2900 3328 3091 3072 
Q 3209 2916 3259 2686 
Q 3309 2456 3309 1997 
z
" transform="scale(0.015625)"/>
       <path id="DejaVuSansMono-6f" d="M 1925 3097 
Q 1488 3097 1263 2756 
Q 1038 2416 1038 1747 
Q 1038 1081 1263 739 
Q 1488 397 1925 397 
Q 2366 397 2591 739 
Q 2816 1081 2816 1747 
Q 2816 2416 2591 2756 
Q 2366 3097 1925 3097 
z
M 1925 3584 
Q 2653 3584 3039 3112 
Q 3425 2641 3425 1747 
Q 3425 850 3040 379 
Q 2656 -91 1925 -91 
Q 1197 -91 812 379 
Q 428 850 428 1747 
Q 428 2641 812 3112 
Q 1197 3584 1925 3584 
z
" transform="scale(0.015625)"/>
       <path id="DejaVuSansMono-6e" d="M 3284 2169 
L 3284 0 
L 2706 0 
L 2706 2169 
Q 2706 2641 2540 2862 
Q 2375 3084 2022 3084 
Q 1619 3084 1401 2798 
Q 1184 2513 1184 1978 
L 1184 0 
L 609 0 
L 609 3500 
L 1184 3500 
L 1184 2975 
Q 1338 3275 1600 3429 
Q 1863 3584 2222 3584 
Q 2756 3584 3020 3232 
Q 3284 2881 3284 2169 
z
" transform="scale(0.015625)"/>
       <path id="DejaVuSansMono-28" d="M 2766 4856 
Q 2350 4144 2145 3436 
Q 1941 2728 1941 2009 
Q 1941 1294 2145 584 
Q 2350 -125 2766 -844 
L 2266 -844 
Q 1794 -100 1562 604 
Q 1331 1309 1331 2009 
Q 1331 2706 1562 3412 
Q 1794 4119 2266 4856 
L 2766 4856 
z
" transform="scale(0.015625)"/>
       <path id="DejaVuSansMono-25" d="M 2175 997 
Q 2175 753 2339 587 
Q 2503 422 2747 422 
Q 2988 422 3155 589 
Q 3322 756 3322 997 
Q 3322 1238 3153 1406 
Q 2984 1575 2747 1575 
Q 2503 1575 2339 1409 
Q 2175 1244 2175 997 
z
M 1753 997 
Q 1753 1419 2040 1708 
Q 2328 1997 2747 1997 
Q 2947 1997 3126 1922 
Q 3306 1847 3450 1703 
Q 3594 1556 3672 1375 
Q 3750 1194 3750 997 
Q 3750 581 3459 290 
Q 3169 0 2747 0 
Q 2322 0 2037 286 
Q 1753 572 1753 997 
z
M 378 1453 
L 269 1753 
L 3525 3059 
L 3653 2759 
L 378 1453 
z
M 525 3475 
Q 525 3228 689 3064 
Q 853 2900 1100 2900 
Q 1341 2900 1509 3067 
Q 1678 3234 1678 3475 
Q 1678 3716 1509 3883 
Q 1341 4050 1100 4050 
Q 859 4050 692 3884 
Q 525 3719 525 3475 
z
M 103 3475 
Q 103 3897 390 4186 
Q 678 4475 1100 4475 
Q 1300 4475 1483 4400 
Q 1666 4325 1806 4184 
Q 1947 4044 2023 3861 
Q 2100 3678 2100 3475 
Q 2100 3056 1809 2767 
Q 1519 2478 1100 2478 
Q 678 2478 390 2765 
Q 103 3053 103 3475 
z
" transform="scale(0.015625)"/>
       <path id="DejaVuSansMono-29" d="M 1088 4856 
L 1588 4856 
Q 2059 4119 2290 3412 
Q 2522 2706 2522 2009 
Q 2522 1306 2290 600 
Q 2059 -106 1588 -844 
L 1088 -844 
Q 1503 -119 1708 590 
Q 1913 1300 1913 2009 
Q 1913 2722 1708 3431 
Q 1503 4141 1088 4856 
z
" transform="scale(0.015625)"/>
      </defs>
      <use xlink:href="#DejaVuSansMono-47"/>
      <use xlink:href="#DejaVuSansMono-50" x="60.205078"/>
      <use xlink:href="#DejaVuSansMono-55" x="120.410156"/>
      <use xlink:href="#DejaVuSansMono-20" x="180.615234"/>
      <use xlink:href="#DejaVuSansMono-55" x="240.820312"/>
      <use xlink:href="#DejaVuSansMono-74" x="301.025391"/>
      <use xlink:href="#DejaVuSansMono-69" x="361.230469"/>
      <use xlink:href="#DejaVuSansMono-6c" x="421.435547"/>
      <use xlink:href="#DejaVuSansMono-69" x="481.640625"/>
      <use xlink:href="#DejaVuSansMono-7a" x="541.845703"/>
      <use xlink:href="#DejaVuSansMono-61" x="602.050781"/>
      <use xlink:href="#DejaVuSansMono-74" x="662.255859"/>
      <use xlink:href="#DejaVuSansMono-69" x="722.460938"/>
      <use xlink:href="#DejaVuSansMono-6f" x="782.666016"/>
      <use xlink:href="#DejaVuSansMono-6e" x="842.871094"/>
      <use xlink:href="#DejaVuSansMono-20" x="903.076172"/>
      <use xlink:href="#DejaVuSansMono-28" x="963.28125"/>
      <use xlink:href="#DejaVuSansMono-25" x="1023.486328"/>
      <use xlink:href="#DejaVuSansMono-29" x="1083.691406"/>
     </g>
    </g>
    <g id="line2d_22">
     <path d="M 103.59 117.208672 
L 113.09 117.208672 
L 122.59 117.208672 
" style="fill: none; stroke-dasharray: 10,8; stroke-dashoffset: 0; stroke: #bf4342; stroke-width: 2"/>
    </g>
    <g id="text_17">
     <!-- In-flight Requests -->
     <g style="fill: #5f5f5f" transform="translate(130.19 120.533672) scale(0.095 -0.095)">
      <defs>
       <path id="DejaVuSansMono-49" d="M 628 4666 
L 3219 4666 
L 3219 4134 
L 2241 4134 
L 2241 531 
L 3219 531 
L 3219 0 
L 628 0 
L 628 531 
L 1606 531 
L 1606 4134 
L 628 4134 
L 628 4666 
z
" transform="scale(0.015625)"/>
       <path id="DejaVuSansMono-2d" d="M 1113 2009 
L 2741 2009 
L 2741 1497 
L 1113 1497 
L 1113 2009 
z
" transform="scale(0.015625)"/>
       <path id="DejaVuSansMono-66" d="M 3322 4863 
L 3322 4384 
L 2669 4384 
Q 2359 4384 2239 4257 
Q 2119 4131 2119 3809 
L 2119 3500 
L 3322 3500 
L 3322 3053 
L 2119 3053 
L 2119 0 
L 1544 0 
L 1544 3053 
L 609 3053 
L 609 3500 
L 1544 3500 
L 1544 3744 
Q 1544 4319 1808 4591 
Q 2072 4863 2631 4863 
L 3322 4863 
z
" transform="scale(0.015625)"/>
       <path id="DejaVuSansMono-67" d="M 2681 1778 
Q 2681 2425 2470 2761 
Q 2259 3097 1856 3097 
Q 1434 3097 1212 2761 
Q 991 2425 991 1778 
Q 991 1131 1214 792 
Q 1438 453 1863 453 
Q 2259 453 2470 793 
Q 2681 1134 2681 1778 
z
M 3256 225 
Q 3256 -563 2884 -969 
Q 2513 -1375 1791 -1375 
Q 1553 -1375 1293 -1331 
Q 1034 -1288 775 -1203 
L 775 -634 
Q 1081 -778 1331 -847 
Q 1581 -916 1791 -916 
Q 2256 -916 2468 -662 
Q 2681 -409 2681 141 
L 2681 166 
L 2681 556 
Q 2544 263 2306 119 
Q 2069 -25 1728 -25 
Q 1116 -25 750 465 
Q 384 956 384 1778 
Q 384 2603 750 3093 
Q 1116 3584 1728 3584 
Q 2066 3584 2300 3450 
Q 2534 3316 2681 3034 
L 2681 3488 
L 3256 3488 
L 3256 225 
z
" transform="scale(0.015625)"/>
       <path id="DejaVuSansMono-68" d="M 3284 2169 
L 3284 0 
L 2706 0 
L 2706 2169 
Q 2706 2641 2540 2862 
Q 2375 3084 2022 3084 
Q 1619 3084 1401 2798 
Q 1184 2513 1184 1978 
L 1184 0 
L 609 0 
L 609 4863 
L 1184 4863 
L 1184 2975 
Q 1338 3275 1600 3429 
Q 1863 3584 2222 3584 
Q 2756 3584 3020 3232 
Q 3284 2881 3284 2169 
z
" transform="scale(0.015625)"/>
       <path id="DejaVuSansMono-52" d="M 2375 2203 
Q 2619 2141 2791 1967 
Q 2963 1794 3219 1275 
L 3853 0 
L 3175 0 
L 2619 1178 
Q 2378 1681 2186 1826 
Q 1994 1972 1684 1972 
L 1081 1972 
L 1081 0 
L 447 0 
L 447 4666 
L 1747 4666 
Q 2516 4666 2925 4319 
Q 3334 3972 3334 3316 
Q 3334 2853 3082 2561 
Q 2831 2269 2375 2203 
z
M 1081 4147 
L 1081 2491 
L 1772 2491 
Q 2225 2491 2447 2694 
Q 2669 2897 2669 3316 
Q 2669 3719 2433 3933 
Q 2197 4147 1747 4147 
L 1081 4147 
z
" transform="scale(0.015625)"/>
       <path id="DejaVuSansMono-65" d="M 3475 1894 
L 3475 1613 
L 984 1613 
L 984 1594 
Q 984 1022 1282 709 
Q 1581 397 2125 397 
Q 2400 397 2700 484 
Q 3000 572 3341 750 
L 3341 178 
Q 3013 44 2708 -23 
Q 2403 -91 2119 -91 
Q 1303 -91 843 398 
Q 384 888 384 1747 
Q 384 2584 834 3084 
Q 1284 3584 2034 3584 
Q 2703 3584 3089 3131 
Q 3475 2678 3475 1894 
z
M 2900 2063 
Q 2888 2569 2661 2833 
Q 2434 3097 2009 3097 
Q 1594 3097 1325 2822 
Q 1056 2547 1006 2059 
L 2900 2063 
z
" transform="scale(0.015625)"/>
       <path id="DejaVuSansMono-71" d="M 1038 1734 
Q 1038 1066 1248 725 
Q 1459 384 1875 384 
Q 2291 384 2505 726 
Q 2719 1069 2719 1734 
Q 2719 2400 2505 2742 
Q 2291 3084 1875 3084 
Q 1459 3084 1248 2743 
Q 1038 2403 1038 1734 
z
M 2719 434 
Q 2578 175 2339 36 
Q 2100 -103 1784 -103 
Q 1156 -103 792 383 
Q 428 869 428 1722 
Q 428 2591 790 3081 
Q 1153 3572 1784 3572 
Q 2097 3572 2336 3436 
Q 2575 3300 2719 3041 
L 2719 3488 
L 3297 3488 
L 3297 -1344 
L 2719 -1344 
L 2719 434 
z
" transform="scale(0.015625)"/>
       <path id="DejaVuSansMono-75" d="M 609 1325 
L 609 3494 
L 1184 3494 
L 1184 1325 
Q 1184 853 1351 631 
Q 1519 409 1869 409 
Q 2275 409 2490 695 
Q 2706 981 2706 1516 
L 2706 3494 
L 3284 3494 
L 3284 0 
L 2706 0 
L 2706 525 
Q 2553 222 2289 65 
Q 2025 -91 1672 -91 
Q 1134 -91 871 261 
Q 609 613 609 1325 
z
" transform="scale(0.015625)"/>
       <path id="DejaVuSansMono-73" d="M 3041 3378 
L 3041 2816 
Q 2794 2959 2544 3031 
Q 2294 3103 2034 3103 
Q 1644 3103 1451 2976 
Q 1259 2850 1259 2591 
Q 1259 2356 1403 2240 
Q 1547 2125 2119 2016 
L 2350 1972 
Q 2778 1891 2998 1647 
Q 3219 1403 3219 1013 
Q 3219 494 2850 201 
Q 2481 -91 1825 -91 
Q 1566 -91 1281 -36 
Q 997 19 666 128 
L 666 722 
Q 988 556 1281 473 
Q 1575 391 1838 391 
Q 2219 391 2428 545 
Q 2638 700 2638 978 
Q 2638 1378 1872 1531 
L 1847 1538 
L 1631 1581 
Q 1134 1678 906 1908 
Q 678 2138 678 2534 
Q 678 3038 1018 3311 
Q 1359 3584 1991 3584 
Q 2272 3584 2531 3532 
Q 2791 3481 3041 3378 
z
" transform="scale(0.015625)"/>
      </defs>
      <use xlink:href="#DejaVuSansMono-49"/>
      <use xlink:href="#DejaVuSansMono-6e" x="60.205078"/>
      <use xlink:href="#DejaVuSansMono-2d" x="120.410156"/>
      <use xlink:href="#DejaVuSansMono-66" x="180.615234"/>
      <use xlink:href="#DejaVuSansMono-6c" x="240.820312"/>
      <use xlink:href="#DejaVuSansMono-69" x="301.025391"/>
      <use xlink:href="#DejaVuSansMono-67" x="361.230469"/>
      <use xlink:href="#DejaVuSansMono-68" x="421.435547"/>
      <use xlink:href="#DejaVuSansMono-74" x="481.640625"/>
      <use xlink:href="#DejaVuSansMono-20" x="541.845703"/>
      <use xlink:href="#DejaVuSansMono-52" x="602.050781"/>
      <use xlink:href="#DejaVuSansMono-65" x="662.255859"/>
      <use xlink:href="#DejaVuSansMono-71" x="722.460938"/>
      <use xlink:href="#DejaVuSansMono-75" x="782.666016"/>
      <use xlink:href="#DejaVuSansMono-65" x="842.871094"/>
      <use xlink:href="#DejaVuSansMono-73" x="903.076172"/>
      <use xlink:href="#DejaVuSansMono-74" x="963.28125"/>
      <use xlink:href="#DejaVuSansMono-73" x="1023.486328"/>
     </g>
    </g>
   </g>
  </g>
  <g id="axes_2">
   <g id="matplotlib.axis_3">
    <g id="ytick_7">
     <g id="line2d_23">
      <defs>
       <path id="m4782583653" d="M 0 0 
L 3.5 0 
" style="stroke: #bf4342; stroke-width: 0.8"/>
      </defs>
      <g>
       <use xlink:href="#m4782583653" x="777.6" y="417.861818" style="fill: #bf4342; stroke: #bf4342; stroke-width: 0.8"/>
      </g>
     </g>
     <g id="text_18">
      <!-- 0 -->
      <g style="fill: #bf4342" transform="translate(787.1 421.798615) scale(0.11 -0.11)">
       <use xlink:href="#ArialMT-30"/>
      </g>
     </g>
    </g>
    <g id="ytick_8">
     <g id="line2d_24">
      <g>
       <use xlink:href="#m4782583653" x="777.6" y="369.18" style="fill: #bf4342; stroke: #bf4342; stroke-width: 0.8"/>
      </g>
     </g>
     <g id="text_19">
      <!-- 10 -->
      <g style="fill: #bf4342" transform="translate(787.1 373.116797) scale(0.11 -0.11)">
       <use xlink:href="#ArialMT-31"/>
       <use xlink:href="#ArialMT-30" x="55.615234"/>
      </g>
     </g>
    </g>
    <g id="ytick_9">
     <g id="line2d_25">
      <g>
       <use xlink:href="#m4782583653" x="777.6" y="320.498182" style="fill: #bf4342; stroke: #bf4342; stroke-width: 0.8"/>
      </g>
     </g>
     <g id="text_20">
      <!-- 20 -->
      <g style="fill: #bf4342" transform="translate(787.1 324.434979) scale(0.11 -0.11)">
       <use xlink:href="#ArialMT-32"/>
       <use xlink:href="#ArialMT-30" x="55.615234"/>
      </g>
     </g>
    </g>
    <g id="ytick_10">
     <g id="line2d_26">
      <g>
       <use xlink:href="#m4782583653" x="777.6" y="271.816364" style="fill: #bf4342; stroke: #bf4342; stroke-width: 0.8"/>
      </g>
     </g>
     <g id="text_21">
      <!-- 30 -->
      <g style="fill: #bf4342" transform="translate(787.1 275.753161) scale(0.11 -0.11)">
       <use xlink:href="#ArialMT-33"/>
       <use xlink:href="#ArialMT-30" x="55.615234"/>
      </g>
     </g>
    </g>
    <g id="ytick_11">
     <g id="line2d_27">
      <g>
       <use xlink:href="#m4782583653" x="777.6" y="223.134545" style="fill: #bf4342; stroke: #bf4342; stroke-width: 0.8"/>
      </g>
     </g>
     <g id="text_22">
      <!-- 40 -->
      <g style="fill: #bf4342" transform="translate(787.1 227.071342) scale(0.11 -0.11)">
       <use xlink:href="#ArialMT-34"/>
       <use xlink:href="#ArialMT-30" x="55.615234"/>
      </g>
     </g>
    </g>
    <g id="ytick_12">
     <g id="line2d_28">
      <g>
       <use xlink:href="#m4782583653" x="777.6" y="174.452727" style="fill: #bf4342; stroke: #bf4342; stroke-width: 0.8"/>
      </g>
     </g>
     <g id="text_23">
      <!-- 50 -->
      <g style="fill: #bf4342" transform="translate(787.1 178.389524) scale(0.11 -0.11)">
       <use xlink:href="#ArialMT-35"/>
       <use xlink:href="#ArialMT-30" x="55.615234"/>
      </g>
     </g>
    </g>
    <g id="ytick_13">
     <g id="line2d_29">
      <g>
       <use xlink:href="#m4782583653" x="777.6" y="125.770909" style="fill: #bf4342; stroke: #bf4342; stroke-width: 0.8"/>
      </g>
     </g>
     <g id="text_24">
      <!-- 60 -->
      <g style="fill: #bf4342" transform="translate(787.1 129.707706) scale(0.11 -0.11)">
       <use xlink:href="#ArialMT-36"/>
       <use xlink:href="#ArialMT-30" x="55.615234"/>
      </g>
     </g>
    </g>
    <g id="text_25">
     <!-- In-flight Requests -->
     <g style="fill: #5f5f5f" transform="translate(820.069688 308.7675) rotate(-90) scale(0.12 -0.12)">
      <defs>
       <path id="ArialMT-49" d="M 597 0 
L 597 4581 
L 1203 4581 
L 1203 0 
L 597 0 
z
" transform="scale(0.015625)"/>
       <path id="ArialMT-2d" d="M 203 1375 
L 203 1941 
L 1931 1941 
L 1931 1375 
L 203 1375 
z
" transform="scale(0.015625)"/>
       <path id="ArialMT-66" d="M 556 0 
L 556 2881 
L 59 2881 
L 59 3319 
L 556 3319 
L 556 3672 
Q 556 4006 616 4169 
Q 697 4388 901 4523 
Q 1106 4659 1475 4659 
Q 1713 4659 2000 4603 
L 1916 4113 
Q 1741 4144 1584 4144 
Q 1328 4144 1222 4034 
Q 1116 3925 1116 3625 
L 1116 3319 
L 1763 3319 
L 1763 2881 
L 1116 2881 
L 1116 0 
L 556 0 
z
" transform="scale(0.015625)"/>
       <path id="ArialMT-67" d="M 319 -275 
L 866 -356 
Q 900 -609 1056 -725 
Q 1266 -881 1628 -881 
Q 2019 -881 2231 -725 
Q 2444 -569 2519 -288 
Q 2563 -116 2559 434 
Q 2191 0 1641 0 
Q 956 0 581 494 
Q 206 988 206 1678 
Q 206 2153 378 2554 
Q 550 2956 876 3175 
Q 1203 3394 1644 3394 
Q 2231 3394 2613 2919 
L 2613 3319 
L 3131 3319 
L 3131 450 
Q 3131 -325 2973 -648 
Q 2816 -972 2473 -1159 
Q 2131 -1347 1631 -1347 
Q 1038 -1347 672 -1080 
Q 306 -813 319 -275 
z
M 784 1719 
Q 784 1066 1043 766 
Q 1303 466 1694 466 
Q 2081 466 2343 764 
Q 2606 1063 2606 1700 
Q 2606 2309 2336 2618 
Q 2066 2928 1684 2928 
Q 1309 2928 1046 2623 
Q 784 2319 784 1719 
z
" transform="scale(0.015625)"/>
       <path id="ArialMT-68" d="M 422 0 
L 422 4581 
L 984 4581 
L 984 2938 
Q 1378 3394 1978 3394 
Q 2347 3394 2619 3248 
Q 2891 3103 3008 2847 
Q 3125 2591 3125 2103 
L 3125 0 
L 2563 0 
L 2563 2103 
Q 2563 2525 2380 2717 
Q 2197 2909 1863 2909 
Q 1613 2909 1392 2779 
Q 1172 2650 1078 2428 
Q 984 2206 984 1816 
L 984 0 
L 422 0 
z
" transform="scale(0.015625)"/>
       <path id="ArialMT-52" d="M 503 0 
L 503 4581 
L 2534 4581 
Q 3147 4581 3465 4457 
Q 3784 4334 3975 4021 
Q 4166 3709 4166 3331 
Q 4166 2844 3850 2509 
Q 3534 2175 2875 2084 
Q 3116 1969 3241 1856 
Q 3506 1613 3744 1247 
L 4541 0 
L 3778 0 
L 3172 953 
Q 2906 1366 2734 1584 
Q 2563 1803 2427 1890 
Q 2291 1978 2150 2013 
Q 2047 2034 1813 2034 
L 1109 2034 
L 1109 0 
L 503 0 
z
M 1109 2559 
L 2413 2559 
Q 2828 2559 3062 2645 
Q 3297 2731 3419 2920 
Q 3541 3109 3541 3331 
Q 3541 3656 3305 3865 
Q 3069 4075 2559 4075 
L 1109 4075 
L 1109 2559 
z
" transform="scale(0.015625)"/>
       <path id="ArialMT-71" d="M 2538 -1272 
L 2538 353 
Q 2406 169 2170 47 
Q 1934 -75 1669 -75 
Q 1078 -75 651 397 
Q 225 869 225 1691 
Q 225 2191 398 2587 
Q 572 2984 901 3189 
Q 1231 3394 1625 3394 
Q 2241 3394 2594 2875 
L 2594 3319 
L 3100 3319 
L 3100 -1272 
L 2538 -1272 
z
M 803 1669 
Q 803 1028 1072 708 
Q 1341 388 1716 388 
Q 2075 388 2334 692 
Q 2594 997 2594 1619 
Q 2594 2281 2320 2615 
Q 2047 2950 1678 2950 
Q 1313 2950 1058 2639 
Q 803 2328 803 1669 
z
" transform="scale(0.015625)"/>
      </defs>
      <use xlink:href="#ArialMT-49"/>
      <use xlink:href="#ArialMT-6e" x="27.783203"/>
      <use xlink:href="#ArialMT-2d" x="83.398438"/>
      <use xlink:href="#ArialMT-66" x="116.699219"/>
      <use xlink:href="#ArialMT-6c" x="144.482422"/>
      <use xlink:href="#ArialMT-69" x="166.699219"/>
      <use xlink:href="#ArialMT-67" x="188.916016"/>
      <use xlink:href="#ArialMT-68" x="244.53125"/>
      <use xlink:href="#ArialMT-74" x="300.146484"/>
      <use xlink:href="#ArialMT-20" x="327.929688"/>
      <use xlink:href="#ArialMT-52" x="355.712891"/>
      <use xlink:href="#ArialMT-65" x="427.929688"/>
      <use xlink:href="#ArialMT-71" x="483.544922"/>
      <use xlink:href="#ArialMT-75" x="539.160156"/>
      <use xlink:href="#ArialMT-65" x="594.775391"/>
      <use xlink:href="#ArialMT-73" x="650.390625"/>
      <use xlink:href="#ArialMT-74" x="700.390625"/>
      <use xlink:href="#ArialMT-73" x="728.173828"/>
     </g>
    </g>
   </g>
   <g id="line2d_30">
    <path d="M 126.065455 417.861818 
L 131.414671 412.993636 
L 136.763887 412.993636 
L 142.113103 412.993636 
L 147.46232 412.993636 
L 152.811536 412.993636 
L 158.160752 412.993636 
L 163.509969 412.993636 
L 168.859185 412.993636 
L 174.208401 412.993636 
L 179.557618 412.993636 
L 184.906834 412.993636 
L 190.25605 412.993636 
L 195.605266 398.389091 
L 200.954483 398.389091 
L 206.303699 398.389091 
L 211.652915 398.389091 
L 217.002132 398.389091 
L 222.351348 398.389091 
L 227.700564 398.389091 
L 233.049781 398.389091 
L 238.398997 398.389091 
L 243.748213 398.389091 
L 249.097429 398.389091 
L 254.446646 398.389091 
L 259.795862 398.389091 
L 265.145078 398.389091 
L 270.494295 398.389091 
L 275.843511 398.389091 
L 281.192727 398.389091 
L 286.541944 398.389091 
L 291.89116 398.389091 
L 297.240376 378.916364 
L 302.589592 378.916364 
L 307.938809 378.916364 
L 313.288025 378.916364 
L 318.637241 378.916364 
L 323.986458 378.916364 
L 329.335674 378.916364 
L 334.68489 378.916364 
L 340.034107 378.916364 
L 345.383323 378.916364 
L 350.732539 378.916364 
L 356.081755 378.916364 
L 361.430972 378.916364 
L 366.780188 378.916364 
L 372.129404 378.916364 
L 377.478621 378.916364 
L 382.827837 378.916364 
L 388.177053 378.916364 
L 393.52627 378.916364 
L 398.875486 378.916364 
L 404.224702 378.916364 
L 409.573918 378.916364 
L 414.923135 378.916364 
L 420.272351 378.916364 
L 425.621567 339.970909 
L 430.970784 339.970909 
L 436.32 339.970909 
L 441.669216 339.970909 
L 447.018433 339.970909 
L 452.367649 339.970909 
L 457.716865 339.970909 
L 463.066082 339.970909 
L 468.415298 339.970909 
L 473.764514 339.970909 
L 479.11373 339.970909 
L 484.462947 339.970909 
L 489.812163 339.970909 
L 495.161379 339.970909 
L 500.510596 339.970909 
L 505.859812 339.970909 
L 511.209028 339.970909 
L 516.558245 339.970909 
L 521.907461 339.970909 
L 527.256677 339.970909 
L 532.605893 339.970909 
L 537.95511 262.08 
L 543.304326 262.08 
L 548.653542 262.08 
L 554.002759 262.08 
L 559.351975 262.08 
L 564.701191 262.08 
L 570.050408 262.08 
L 575.399624 262.08 
L 580.74884 262.08 
L 586.098056 262.08 
L 591.447273 262.08 
L 596.796489 262.08 
L 602.145705 262.08 
L 607.494922 262.08 
L 612.844138 262.08 
L 618.193354 262.08 
L 623.542571 262.08 
L 628.891787 262.08 
L 634.241003 262.08 
L 639.590219 262.08 
L 644.939436 252.343636 
L 650.288652 106.298182 
L 655.637868 106.298182 
L 660.987085 106.298182 
L 666.336301 106.298182 
L 671.685517 106.298182 
L 677.034734 106.298182 
L 682.38395 106.298182 
L 687.733166 106.298182 
L 693.082382 106.298182 
L 698.431599 106.298182 
L 703.780815 106.298182 
L 709.130031 106.298182 
L 714.479248 106.298182 
L 719.828464 106.298182 
L 725.17768 106.298182 
L 730.526897 106.298182 
L 735.876113 106.298182 
L 741.225329 106.298182 
L 746.574545 106.298182 
" clip-path="url(#p825216654a)" style="fill: none; stroke-dasharray: 10,8; stroke-dashoffset: 0; stroke: #bf4342; stroke-width: 2"/>
   </g>
   <g id="patch_5">
    <path d="M 777.6 433.44 
L 777.6 90.72 
" style="fill: none; stroke: #d9d9d2; stroke-width: 0.8; stroke-linejoin: miter; stroke-linecap: square"/>
   </g>
   <g id="patch_6">
    <path d="M 95.04 433.44 
L 777.6 433.44 
" style="fill: none; stroke: #d9d9d2; stroke-width: 0.8; stroke-linejoin: miter; stroke-linecap: square"/>
   </g>
  </g>
  <g id="text_26">
   <!-- GPU utilization during the sweep -->
   <g style="fill: #171717" transform="translate(69.12 33.319219) scale(0.25 -0.25)">
    <defs>
     <path id="Arial-BoldMT-47" d="M 2597 1684 
L 2597 2456 
L 4591 2456 
L 4591 631 
Q 4300 350 3748 136 
Q 3197 -78 2631 -78 
Q 1913 -78 1378 223 
Q 844 525 575 1086 
Q 306 1647 306 2306 
Q 306 3022 606 3578 
Q 906 4134 1484 4431 
Q 1925 4659 2581 4659 
Q 3434 4659 3914 4301 
Q 4394 3944 4531 3313 
L 3613 3141 
Q 3516 3478 3248 3673 
Q 2981 3869 2581 3869 
Q 1975 3869 1617 3484 
Q 1259 3100 1259 2344 
Q 1259 1528 1621 1120 
Q 1984 713 2572 713 
Q 2863 713 3155 827 
Q 3447 941 3656 1103 
L 3656 1684 
L 2597 1684 
z
" transform="scale(0.015625)"/>
     <path id="Arial-BoldMT-50" d="M 466 0 
L 466 4581 
L 1950 4581 
Q 2794 4581 3050 4513 
Q 3444 4409 3709 4064 
Q 3975 3719 3975 3172 
Q 3975 2750 3822 2462 
Q 3669 2175 3433 2011 
Q 3197 1847 2953 1794 
Q 2622 1728 1994 1728 
L 1391 1728 
L 1391 0 
L 466 0 
z
M 1391 3806 
L 1391 2506 
L 1897 2506 
Q 2444 2506 2628 2578 
Q 2813 2650 2917 2803 
Q 3022 2956 3022 3159 
Q 3022 3409 2875 3571 
Q 2728 3734 2503 3775 
Q 2338 3806 1838 3806 
L 1391 3806 
z
" transform="scale(0.015625)"/>
     <path id="Arial-BoldMT-55" d="M 459 4581 
L 1384 4581 
L 1384 2100 
Q 1384 1509 1419 1334 
Q 1478 1053 1701 883 
Q 1925 713 2313 713 
Q 2706 713 2906 873 
Q 3106 1034 3147 1268 
Q 3188 1503 3188 2047 
L 3188 4581 
L 4113 4581 
L 4113 2175 
Q 4113 1350 4038 1009 
Q 3963 669 3761 434 
Q 3559 200 3221 61 
Q 2884 -78 2341 -78 
Q 1684 -78 1345 73 
Q 1006 225 809 467 
Q 613 709 550 975 
Q 459 1369 459 2138 
L 459 4581 
z
" transform="scale(0.015625)"/>
     <path id="Arial-BoldMT-20" transform="scale(0.015625)"/>
     <path id="Arial-BoldMT-75" d="M 2644 0 
L 2644 497 
Q 2463 231 2167 78 
Q 1872 -75 1544 -75 
Q 1209 -75 943 72 
Q 678 219 559 484 
Q 441 750 441 1219 
L 441 3319 
L 1319 3319 
L 1319 1794 
Q 1319 1094 1367 936 
Q 1416 778 1544 686 
Q 1672 594 1869 594 
Q 2094 594 2272 717 
Q 2450 841 2515 1023 
Q 2581 1206 2581 1919 
L 2581 3319 
L 3459 3319 
L 3459 0 
L 2644 0 
z
" transform="scale(0.015625)"/>
     <path id="Arial-BoldMT-74" d="M 1981 3319 
L 1981 2619 
L 1381 2619 
L 1381 1281 
Q 1381 875 1398 808 
Q 1416 741 1477 697 
Q 1538 653 1625 653 
Q 1747 653 1978 738 
L 2053 56 
Q 1747 -75 1359 -75 
Q 1122 -75 931 4 
Q 741 84 652 211 
Q 563 338 528 553 
Q 500 706 500 1172 
L 500 2619 
L 97 2619 
L 97 3319 
L 500 3319 
L 500 3978 
L 1381 4491 
L 1381 3319 
L 1981 3319 
z
" transform="scale(0.015625)"/>
     <path id="Arial-BoldMT-69" d="M 459 3769 
L 459 4581 
L 1338 4581 
L 1338 3769 
L 459 3769 
z
M 459 0 
L 459 3319 
L 1338 3319 
L 1338 0 
L 459 0 
z
" transform="scale(0.015625)"/>
     <path id="Arial-BoldMT-6c" d="M 459 0 
L 459 4581 
L 1338 4581 
L 1338 0 
L 459 0 
z
" transform="scale(0.015625)"/>
     <path id="Arial-BoldMT-7a" d="M 106 0 
L 106 684 
L 1350 2113 
Q 1656 2463 1803 2609 
Q 1650 2600 1400 2597 
L 228 2591 
L 228 3319 
L 2972 3319 
L 2972 2697 
L 1703 1234 
L 1256 750 
Q 1622 772 1709 772 
L 3069 772 
L 3069 0 
L 106 0 
z
" transform="scale(0.015625)"/>
     <path id="Arial-BoldMT-61" d="M 1116 2306 
L 319 2450 
Q 453 2931 781 3162 
Q 1109 3394 1756 3394 
Q 2344 3394 2631 3255 
Q 2919 3116 3036 2902 
Q 3153 2688 3153 2116 
L 3144 1091 
Q 3144 653 3186 445 
Q 3228 238 3344 0 
L 2475 0 
Q 2441 88 2391 259 
Q 2369 338 2359 363 
Q 2134 144 1878 34 
Q 1622 -75 1331 -75 
Q 819 -75 523 203 
Q 228 481 228 906 
Q 228 1188 362 1408 
Q 497 1628 739 1745 
Q 981 1863 1438 1950 
Q 2053 2066 2291 2166 
L 2291 2253 
Q 2291 2506 2166 2614 
Q 2041 2722 1694 2722 
Q 1459 2722 1328 2630 
Q 1197 2538 1116 2306 
z
M 2291 1594 
Q 2122 1538 1756 1459 
Q 1391 1381 1278 1306 
Q 1106 1184 1106 997 
Q 1106 813 1243 678 
Q 1381 544 1594 544 
Q 1831 544 2047 700 
Q 2206 819 2256 991 
Q 2291 1103 2291 1419 
L 2291 1594 
z
" transform="scale(0.015625)"/>
     <path id="Arial-BoldMT-6f" d="M 256 1706 
Q 256 2144 472 2553 
Q 688 2963 1083 3178 
Q 1478 3394 1966 3394 
Q 2719 3394 3200 2905 
Q 3681 2416 3681 1669 
Q 3681 916 3195 420 
Q 2709 -75 1972 -75 
Q 1516 -75 1102 131 
Q 688 338 472 736 
Q 256 1134 256 1706 
z
M 1156 1659 
Q 1156 1166 1390 903 
Q 1625 641 1969 641 
Q 2313 641 2545 903 
Q 2778 1166 2778 1666 
Q 2778 2153 2545 2415 
Q 2313 2678 1969 2678 
Q 1625 2678 1390 2415 
Q 1156 2153 1156 1659 
z
" transform="scale(0.015625)"/>
     <path id="Arial-BoldMT-6e" d="M 3478 0 
L 2600 0 
L 2600 1694 
Q 2600 2231 2544 2389 
Q 2488 2547 2361 2634 
Q 2234 2722 2056 2722 
Q 1828 2722 1647 2597 
Q 1466 2472 1398 2265 
Q 1331 2059 1331 1503 
L 1331 0 
L 453 0 
L 453 3319 
L 1269 3319 
L 1269 2831 
Q 1703 3394 2363 3394 
Q 2653 3394 2893 3289 
Q 3134 3184 3257 3021 
Q 3381 2859 3429 2653 
Q 3478 2447 3478 2063 
L 3478 0 
z
" transform="scale(0.015625)"/>
     <path id="Arial-BoldMT-64" d="M 3503 0 
L 2688 0 
L 2688 488 
Q 2484 203 2207 64 
Q 1931 -75 1650 -75 
Q 1078 -75 670 386 
Q 263 847 263 1672 
Q 263 2516 659 2955 
Q 1056 3394 1663 3394 
Q 2219 3394 2625 2931 
L 2625 4581 
L 3503 4581 
L 3503 0 
z
M 1159 1731 
Q 1159 1200 1306 963 
Q 1519 619 1900 619 
Q 2203 619 2415 876 
Q 2628 1134 2628 1647 
Q 2628 2219 2422 2470 
Q 2216 2722 1894 2722 
Q 1581 2722 1370 2473 
Q 1159 2225 1159 1731 
z
" transform="scale(0.015625)"/>
     <path id="Arial-BoldMT-72" d="M 1300 0 
L 422 0 
L 422 3319 
L 1238 3319 
L 1238 2847 
Q 1447 3181 1614 3287 
Q 1781 3394 1994 3394 
Q 2294 3394 2572 3228 
L 2300 2463 
Q 2078 2606 1888 2606 
Q 1703 2606 1575 2504 
Q 1447 2403 1373 2137 
Q 1300 1872 1300 1025 
L 1300 0 
z
" transform="scale(0.015625)"/>
     <path id="Arial-BoldMT-67" d="M 378 -219 
L 1381 -341 
Q 1406 -516 1497 -581 
Q 1622 -675 1891 -675 
Q 2234 -675 2406 -572 
Q 2522 -503 2581 -350 
Q 2622 -241 2622 53 
L 2622 538 
Q 2228 0 1628 0 
Q 959 0 569 566 
Q 263 1013 263 1678 
Q 263 2513 664 2953 
Q 1066 3394 1663 3394 
Q 2278 3394 2678 2853 
L 2678 3319 
L 3500 3319 
L 3500 341 
Q 3500 -247 3403 -537 
Q 3306 -828 3131 -993 
Q 2956 -1159 2664 -1253 
Q 2372 -1347 1925 -1347 
Q 1081 -1347 728 -1058 
Q 375 -769 375 -325 
Q 375 -281 378 -219 
z
M 1163 1728 
Q 1163 1200 1367 954 
Q 1572 709 1872 709 
Q 2194 709 2416 961 
Q 2638 1213 2638 1706 
Q 2638 2222 2425 2472 
Q 2213 2722 1888 2722 
Q 1572 2722 1367 2476 
Q 1163 2231 1163 1728 
z
" transform="scale(0.015625)"/>
     <path id="Arial-BoldMT-68" d="M 1334 4581 
L 1334 2897 
Q 1759 3394 2350 3394 
Q 2653 3394 2897 3281 
Q 3141 3169 3264 2994 
Q 3388 2819 3433 2606 
Q 3478 2394 3478 1947 
L 3478 0 
L 2600 0 
L 2600 1753 
Q 2600 2275 2550 2415 
Q 2500 2556 2373 2639 
Q 2247 2722 2056 2722 
Q 1838 2722 1666 2615 
Q 1494 2509 1414 2295 
Q 1334 2081 1334 1663 
L 1334 0 
L 456 0 
L 456 4581 
L 1334 4581 
z
" transform="scale(0.015625)"/>
     <path id="Arial-BoldMT-65" d="M 2381 1056 
L 3256 909 
Q 3088 428 2723 176 
Q 2359 -75 1813 -75 
Q 947 -75 531 491 
Q 203 944 203 1634 
Q 203 2459 634 2926 
Q 1066 3394 1725 3394 
Q 2466 3394 2894 2905 
Q 3322 2416 3303 1406 
L 1103 1406 
Q 1113 1016 1316 798 
Q 1519 581 1822 581 
Q 2028 581 2168 693 
Q 2309 806 2381 1056 
z
M 2431 1944 
Q 2422 2325 2234 2523 
Q 2047 2722 1778 2722 
Q 1491 2722 1303 2513 
Q 1116 2303 1119 1944 
L 2431 1944 
z
" transform="scale(0.015625)"/>
     <path id="Arial-BoldMT-73" d="M 150 947 
L 1031 1081 
Q 1088 825 1259 692 
Q 1431 559 1741 559 
Q 2081 559 2253 684 
Q 2369 772 2369 919 
Q 2369 1019 2306 1084 
Q 2241 1147 2013 1200 
Q 950 1434 666 1628 
Q 272 1897 272 2375 
Q 272 2806 612 3100 
Q 953 3394 1669 3394 
Q 2350 3394 2681 3172 
Q 3013 2950 3138 2516 
L 2309 2363 
Q 2256 2556 2107 2659 
Q 1959 2763 1684 2763 
Q 1338 2763 1188 2666 
Q 1088 2597 1088 2488 
Q 1088 2394 1175 2328 
Q 1294 2241 1995 2081 
Q 2697 1922 2975 1691 
Q 3250 1456 3250 1038 
Q 3250 581 2869 253 
Q 2488 -75 1741 -75 
Q 1063 -75 667 200 
Q 272 475 150 947 
z
" transform="scale(0.015625)"/>
     <path id="Arial-BoldMT-77" d="M 1078 0 
L 28 3319 
L 881 3319 
L 1503 1144 
L 2075 3319 
L 2922 3319 
L 3475 1144 
L 4109 3319 
L 4975 3319 
L 3909 0 
L 3066 0 
L 2494 2134 
L 1931 0 
L 1078 0 
z
" transform="scale(0.015625)"/>
     <path id="Arial-BoldMT-70" d="M 434 3319 
L 1253 3319 
L 1253 2831 
Q 1413 3081 1684 3237 
Q 1956 3394 2288 3394 
Q 2866 3394 3269 2941 
Q 3672 2488 3672 1678 
Q 3672 847 3265 386 
Q 2859 -75 2281 -75 
Q 2006 -75 1782 34 
Q 1559 144 1313 409 
L 1313 -1263 
L 434 -1263 
L 434 3319 
z
M 1303 1716 
Q 1303 1156 1525 889 
Q 1747 622 2066 622 
Q 2372 622 2575 867 
Q 2778 1113 2778 1672 
Q 2778 2194 2568 2447 
Q 2359 2700 2050 2700 
Q 1728 2700 1515 2451 
Q 1303 2203 1303 1716 
z
" transform="scale(0.015625)"/>
    </defs>
    <use xlink:href="#Arial-BoldMT-47"/>
    <use xlink:href="#Arial-BoldMT-50" x="77.783203"/>
    <use xlink:href="#Arial-BoldMT-55" x="144.482422"/>
    <use xlink:href="#Arial-BoldMT-20" x="216.699219"/>
    <use xlink:href="#Arial-BoldMT-75" x="244.482422"/>
    <use xlink:href="#Arial-BoldMT-74" x="305.566406"/>
    <use xlink:href="#Arial-BoldMT-69" x="338.867188"/>
    <use xlink:href="#Arial-BoldMT-6c" x="366.650391"/>
    <use xlink:href="#Arial-BoldMT-69" x="394.433594"/>
    <use xlink:href="#Arial-BoldMT-7a" x="422.216797"/>
    <use xlink:href="#Arial-BoldMT-61" x="472.216797"/>
    <use xlink:href="#Arial-BoldMT-74" x="527.832031"/>
    <use xlink:href="#Arial-BoldMT-69" x="561.132812"/>
    <use xlink:href="#Arial-BoldMT-6f" x="588.916016"/>
    <use xlink:href="#Arial-BoldMT-6e" x="650"/>
    <use xlink:href="#Arial-BoldMT-20" x="711.083984"/>
    <use xlink:href="#Arial-BoldMT-64" x="738.867188"/>
    <use xlink:href="#Arial-BoldMT-75" x="799.951172"/>
    <use xlink:href="#Arial-BoldMT-72" x="861.035156"/>
    <use xlink:href="#Arial-BoldMT-69" x="899.951172"/>
    <use xlink:href="#Arial-BoldMT-6e" x="927.734375"/>
    <use xlink:href="#Arial-BoldMT-67" x="988.818359"/>
    <use xlink:href="#Arial-BoldMT-20" x="1049.902344"/>
    <use xlink:href="#Arial-BoldMT-74" x="1077.685547"/>
    <use xlink:href="#Arial-BoldMT-68" x="1110.986328"/>
    <use xlink:href="#Arial-BoldMT-65" x="1172.070312"/>
    <use xlink:href="#Arial-BoldMT-20" x="1227.685547"/>
    <use xlink:href="#Arial-BoldMT-73" x="1255.46875"/>
    <use xlink:href="#Arial-BoldMT-77" x="1311.083984"/>
    <use xlink:href="#Arial-BoldMT-65" x="1388.867188"/>
    <use xlink:href="#Arial-BoldMT-65" x="1444.482422"/>
    <use xlink:href="#Arial-BoldMT-70" x="1500.097656"/>
   </g>
  </g>
 </g>
 <defs>
  <clipPath id="p825216654a">
   <rect x="95.04" y="90.72" width="682.56" height="342.72"/>
  </clipPath>
 </defs>
</svg>
