<?xml version="1.0" encoding="utf-8" standalone="no"?>
<!DOCTYPE svg PUBLIC "-//W3C//DTD SVG 1.1//EN"
  "http://www.w3.org/Graphics/SVG/1.1/DTD/svg11.dtd">
<svg xmlns:xlink="http://www.w3.org/1999/xlink" width="777.6pt" height="489.6pt" viewBox="0 0 777.6 489.6" xmlns="http://www.w3.org/2000/svg" version="1.1">
 <metadata>
  <rdf:RDF xmlns:dc="http://purl.org/dc/elements/1.1/" xmlns:cc="http://creativecommons.org/ns#" xmlns:rdf="http://www.w3.org/1999/02/22-rdf-syntax-ns#">
   <cc:Work>
    <dc:type rdf:resource="http://purl.org/dc/dcmitype/StillImage"/>
    <dc:date>2026-03-26T15:48:39.895831</dc:date>
    <dc:format>image/svg+xml</dc:format>
    <dc:creator>
     <cc:Agent>
      <dc:title>Matplotlib v3.9.4, https://matplotlib.org/</dc:title>
     </cc:Agent>
    </dc:creator>
   </cc:Work>
  </rdf:RDF>
 </metadata>
 <defs>
  <style type="text/css">*{stroke-linejoin: round; stroke-linecap: butt}</style>
 </defs>
 <g id="figure_1">
  <g id="patch_1">
   <path d="M 0 489.6 
L 777.6 489.6 
L 777.6 0 
L 0 0 
L 0 489.6 
z
" style="fill: none; opacity: 0"/>
  </g>
  <g id="axes_1">
   <g id="patch_2">
    <path d="M 93.312 421.056 
L 746.496 421.056 
L 746.496 107.712 
L 93.312 107.712 
L 93.312 421.056 
z
" style="fill: none"/>
   </g>
   <g id="matplotlib.axis_1">
    <g id="xtick_1">
     <g id="line2d_1"/>
     <g id="text_1">
      <!-- 1 -->
      <g style="fill: #5f5f5f" transform="translate(91.512028 434.929594) scale(0.11 -0.11)">
       <defs>
        <path id="ArialMT-31" d="M 2384 0 
L 1822 0 
L 1822 3584 
Q 1619 3391 1289 3197 
Q 959 3003 697 2906 
L 697 3450 
Q 1169 3672 1522 3987 
Q 1875 4303 2022 4600 
L 2384 4600 
L 2384 0 
z
" transform="scale(0.015625)"/>
       </defs>
       <use xlink:href="#ArialMT-31"/>
      </g>
     </g>
    </g>
    <g id="xtick_2">
     <g id="line2d_2"/>
     <g id="text_2">
      <!-- 4 -->
      <g style="fill: #5f5f5f" transform="translate(99.063288 434.929594) scale(0.11 -0.11)">
       <defs>
        <path id="ArialMT-34" d="M 2069 0 
L 2069 1097 
L 81 1097 
L 81 1613 
L 2172 4581 
L 2631 4581 
L 2631 1613 
L 3250 1613 
L 3250 1097 
L 2631 1097 
L 2631 0 
L 2069 0 
z
M 2069 1613 
L 2069 3678 
L 634 1613 
L 2069 1613 
z
" transform="scale(0.015625)"/>
       </defs>
       <use xlink:href="#ArialMT-34"/>
      </g>
     </g>
    </g>
    <g id="xtick_3">
     <g id="line2d_3"/>
     <g id="text_3">
      <!-- 8 -->
      <g style="fill: #5f5f5f" transform="translate(109.131635 434.929594) scale(0.11 -0.11)">
       <defs>
        <path id="ArialMT-38" d="M 1131 2484 
Q 781 2613 612 2850 
Q 444 3088 444 3419 
Q 444 3919 803 4259 
Q 1163 4600 1759 4600 
Q 2359 4600 2725 4251 
Q 3091 3903 3091 3403 
Q 3091 3084 2923 2848 
Q 2756 2613 2416 2484 
Q 2838 2347 3058 2040 
Q 3278 1734 3278 1309 
Q 3278 722 2862 322 
Q 2447 -78 1769 -78 
Q 1091 -78 675 323 
Q 259 725 259 1325 
Q 259 1772 486 2073 
Q 713 2375 1131 2484 
z
M 1019 3438 
Q 1019 3113 1228 2906 
Q 1438 2700 1772 2700 
Q 2097 2700 2305 2904 
Q 2513 3109 2513 3406 
Q 2513 3716 2298 3927 
Q 2084 4138 1766 4138 
Q 1444 4138 1231 3931 
Q 1019 3725 1019 3438 
z
M 838 1322 
Q 838 1081 952 856 
Q 1066 631 1291 507 
Q 1516 384 1775 384 
Q 2178 384 2440 643 
Q 2703 903 2703 1303 
Q 2703 1709 2433 1975 
Q 2163 2241 1756 2241 
Q 1359 2241 1098 1978 
Q 838 1716 838 1322 
z
" transform="scale(0.015625)"/>
       </defs>
       <use xlink:href="#ArialMT-38"/>
      </g>
     </g>
    </g>
    <g id="xtick_4">
     <g id="line2d_4"/>
     <g id="text_4">
      <!-- 16 -->
      <g style="fill: #5f5f5f" transform="translate(126.209813 434.929594) scale(0.11 -0.11)">
       <defs>
        <path id="ArialMT-36" d="M 3184 3459 
L 2625 3416 
Q 2550 3747 2413 3897 
Q 2184 4138 1850 4138 
Q 1581 4138 1378 3988 
Q 1113 3794 959 3422 
Q 806 3050 800 2363 
Q 1003 2672 1297 2822 
Q 1591 2972 1913 2972 
Q 2475 2972 2870 2558 
Q 3266 2144 3266 1488 
Q 3266 1056 3080 686 
Q 2894 316 2569 119 
Q 2244 -78 1831 -78 
Q 1128 -78 684 439 
Q 241 956 241 2144 
Q 241 3472 731 4075 
Q 1159 4600 1884 4600 
Q 2425 4600 2770 4297 
Q 3116 3994 3184 3459 
z
M 888 1484 
Q 888 1194 1011 928 
Q 1134 663 1356 523 
Q 1578 384 1822 384 
Q 2178 384 2434 671 
Q 2691 959 2691 1453 
Q 2691 1928 2437 2201 
Q 2184 2475 1800 2475 
Q 1419 2475 1153 2201 
Q 888 1928 888 1484 
z
" transform="scale(0.015625)"/>
       </defs>
       <use xlink:href="#ArialMT-31"/>
       <use xlink:href="#ArialMT-36" x="55.615234"/>
      </g>
     </g>
    </g>
    <g id="xtick_5">
     <g id="line2d_5"/>
     <g id="text_5">
      <!-- 32 -->
      <g style="fill: #5f5f5f" transform="translate(166.4832 434.929594) scale(0.11 -0.11)">
       <defs>
        <path id="ArialMT-33" d="M 269 1209 
L 831 1284 
Q 928 806 1161 595 
Q 1394 384 1728 384 
Q 2125 384 2398 659 
Q 2672 934 2672 1341 
Q 2672 1728 2419 1979 
Q 2166 2231 1775 2231 
Q 1616 2231 1378 2169 
L 1441 2663 
Q 1497 2656 1531 2656 
Q 1891 2656 2178 2843 
Q 2466 3031 2466 3422 
Q 2466 3731 2256 3934 
Q 2047 4138 1716 4138 
Q 1388 4138 1169 3931 
Q 950 3725 888 3313 
L 325 3413 
Q 428 3978 793 4289 
Q 1159 4600 1703 4600 
Q 2078 4600 2393 4439 
Q 2709 4278 2876 4000 
Q 3044 3722 3044 3409 
Q 3044 3113 2884 2869 
Q 2725 2625 2413 2481 
Q 2819 2388 3044 2092 
Q 3269 1797 3269 1353 
Q 3269 753 2831 336 
Q 2394 -81 1725 -81 
Q 1122 -81 723 278 
Q 325 638 269 1209 
z
" transform="scale(0.015625)"/>
        <path id="ArialMT-32" d="M 3222 541 
L 3222 0 
L 194 0 
Q 188 203 259 391 
Q 375 700 629 1000 
Q 884 1300 1366 1694 
Q 2113 2306 2375 2664 
Q 2638 3022 2638 3341 
Q 2638 3675 2398 3904 
Q 2159 4134 1775 4134 
Q 1369 4134 1125 3890 
Q 881 3647 878 3216 
L 300 3275 
Q 359 3922 746 4261 
Q 1134 4600 1788 4600 
Q 2447 4600 2831 4234 
Q 3216 3869 3216 3328 
Q 3216 3053 3103 2787 
Q 2991 2522 2730 2228 
Q 2469 1934 1863 1422 
Q 1356 997 1212 845 
Q 1069 694 975 541 
L 3222 541 
z
" transform="scale(0.015625)"/>
       </defs>
       <use xlink:href="#ArialMT-33"/>
       <use xlink:href="#ArialMT-32" x="55.615234"/>
      </g>
     </g>
    </g>
    <g id="xtick_6">
     <g id="line2d_6"/>
     <g id="text_6">
      <!-- 64 -->
      <g style="fill: #5f5f5f" transform="translate(247.029975 434.929594) scale(0.11 -0.11)">
       <use xlink:href="#ArialMT-36"/>
       <use xlink:href="#ArialMT-34" x="55.615234"/>
      </g>
     </g>
    </g>
    <g id="xtick_7">
     <g id="line2d_7"/>
     <g id="text_7">
      <!-- 128 -->
      <g style="fill: #5f5f5f" transform="translate(405.065008 434.929594) scale(0.11 -0.11)">
       <use xlink:href="#ArialMT-31"/>
       <use xlink:href="#ArialMT-32" x="55.615234"/>
       <use xlink:href="#ArialMT-38" x="111.230469"/>
      </g>
     </g>
    </g>
    <g id="xtick_8">
     <g id="line2d_8"/>
     <g id="text_8">
      <!-- 256 -->
      <g style="fill: #5f5f5f" transform="translate(727.252106 434.929594) scale(0.11 -0.11)">
       <defs>
        <path id="ArialMT-35" d="M 266 1200 
L 856 1250 
Q 922 819 1161 601 
Q 1400 384 1738 384 
Q 2144 384 2425 690 
Q 2706 997 2706 1503 
Q 2706 1984 2436 2262 
Q 2166 2541 1728 2541 
Q 1456 2541 1237 2417 
Q 1019 2294 894 2097 
L 366 2166 
L 809 4519 
L 3088 4519 
L 3088 3981 
L 1259 3981 
L 1013 2750 
Q 1425 3038 1878 3038 
Q 2478 3038 2890 2622 
Q 3303 2206 3303 1553 
Q 3303 931 2941 478 
Q 2500 -78 1738 -78 
Q 1113 -78 717 272 
Q 322 622 266 1200 
z
" transform="scale(0.015625)"/>
       </defs>
       <use xlink:href="#ArialMT-32"/>
       <use xlink:href="#ArialMT-35" x="55.615234"/>
       <use xlink:href="#ArialMT-36" x="111.230469"/>
      </g>
     </g>
    </g>
    <g id="text_9">
     <!-- Concurrency -->
     <g style="fill: #5f5f5f" transform="translate(385.892438 459.851469) scale(0.12 -0.12)">
      <defs>
       <path id="ArialMT-43" d="M 3763 1606 
L 4369 1453 
Q 4178 706 3683 314 
Q 3188 -78 2472 -78 
Q 1731 -78 1267 223 
Q 803 525 561 1097 
Q 319 1669 319 2325 
Q 319 3041 592 3573 
Q 866 4106 1370 4382 
Q 1875 4659 2481 4659 
Q 3169 4659 3637 4309 
Q 4106 3959 4291 3325 
L 3694 3184 
Q 3534 3684 3231 3912 
Q 2928 4141 2469 4141 
Q 1941 4141 1586 3887 
Q 1231 3634 1087 3207 
Q 944 2781 944 2328 
Q 944 1744 1114 1308 
Q 1284 872 1643 656 
Q 2003 441 2422 441 
Q 2931 441 3284 734 
Q 3638 1028 3763 1606 
z
" transform="scale(0.015625)"/>
       <path id="ArialMT-6f" d="M 213 1659 
Q 213 2581 725 3025 
Q 1153 3394 1769 3394 
Q 2453 3394 2887 2945 
Q 3322 2497 3322 1706 
Q 3322 1066 3130 698 
Q 2938 331 2570 128 
Q 2203 -75 1769 -75 
Q 1072 -75 642 372 
Q 213 819 213 1659 
z
M 791 1659 
Q 791 1022 1069 705 
Q 1347 388 1769 388 
Q 2188 388 2466 706 
Q 2744 1025 2744 1678 
Q 2744 2294 2464 2611 
Q 2184 2928 1769 2928 
Q 1347 2928 1069 2612 
Q 791 2297 791 1659 
z
" transform="scale(0.015625)"/>
       <path id="ArialMT-6e" d="M 422 0 
L 422 3319 
L 928 3319 
L 928 2847 
Q 1294 3394 1984 3394 
Q 2284 3394 2536 3286 
Q 2788 3178 2913 3003 
Q 3038 2828 3088 2588 
Q 3119 2431 3119 2041 
L 3119 0 
L 2556 0 
L 2556 2019 
Q 2556 2363 2490 2533 
Q 2425 2703 2258 2804 
Q 2091 2906 1866 2906 
Q 1506 2906 1245 2678 
Q 984 2450 984 1813 
L 984 0 
L 422 0 
z
" transform="scale(0.015625)"/>
       <path id="ArialMT-63" d="M 2588 1216 
L 3141 1144 
Q 3050 572 2676 248 
Q 2303 -75 1759 -75 
Q 1078 -75 664 370 
Q 250 816 250 1647 
Q 250 2184 428 2587 
Q 606 2991 970 3192 
Q 1334 3394 1763 3394 
Q 2303 3394 2647 3120 
Q 2991 2847 3088 2344 
L 2541 2259 
Q 2463 2594 2264 2762 
Q 2066 2931 1784 2931 
Q 1359 2931 1093 2626 
Q 828 2322 828 1663 
Q 828 994 1084 691 
Q 1341 388 1753 388 
Q 2084 388 2306 591 
Q 2528 794 2588 1216 
z
" transform="scale(0.015625)"/>
       <path id="ArialMT-75" d="M 2597 0 
L 2597 488 
Q 2209 -75 1544 -75 
Q 1250 -75 995 37 
Q 741 150 617 320 
Q 494 491 444 738 
Q 409 903 409 1263 
L 409 3319 
L 972 3319 
L 972 1478 
Q 972 1038 1006 884 
Q 1059 663 1231 536 
Q 1403 409 1656 409 
Q 1909 409 2131 539 
Q 2353 669 2445 892 
Q 2538 1116 2538 1541 
L 2538 3319 
L 3100 3319 
L 3100 0 
L 2597 0 
z
" transform="scale(0.015625)"/>
       <path id="ArialMT-72" d="M 416 0 
L 416 3319 
L 922 3319 
L 922 2816 
Q 1116 3169 1280 3281 
Q 1444 3394 1641 3394 
Q 1925 3394 2219 3213 
L 2025 2691 
Q 1819 2813 1613 2813 
Q 1428 2813 1281 2702 
Q 1134 2591 1072 2394 
Q 978 2094 978 1738 
L 978 0 
L 416 0 
z
" transform="scale(0.015625)"/>
       <path id="ArialMT-65" d="M 2694 1069 
L 3275 997 
Q 3138 488 2766 206 
Q 2394 -75 1816 -75 
Q 1088 -75 661 373 
Q 234 822 234 1631 
Q 234 2469 665 2931 
Q 1097 3394 1784 3394 
Q 2450 3394 2872 2941 
Q 3294 2488 3294 1666 
Q 3294 1616 3291 1516 
L 816 1516 
Q 847 969 1125 678 
Q 1403 388 1819 388 
Q 2128 388 2347 550 
Q 2566 713 2694 1069 
z
M 847 1978 
L 2700 1978 
Q 2663 2397 2488 2606 
Q 2219 2931 1791 2931 
Q 1403 2931 1139 2672 
Q 875 2413 847 1978 
z
" transform="scale(0.015625)"/>
       <path id="ArialMT-79" d="M 397 -1278 
L 334 -750 
Q 519 -800 656 -800 
Q 844 -800 956 -737 
Q 1069 -675 1141 -563 
Q 1194 -478 1313 -144 
Q 1328 -97 1363 -6 
L 103 3319 
L 709 3319 
L 1400 1397 
Q 1534 1031 1641 628 
Q 1738 1016 1872 1384 
L 2581 3319 
L 3144 3319 
L 1881 -56 
Q 1678 -603 1566 -809 
Q 1416 -1088 1222 -1217 
Q 1028 -1347 759 -1347 
Q 597 -1347 397 -1278 
z
" transform="scale(0.015625)"/>
      </defs>
      <use xlink:href="#ArialMT-43"/>
      <use xlink:href="#ArialMT-6f" x="72.216797"/>
      <use xlink:href="#ArialMT-6e" x="127.832031"/>
      <use xlink:href="#ArialMT-63" x="183.447266"/>
      <use xlink:href="#ArialMT-75" x="233.447266"/>
      <use xlink:href="#ArialMT-72" x="289.0625"/>
      <use xlink:href="#ArialMT-72" x="322.363281"/>
      <use xlink:href="#ArialMT-65" x="355.664062"/>
      <use xlink:href="#ArialMT-6e" x="411.279297"/>
      <use xlink:href="#ArialMT-63" x="466.894531"/>
      <use xlink:href="#ArialMT-79" x="516.894531"/>
     </g>
    </g>
   </g>
   <g id="matplotlib.axis_2">
    <g id="ytick_1">
     <g id="line2d_9">
      <path d="M 93.312 409.107249 
L 746.496 409.107249 
" clip-path="url(#pd14cad0352)" style="fill: none; stroke: #e8e8e3; stroke-width: 0.9; stroke-linecap: square"/>
     </g>
     <g id="line2d_10"/>
     <g id="text_10">
      <!-- 0 -->
      <g style="fill: #5f5f5f" transform="translate(81.194969 413.044045) scale(0.11 -0.11)">
       <defs>
        <path id="ArialMT-30" d="M 266 2259 
Q 266 3072 433 3567 
Q 600 4063 929 4331 
Q 1259 4600 1759 4600 
Q 2128 4600 2406 4451 
Q 2684 4303 2865 4023 
Q 3047 3744 3150 3342 
Q 3253 2941 3253 2259 
Q 3253 1453 3087 958 
Q 2922 463 2592 192 
Q 2263 -78 1759 -78 
Q 1097 -78 719 397 
Q 266 969 266 2259 
z
M 844 2259 
Q 844 1131 1108 757 
Q 1372 384 1759 384 
Q 2147 384 2411 759 
Q 2675 1134 2675 2259 
Q 2675 3391 2411 3762 
Q 2147 4134 1753 4134 
Q 1366 4134 1134 3806 
Q 844 3388 844 2259 
z
" transform="scale(0.015625)"/>
       </defs>
       <use xlink:href="#ArialMT-30"/>
      </g>
     </g>
    </g>
    <g id="ytick_2">
     <g id="line2d_11">
      <path d="M 93.312 360.878941 
L 746.496 360.878941 
" clip-path="url(#pd14cad0352)" style="fill: none; stroke: #e8e8e3; stroke-width: 0.9; stroke-linecap: square"/>
     </g>
     <g id="line2d_12"/>
     <g id="text_11">
      <!-- 200 -->
      <g style="fill: #5f5f5f" transform="translate(68.960906 364.815737) scale(0.11 -0.11)">
       <use xlink:href="#ArialMT-32"/>
       <use xlink:href="#ArialMT-30" x="55.615234"/>
       <use xlink:href="#ArialMT-30" x="111.230469"/>
      </g>
     </g>
    </g>
    <g id="ytick_3">
     <g id="line2d_13">
      <path d="M 93.312 312.650633 
L 746.496 312.650633 
" clip-path="url(#pd14cad0352)" style="fill: none; stroke: #e8e8e3; stroke-width: 0.9; stroke-linecap: square"/>
     </g>
     <g id="line2d_14"/>
     <g id="text_12">
      <!-- 400 -->
      <g style="fill: #5f5f5f" transform="translate(68.960906 316.587429) scale(0.11 -0.11)">
       <use xlink:href="#ArialMT-34"/>
       <use xlink:href="#ArialMT-30" x="55.615234"/>
       <use xlink:href="#ArialMT-30" x="111.230469"/>
      </g>
     </g>
    </g>
    <g id="ytick_4">
     <g id="line2d_15">
      <path d="M 93.312 264.422325 
L 746.496 264.422325 
" clip-path="url(#pd14cad0352)" style="fill: none; stroke: #e8e8e3; stroke-width: 0.9; stroke-linecap: square"/>
     </g>
     <g id="line2d_16"/>
     <g id="text_13">
      <!-- 600 -->
      <g style="fill: #5f5f5f" transform="translate(68.960906 268.359121) scale(0.11 -0.11)">
       <use xlink:href="#ArialMT-36"/>
       <use xlink:href="#ArialMT-30" x="55.615234"/>
       <use xlink:href="#ArialMT-30" x="111.230469"/>
      </g>
     </g>
    </g>
    <g id="ytick_5">
     <g id="line2d_17">
      <path d="M 93.312 216.194017 
L 746.496 216.194017 
" clip-path="url(#pd14cad0352)" style="fill: none; stroke: #e8e8e3; stroke-width: 0.9; stroke-linecap: square"/>
     </g>
     <g id="line2d_18"/>
     <g id="text_14">
      <!-- 800 -->
      <g style="fill: #5f5f5f" transform="translate(68.960906 220.130813) scale(0.11 -0.11)">
       <use xlink:href="#ArialMT-38"/>
       <use xlink:href="#ArialMT-30" x="55.615234"/>
       <use xlink:href="#ArialMT-30" x="111.230469"/>
      </g>
     </g>
    </g>
    <g id="ytick_6">
     <g id="line2d_19">
      <path d="M 93.312 167.965709 
L 746.496 167.965709 
" clip-path="url(#pd14cad0352)" style="fill: none; stroke: #e8e8e3; stroke-width: 0.9; stroke-linecap: square"/>
     </g>
     <g id="line2d_20"/>
     <g id="text_15">
      <!-- 1000 -->
      <g style="fill: #5f5f5f" transform="translate(62.843875 171.902505) scale(0.11 -0.11)">
       <use xlink:href="#ArialMT-31"/>
       <use xlink:href="#ArialMT-30" x="55.615234"/>
       <use xlink:href="#ArialMT-30" x="111.230469"/>
       <use xlink:href="#ArialMT-30" x="166.845703"/>
      </g>
     </g>
    </g>
    <g id="ytick_7">
     <g id="line2d_21">
      <path d="M 93.312 119.737401 
L 746.496 119.737401 
" clip-path="url(#pd14cad0352)" style="fill: none; stroke: #e8e8e3; stroke-width: 0.9; stroke-linecap: square"/>
     </g>
     <g id="line2d_22"/>
     <g id="text_16">
      <!-- 1200 -->
      <g style="fill: #5f5f5f" transform="translate(62.843875 123.674197) scale(0.11 -0.11)">
       <use xlink:href="#ArialMT-31"/>
       <use xlink:href="#ArialMT-32" x="55.615234"/>
       <use xlink:href="#ArialMT-30" x="111.230469"/>
       <use xlink:href="#ArialMT-30" x="166.845703"/>
      </g>
     </g>
    </g>
    <g id="text_17">
     <!-- Throughput (tokens/s) -->
     <g style="fill: #5f5f5f" transform="translate(48.31825 323.07525) rotate(-90) scale(0.12 -0.12)">
      <defs>
       <path id="ArialMT-54" d="M 1659 0 
L 1659 4041 
L 150 4041 
L 150 4581 
L 3781 4581 
L 3781 4041 
L 2266 4041 
L 2266 0 
L 1659 0 
z
" transform="scale(0.015625)"/>
       <path id="ArialMT-68" d="M 422 0 
L 422 4581 
L 984 4581 
L 984 2938 
Q 1378 3394 1978 3394 
Q 2347 3394 2619 3248 
Q 2891 3103 3008 2847 
Q 3125 2591 3125 2103 
L 3125 0 
L 2563 0 
L 2563 2103 
Q 2563 2525 2380 2717 
Q 2197 2909 1863 2909 
Q 1613 2909 1392 2779 
Q 1172 2650 1078 2428 
Q 984 2206 984 1816 
L 984 0 
L 422 0 
z
" transform="scale(0.015625)"/>
       <path id="ArialMT-67" d="M 319 -275 
L 866 -356 
Q 900 -609 1056 -725 
Q 1266 -881 1628 -881 
Q 2019 -881 2231 -725 
Q 2444 -569 2519 -288 
Q 2563 -116 2559 434 
Q 2191 0 1641 0 
Q 956 0 581 494 
Q 206 988 206 1678 
Q 206 2153 378 2554 
Q 550 2956 876 3175 
Q 1203 3394 1644 3394 
Q 2231 3394 2613 2919 
L 2613 3319 
L 3131 3319 
L 3131 450 
Q 3131 -325 2973 -648 
Q 2816 -972 2473 -1159 
Q 2131 -1347 1631 -1347 
Q 1038 -1347 672 -1080 
Q 306 -813 319 -275 
z
M 784 1719 
Q 784 1066 1043 766 
Q 1303 466 1694 466 
Q 2081 466 2343 764 
Q 2606 1063 2606 1700 
Q 2606 2309 2336 2618 
Q 2066 2928 1684 2928 
Q 1309 2928 1046 2623 
Q 784 2319 784 1719 
z
" transform="scale(0.015625)"/>
       <path id="ArialMT-70" d="M 422 -1272 
L 422 3319 
L 934 3319 
L 934 2888 
Q 1116 3141 1344 3267 
Q 1572 3394 1897 3394 
Q 2322 3394 2647 3175 
Q 2972 2956 3137 2557 
Q 3303 2159 3303 1684 
Q 3303 1175 3120 767 
Q 2938 359 2589 142 
Q 2241 -75 1856 -75 
Q 1575 -75 1351 44 
Q 1128 163 984 344 
L 984 -1272 
L 422 -1272 
z
M 931 1641 
Q 931 1000 1190 694 
Q 1450 388 1819 388 
Q 2194 388 2461 705 
Q 2728 1022 2728 1688 
Q 2728 2322 2467 2637 
Q 2206 2953 1844 2953 
Q 1484 2953 1207 2617 
Q 931 2281 931 1641 
z
" transform="scale(0.015625)"/>
       <path id="ArialMT-74" d="M 1650 503 
L 1731 6 
Q 1494 -44 1306 -44 
Q 1000 -44 831 53 
Q 663 150 594 308 
Q 525 466 525 972 
L 525 2881 
L 113 2881 
L 113 3319 
L 525 3319 
L 525 4141 
L 1084 4478 
L 1084 3319 
L 1650 3319 
L 1650 2881 
L 1084 2881 
L 1084 941 
Q 1084 700 1114 631 
Q 1144 563 1211 522 
Q 1278 481 1403 481 
Q 1497 481 1650 503 
z
" transform="scale(0.015625)"/>
       <path id="ArialMT-20" transform="scale(0.015625)"/>
       <path id="ArialMT-28" d="M 1497 -1347 
Q 1031 -759 709 28 
Q 388 816 388 1659 
Q 388 2403 628 3084 
Q 909 3875 1497 4659 
L 1900 4659 
Q 1522 4009 1400 3731 
Q 1209 3300 1100 2831 
Q 966 2247 966 1656 
Q 966 153 1900 -1347 
L 1497 -1347 
z
" transform="scale(0.015625)"/>
       <path id="ArialMT-6b" d="M 425 0 
L 425 4581 
L 988 4581 
L 988 1969 
L 2319 3319 
L 3047 3319 
L 1778 2088 
L 3175 0 
L 2481 0 
L 1384 1697 
L 988 1316 
L 988 0 
L 425 0 
z
" transform="scale(0.015625)"/>
       <path id="ArialMT-73" d="M 197 991 
L 753 1078 
Q 800 744 1014 566 
Q 1228 388 1613 388 
Q 2000 388 2187 545 
Q 2375 703 2375 916 
Q 2375 1106 2209 1216 
Q 2094 1291 1634 1406 
Q 1016 1563 777 1677 
Q 538 1791 414 1992 
Q 291 2194 291 2438 
Q 291 2659 392 2848 
Q 494 3038 669 3163 
Q 800 3259 1026 3326 
Q 1253 3394 1513 3394 
Q 1903 3394 2198 3281 
Q 2494 3169 2634 2976 
Q 2775 2784 2828 2463 
L 2278 2388 
Q 2241 2644 2061 2787 
Q 1881 2931 1553 2931 
Q 1166 2931 1000 2803 
Q 834 2675 834 2503 
Q 834 2394 903 2306 
Q 972 2216 1119 2156 
Q 1203 2125 1616 2013 
Q 2213 1853 2448 1751 
Q 2684 1650 2818 1456 
Q 2953 1263 2953 975 
Q 2953 694 2789 445 
Q 2625 197 2315 61 
Q 2006 -75 1616 -75 
Q 969 -75 630 194 
Q 291 463 197 991 
z
" transform="scale(0.015625)"/>
       <path id="ArialMT-2f" d="M 0 -78 
L 1328 4659 
L 1778 4659 
L 453 -78 
L 0 -78 
z
" transform="scale(0.015625)"/>
       <path id="ArialMT-29" d="M 791 -1347 
L 388 -1347 
Q 1322 153 1322 1656 
Q 1322 2244 1188 2822 
Q 1081 3291 891 3722 
Q 769 4003 388 4659 
L 791 4659 
Q 1378 3875 1659 3084 
Q 1900 2403 1900 1659 
Q 1900 816 1576 28 
Q 1253 -759 791 -1347 
z
" transform="scale(0.015625)"/>
      </defs>
      <use xlink:href="#ArialMT-54"/>
      <use xlink:href="#ArialMT-68" x="61.083984"/>
      <use xlink:href="#ArialMT-72" x="116.699219"/>
      <use xlink:href="#ArialMT-6f" x="150"/>
      <use xlink:href="#ArialMT-75" x="205.615234"/>
      <use xlink:href="#ArialMT-67" x="261.230469"/>
      <use xlink:href="#ArialMT-68" x="316.845703"/>
      <use xlink:href="#ArialMT-70" x="372.460938"/>
      <use xlink:href="#ArialMT-75" x="428.076172"/>
      <use xlink:href="#ArialMT-74" x="483.691406"/>
      <use xlink:href="#ArialMT-20" x="511.474609"/>
      <use xlink:href="#ArialMT-28" x="539.257812"/>
      <use xlink:href="#ArialMT-74" x="572.558594"/>
      <use xlink:href="#ArialMT-6f" x="600.341797"/>
      <use xlink:href="#ArialMT-6b" x="655.957031"/>
      <use xlink:href="#ArialMT-65" x="705.957031"/>
      <use xlink:href="#ArialMT-6e" x="761.572266"/>
      <use xlink:href="#ArialMT-73" x="817.1875"/>
      <use xlink:href="#ArialMT-2f" x="867.1875"/>
      <use xlink:href="#ArialMT-73" x="894.970703"/>
      <use xlink:href="#ArialMT-29" x="944.970703"/>
     </g>
    </g>
   </g>
   <g id="PolyCollection_1">
    <defs>
     <path id="mb46643dcda" d="M 94.570543 -86.463933 
L 94.570543 -86.463933 
L 102.121803 -103.17553 
L 112.19015 -125.042156 
L 132.326844 -168.138771 
L 172.600231 -239.614269 
L 253.147006 -367.645091 
L 253.147006 -86.463933 
L 253.147006 -86.463933 
L 172.600231 -86.463933 
L 132.326844 -86.463933 
L 112.19015 -86.463933 
L 102.121803 -86.463933 
L 94.570543 -86.463933 
z
" style="stroke: #5c6470; stroke-opacity: 0.05"/>
    </defs>
    <g clip-path="url(#pd14cad0352)">
     <use xlink:href="#mb46643dcda" x="0" y="489.6" style="fill: #5c6470; fill-opacity: 0.05; stroke: #5c6470; stroke-opacity: 0.05"/>
    </g>
   </g>
   <g id="PolyCollection_2">
    <defs>
     <path id="mbd58984e81" d="M 94.570543 -82.786909 
L 94.570543 -82.786909 
L 102.121803 -89.484668 
L 112.19015 -98.415954 
L 132.326844 -115.935658 
L 172.600231 -149.529416 
L 253.147006 -213.063869 
L 414.240555 -251.267122 
L 736.427653 -249.709641 
L 736.427653 -82.786909 
L 736.427653 -82.786909 
L 414.240555 -82.786909 
L 253.147006 -82.786909 
L 172.600231 -82.786909 
L 132.326844 -82.786909 
L 112.19015 -82.786909 
L 102.121803 -82.786909 
L 94.570543 -82.786909 
z
" style="stroke: #8a4f4b; stroke-opacity: 0.05"/>
    </defs>
    <g clip-path="url(#pd14cad0352)">
     <use xlink:href="#mbd58984e81" x="0" y="489.6" style="fill: #8a4f4b; fill-opacity: 0.05; stroke: #8a4f4b; stroke-opacity: 0.05"/>
    </g>
   </g>
   <g id="line2d_23">
    <path d="M 94.570543 403.136067 
L 102.121803 386.42447 
L 112.19015 364.557844 
L 132.326844 321.461229 
L 172.600231 249.985731 
L 253.147006 121.954909 
" clip-path="url(#pd14cad0352)" style="fill: none; stroke: #5c6470; stroke-width: 3; stroke-linecap: round"/>
   </g>
   <g id="line2d_24">
    <path d="M 94.570543 406.813091 
L 102.121803 400.115332 
L 112.19015 391.184046 
L 132.326844 373.664342 
L 172.600231 340.070584 
L 253.147006 276.536131 
L 414.240555 238.332878 
L 736.427653 239.890359 
" clip-path="url(#pd14cad0352)" style="fill: none; stroke: #8a4f4b; stroke-width: 3; stroke-linecap: round"/>
   </g>
   <g id="patch_3">
    <path d="M 93.312 421.056 
L 93.312 107.712 
" style="fill: none; stroke: #d9d9d2; stroke-width: 0.8; stroke-linejoin: miter; stroke-linecap: square"/>
   </g>
   <g id="patch_4">
    <path d="M 93.312 421.056 
L 746.496 421.056 
" style="fill: none; stroke: #d9d9d2; stroke-width: 0.8; stroke-linejoin: miter; stroke-linecap: square"/>
   </g>
   <g id="text_18">
    <!-- 1191 -->
    <g style="fill: #5c6470" transform="translate(261.147006 117.954909) scale(0.09 -0.09)">
     <defs>
      <path id="ArialMT-39" d="M 350 1059 
L 891 1109 
Q 959 728 1153 556 
Q 1347 384 1650 384 
Q 1909 384 2104 503 
Q 2300 622 2425 820 
Q 2550 1019 2634 1356 
Q 2719 1694 2719 2044 
Q 2719 2081 2716 2156 
Q 2547 1888 2255 1720 
Q 1963 1553 1622 1553 
Q 1053 1553 659 1965 
Q 266 2378 266 3053 
Q 266 3750 677 4175 
Q 1088 4600 1706 4600 
Q 2153 4600 2523 4359 
Q 2894 4119 3086 3673 
Q 3278 3228 3278 2384 
Q 3278 1506 3087 986 
Q 2897 466 2520 194 
Q 2144 -78 1638 -78 
Q 1100 -78 759 220 
Q 419 519 350 1059 
z
M 2653 3081 
Q 2653 3566 2395 3850 
Q 2138 4134 1775 4134 
Q 1400 4134 1122 3828 
Q 844 3522 844 3034 
Q 844 2597 1108 2323 
Q 1372 2050 1759 2050 
Q 2150 2050 2401 2323 
Q 2653 2597 2653 3081 
z
" transform="scale(0.015625)"/>
     </defs>
     <use xlink:href="#ArialMT-31"/>
     <use xlink:href="#ArialMT-31" x="48.240234"/>
     <use xlink:href="#ArialMT-39" x="103.855469"/>
     <use xlink:href="#ArialMT-31" x="159.470703"/>
    </g>
   </g>
   <g id="text_19">
    <!-- 702 -->
    <g style="fill: #8a4f4b" transform="translate(744.427653 235.890359) scale(0.09 -0.09)">
     <defs>
      <path id="ArialMT-37" d="M 303 3981 
L 303 4522 
L 3269 4522 
L 3269 4084 
Q 2831 3619 2401 2847 
Q 1972 2075 1738 1259 
Q 1569 684 1522 0 
L 944 0 
Q 953 541 1156 1306 
Q 1359 2072 1739 2783 
Q 2119 3494 2547 3981 
L 303 3981 
z
" transform="scale(0.015625)"/>
     </defs>
     <use xlink:href="#ArialMT-37"/>
     <use xlink:href="#ArialMT-30" x="55.615234"/>
     <use xlink:href="#ArialMT-32" x="111.230469"/>
    </g>
   </g>
   <g id="PathCollection_1">
    <defs>
     <path id="m89e3eb73ce" d="M 0 3.24037 
C 0.859356 3.24037 1.683631 2.898944 2.291288 2.291288 
C 2.898944 1.683631 3.24037 0.859356 3.24037 0 
C 3.24037 -0.859356 2.898944 -1.683631 2.291288 -2.291288 
C 1.683631 -2.898944 0.859356 -3.24037 0 -3.24037 
C -0.859356 -3.24037 -1.683631 -2.898944 -2.291288 -2.291288 
C -2.898944 -1.683631 -3.24037 -0.859356 -3.24037 0 
C -3.24037 0.859356 -2.898944 1.683631 -2.291288 2.291288 
C -1.683631 2.898944 -0.859356 3.24037 0 3.24037 
z
" style="stroke: #5c6470"/>
    </defs>
    <g clip-path="url(#pd14cad0352)">
     <use xlink:href="#m89e3eb73ce" x="253.147006" y="121.954909" style="fill: #5c6470; stroke: #5c6470"/>
    </g>
   </g>
   <g id="PathCollection_2">
    <defs>
     <path id="mcb9b48120b" d="M 0 3.24037 
C 0.859356 3.24037 1.683631 2.898944 2.291288 2.291288 
C 2.898944 1.683631 3.24037 0.859356 3.24037 0 
C 3.24037 -0.859356 2.898944 -1.683631 2.291288 -2.291288 
C 1.683631 -2.898944 0.859356 -3.24037 0 -3.24037 
C -0.859356 -3.24037 -1.683631 -2.898944 -2.291288 -2.291288 
C -2.898944 -1.683631 -3.24037 -0.859356 -3.24037 0 
C -3.24037 0.859356 -2.898944 1.683631 -2.291288 2.291288 
C -1.683631 2.898944 -0.859356 3.24037 0 3.24037 
z
" style="stroke: #8a4f4b"/>
    </defs>
    <g clip-path="url(#pd14cad0352)">
     <use xlink:href="#mcb9b48120b" x="736.427653" y="239.890359" style="fill: #8a4f4b; stroke: #8a4f4b"/>
    </g>
   </g>
   <g id="legend_1">
    <g id="line2d_25">
     <path d="M 97.112 92.344417 
L 110.412 92.344417 
L 123.712 92.344417 
" style="fill: none; stroke: #5c6470; stroke-width: 3; stroke-linecap: round"/>
    </g>
    <g id="text_20">
     <!-- FP16 (baseline) -->
     <g style="fill: #5f5f5f" transform="translate(131.312 95.669417) scale(0.095 -0.095)">
      <defs>
       <path id="DejaVuSansMono-46" d="M 728 4666 
L 3475 4666 
L 3475 4134 
L 1363 4134 
L 1363 2759 
L 3278 2759 
L 3278 2228 
L 1363 2228 
L 1363 0 
L 728 0 
L 728 4666 
z
" transform="scale(0.015625)"/>
       <path id="DejaVuSansMono-50" d="M 1247 4147 
L 1247 2394 
L 1978 2394 
Q 2416 2394 2661 2625 
Q 2906 2856 2906 3272 
Q 2906 3688 2662 3917 
Q 2419 4147 1978 4147 
L 1247 4147 
z
M 616 4666 
L 1978 4666 
Q 2759 4666 3162 4311 
Q 3566 3956 3566 3272 
Q 3566 2581 3164 2228 
Q 2763 1875 1978 1875 
L 1247 1875 
L 1247 0 
L 616 0 
L 616 4666 
z
" transform="scale(0.015625)"/>
       <path id="DejaVuSansMono-31" d="M 844 531 
L 1825 531 
L 1825 4097 
L 769 3859 
L 769 4434 
L 1819 4666 
L 2450 4666 
L 2450 531 
L 3419 531 
L 3419 0 
L 844 0 
L 844 531 
z
" transform="scale(0.015625)"/>
       <path id="DejaVuSansMono-36" d="M 3097 4563 
L 3097 3981 
Q 2900 4097 2678 4158 
Q 2456 4219 2216 4219 
Q 1616 4219 1306 3767 
Q 997 3316 997 2438 
Q 1147 2750 1412 2917 
Q 1678 3084 2022 3084 
Q 2697 3084 3067 2670 
Q 3438 2256 3438 1497 
Q 3438 741 3056 325 
Q 2675 -91 1984 -91 
Q 1172 -91 794 492 
Q 416 1075 416 2328 
Q 416 3509 870 4129 
Q 1325 4750 2188 4750 
Q 2419 4750 2650 4701 
Q 2881 4653 3097 4563 
z
M 1972 2591 
Q 1569 2591 1337 2300 
Q 1106 2009 1106 1497 
Q 1106 984 1337 693 
Q 1569 403 1972 403 
Q 2391 403 2603 679 
Q 2816 956 2816 1497 
Q 2816 2041 2603 2316 
Q 2391 2591 1972 2591 
z
" transform="scale(0.015625)"/>
       <path id="DejaVuSansMono-20" transform="scale(0.015625)"/>
       <path id="DejaVuSansMono-28" d="M 2766 4856 
Q 2350 4144 2145 3436 
Q 1941 2728 1941 2009 
Q 1941 1294 2145 584 
Q 2350 -125 2766 -844 
L 2266 -844 
Q 1794 -100 1562 604 
Q 1331 1309 1331 2009 
Q 1331 2706 1562 3412 
Q 1794 4119 2266 4856 
L 2766 4856 
z
" transform="scale(0.015625)"/>
       <path id="DejaVuSansMono-62" d="M 2869 1747 
Q 2869 2416 2656 2756 
Q 2444 3097 2028 3097 
Q 1609 3097 1393 2755 
Q 1178 2413 1178 1747 
Q 1178 1084 1393 740 
Q 1609 397 2028 397 
Q 2444 397 2656 737 
Q 2869 1078 2869 1747 
z
M 1178 3053 
Q 1316 3309 1558 3446 
Q 1800 3584 2119 3584 
Q 2750 3584 3112 3098 
Q 3475 2613 3475 1759 
Q 3475 894 3111 401 
Q 2747 -91 2113 -91 
Q 1800 -91 1561 45 
Q 1322 181 1178 441 
L 1178 0 
L 603 0 
L 603 4863 
L 1178 4863 
L 1178 3053 
z
" transform="scale(0.015625)"/>
       <path id="DejaVuSansMono-61" d="M 2194 1759 
L 2003 1759 
Q 1500 1759 1245 1582 
Q 991 1406 991 1056 
Q 991 741 1181 566 
Q 1372 391 1709 391 
Q 2184 391 2456 720 
Q 2728 1050 2731 1631 
L 2731 1759 
L 2194 1759 
z
M 3309 1997 
L 3309 0 
L 2731 0 
L 2731 519 
Q 2547 206 2267 57 
Q 1988 -91 1588 -91 
Q 1053 -91 734 211 
Q 416 513 416 1019 
Q 416 1603 808 1906 
Q 1200 2209 1959 2209 
L 2731 2209 
L 2731 2300 
Q 2728 2719 2518 2908 
Q 2309 3097 1850 3097 
Q 1556 3097 1256 3012 
Q 956 2928 672 2766 
L 672 3341 
Q 991 3463 1283 3523 
Q 1575 3584 1850 3584 
Q 2284 3584 2592 3456 
Q 2900 3328 3091 3072 
Q 3209 2916 3259 2686 
Q 3309 2456 3309 1997 
z
" transform="scale(0.015625)"/>
       <path id="DejaVuSansMono-73" d="M 3041 3378 
L 3041 2816 
Q 2794 2959 2544 3031 
Q 2294 3103 2034 3103 
Q 1644 3103 1451 2976 
Q 1259 2850 1259 2591 
Q 1259 2356 1403 2240 
Q 1547 2125 2119 2016 
L 2350 1972 
Q 2778 1891 2998 1647 
Q 3219 1403 3219 1013 
Q 3219 494 2850 201 
Q 2481 -91 1825 -91 
Q 1566 -91 1281 -36 
Q 997 19 666 128 
L 666 722 
Q 988 556 1281 473 
Q 1575 391 1838 391 
Q 2219 391 2428 545 
Q 2638 700 2638 978 
Q 2638 1378 1872 1531 
L 1847 1538 
L 1631 1581 
Q 1134 1678 906 1908 
Q 678 2138 678 2534 
Q 678 3038 1018 3311 
Q 1359 3584 1991 3584 
Q 2272 3584 2531 3532 
Q 2791 3481 3041 3378 
z
" transform="scale(0.015625)"/>
       <path id="DejaVuSansMono-65" d="M 3475 1894 
L 3475 1613 
L 984 1613 
L 984 1594 
Q 984 1022 1282 709 
Q 1581 397 2125 397 
Q 2400 397 2700 484 
Q 3000 572 3341 750 
L 3341 178 
Q 3013 44 2708 -23 
Q 2403 -91 2119 -91 
Q 1303 -91 843 398 
Q 384 888 384 1747 
Q 384 2584 834 3084 
Q 1284 3584 2034 3584 
Q 2703 3584 3089 3131 
Q 3475 2678 3475 1894 
z
M 2900 2063 
Q 2888 2569 2661 2833 
Q 2434 3097 2009 3097 
Q 1594 3097 1325 2822 
Q 1056 2547 1006 2059 
L 2900 2063 
z
" transform="scale(0.015625)"/>
       <path id="DejaVuSansMono-6c" d="M 1997 1269 
Q 1997 881 2139 684 
Q 2281 488 2559 488 
L 3231 488 
L 3231 0 
L 2503 0 
Q 1988 0 1705 331 
Q 1422 663 1422 1269 
L 1422 4447 
L 500 4447 
L 500 4897 
L 1997 4897 
L 1997 1269 
z
" transform="scale(0.015625)"/>
       <path id="DejaVuSansMono-69" d="M 800 3500 
L 2272 3500 
L 2272 447 
L 3413 447 
L 3413 0 
L 556 0 
L 556 447 
L 1697 447 
L 1697 3053 
L 800 3053 
L 800 3500 
z
M 1697 4863 
L 2272 4863 
L 2272 4134 
L 1697 4134 
L 1697 4863 
z
" transform="scale(0.015625)"/>
       <path id="DejaVuSansMono-6e" d="M 3284 2169 
L 3284 0 
L 2706 0 
L 2706 2169 
Q 2706 2641 2540 2862 
Q 2375 3084 2022 3084 
Q 1619 3084 1401 2798 
Q 1184 2513 1184 1978 
L 1184 0 
L 609 0 
L 609 3500 
L 1184 3500 
L 1184 2975 
Q 1338 3275 1600 3429 
Q 1863 3584 2222 3584 
Q 2756 3584 3020 3232 
Q 3284 2881 3284 2169 
z
" transform="scale(0.015625)"/>
       <path id="DejaVuSansMono-29" d="M 1088 4856 
L 1588 4856 
Q 2059 4119 2290 3412 
Q 2522 2706 2522 2009 
Q 2522 1306 2290 600 
Q 2059 -106 1588 -844 
L 1088 -844 
Q 1503 -119 1708 590 
Q 1913 1300 1913 2009 
Q 1913 2722 1708 3431 
Q 1503 4141 1088 4856 
z
" transform="scale(0.015625)"/>
      </defs>
      <use xlink:href="#DejaVuSansMono-46"/>
      <use xlink:href="#DejaVuSansMono-50" x="60.205078"/>
      <use xlink:href="#DejaVuSansMono-31" x="120.410156"/>
      <use xlink:href="#DejaVuSansMono-36" x="180.615234"/>
      <use xlink:href="#DejaVuSansMono-20" x="240.820312"/>
      <use xlink:href="#DejaVuSansMono-28" x="301.025391"/>
      <use xlink:href="#DejaVuSansMono-62" x="361.230469"/>
      <use xlink:href="#DejaVuSansMono-61" x="421.435547"/>
      <use xlink:href="#DejaVuSansMono-73" x="481.640625"/>
      <use xlink:href="#DejaVuSansMono-65" x="541.845703"/>
      <use xlink:href="#DejaVuSansMono-6c" x="602.050781"/>
      <use xlink:href="#DejaVuSansMono-69" x="662.255859"/>
      <use xlink:href="#DejaVuSansMono-6e" x="722.460938"/>
      <use xlink:href="#DejaVuSansMono-65" x="782.666016"/>
      <use xlink:href="#DejaVuSansMono-29" x="842.871094"/>
     </g>
    </g>
    <g id="line2d_26">
     <path d="M 236.101453 92.344417 
L 249.401453 92.344417 
L 262.701453 92.344417 
" style="fill: none; stroke: #8a4f4b; stroke-width: 3; stroke-linecap: round"/>
    </g>
    <g id="text_21">
     <!-- AWQ Generic -->
     <g style="fill: #5f5f5f" transform="translate(270.301453 95.669417) scale(0.095 -0.095)">
      <defs>
       <path id="DejaVuSansMono-41" d="M 1925 4109 
L 1259 1722 
L 2591 1722 
L 1925 4109 
z
M 1544 4666 
L 2309 4666 
L 3738 0 
L 3084 0 
L 2741 1216 
L 1106 1216 
L 769 0 
L 116 0 
L 1544 4666 
z
" transform="scale(0.015625)"/>
       <path id="DejaVuSansMono-57" d="M 0 4666 
L 616 4666 
L 1063 878 
L 1594 3384 
L 2253 3384 
L 2791 872 
L 3238 4666 
L 3853 4666 
L 3156 0 
L 2559 0 
L 1925 2772 
L 1294 0 
L 697 0 
L 0 4666 
z
" transform="scale(0.015625)"/>
       <path id="DejaVuSansMono-51" d="M 2047 -84 
Q 2025 -84 1984 -87 
Q 1944 -91 1919 -91 
Q 1138 -91 752 509 
Q 366 1109 366 2328 
Q 366 3550 752 4150 
Q 1138 4750 1925 4750 
Q 2716 4750 3102 4150 
Q 3488 3550 3488 2328 
Q 3488 1409 3273 848 
Q 3059 288 2625 63 
L 3250 -531 
L 2778 -844 
L 2047 -84 
z
M 2828 2328 
Q 2828 3356 2617 3797 
Q 2406 4238 1925 4238 
Q 1447 4238 1236 3797 
Q 1025 3356 1025 2328 
Q 1025 1303 1236 862 
Q 1447 422 1925 422 
Q 2406 422 2617 861 
Q 2828 1300 2828 2328 
z
" transform="scale(0.015625)"/>
       <path id="DejaVuSansMono-47" d="M 3450 384 
Q 3197 150 2880 29 
Q 2563 -91 2194 -91 
Q 1306 -91 812 545 
Q 319 1181 319 2328 
Q 319 3472 819 4111 
Q 1319 4750 2209 4750 
Q 2503 4750 2772 4667 
Q 3041 4584 3291 4416 
L 3291 3769 
Q 3038 4009 2772 4123 
Q 2506 4238 2209 4238 
Q 1594 4238 1286 3761 
Q 978 3284 978 2328 
Q 978 1356 1276 889 
Q 1575 422 2194 422 
Q 2403 422 2561 470 
Q 2719 519 2847 622 
L 2847 1875 
L 2169 1875 
L 2169 2394 
L 3450 2394 
L 3450 384 
z
" transform="scale(0.015625)"/>
       <path id="DejaVuSansMono-72" d="M 3609 2778 
Q 3425 2922 3234 2987 
Q 3044 3053 2816 3053 
Q 2278 3053 1993 2715 
Q 1709 2378 1709 1741 
L 1709 0 
L 1131 0 
L 1131 3500 
L 1709 3500 
L 1709 2816 
Q 1853 3188 2151 3386 
Q 2450 3584 2859 3584 
Q 3072 3584 3256 3531 
Q 3441 3478 3609 3366 
L 3609 2778 
z
" transform="scale(0.015625)"/>
       <path id="DejaVuSansMono-63" d="M 3316 178 
Q 3084 44 2839 -23 
Q 2594 -91 2338 -91 
Q 1525 -91 1067 396 
Q 609 884 609 1747 
Q 609 2609 1067 3096 
Q 1525 3584 2338 3584 
Q 2591 3584 2831 3518 
Q 3072 3453 3316 3316 
L 3316 2713 
Q 3088 2916 2858 3006 
Q 2628 3097 2338 3097 
Q 1797 3097 1506 2747 
Q 1216 2397 1216 1747 
Q 1216 1100 1508 748 
Q 1800 397 2338 397 
Q 2638 397 2875 489 
Q 3113 581 3316 775 
L 3316 178 
z
" transform="scale(0.015625)"/>
      </defs>
      <use xlink:href="#DejaVuSansMono-41"/>
      <use xlink:href="#DejaVuSansMono-57" x="60.205078"/>
      <use xlink:href="#DejaVuSansMono-51" x="120.410156"/>
      <use xlink:href="#DejaVuSansMono-20" x="180.615234"/>
      <use xlink:href="#DejaVuSansMono-47" x="240.820312"/>
      <use xlink:href="#DejaVuSansMono-65" x="301.025391"/>
      <use xlink:href="#DejaVuSansMono-6e" x="361.230469"/>
      <use xlink:href="#DejaVuSansMono-65" x="421.435547"/>
      <use xlink:href="#DejaVuSansMono-72" x="481.640625"/>
      <use xlink:href="#DejaVuSansMono-69" x="541.845703"/>
      <use xlink:href="#DejaVuSansMono-63" x="602.050781"/>
     </g>
    </g>
   </g>
  </g>
  <g id="text_22">
   <!-- FP16 vs AWQ INT4: first attempt -->
   <g style="fill: #171717" transform="translate(62.208 32.887219) scale(0.25 -0.25)">
    <defs>
     <path id="Arial-BoldMT-46" d="M 472 0 
L 472 4581 
L 3613 4581 
L 3613 3806 
L 1397 3806 
L 1397 2722 
L 3309 2722 
L 3309 1947 
L 1397 1947 
L 1397 0 
L 472 0 
z
" transform="scale(0.015625)"/>
     <path id="Arial-BoldMT-50" d="M 466 0 
L 466 4581 
L 1950 4581 
Q 2794 4581 3050 4513 
Q 3444 4409 3709 4064 
Q 3975 3719 3975 3172 
Q 3975 2750 3822 2462 
Q 3669 2175 3433 2011 
Q 3197 1847 2953 1794 
Q 2622 1728 1994 1728 
L 1391 1728 
L 1391 0 
L 466 0 
z
M 1391 3806 
L 1391 2506 
L 1897 2506 
Q 2444 2506 2628 2578 
Q 2813 2650 2917 2803 
Q 3022 2956 3022 3159 
Q 3022 3409 2875 3571 
Q 2728 3734 2503 3775 
Q 2338 3806 1838 3806 
L 1391 3806 
z
" transform="scale(0.015625)"/>
     <path id="Arial-BoldMT-31" d="M 2519 0 
L 1641 0 
L 1641 3309 
Q 1159 2859 506 2644 
L 506 3441 
Q 850 3553 1253 3867 
Q 1656 4181 1806 4600 
L 2519 4600 
L 2519 0 
z
" transform="scale(0.015625)"/>
     <path id="Arial-BoldMT-36" d="M 3247 3459 
L 2397 3366 
Q 2366 3628 2234 3753 
Q 2103 3878 1894 3878 
Q 1616 3878 1423 3628 
Q 1231 3378 1181 2588 
Q 1509 2975 1997 2975 
Q 2547 2975 2939 2556 
Q 3331 2138 3331 1475 
Q 3331 772 2918 347 
Q 2506 -78 1859 -78 
Q 1166 -78 719 461 
Q 272 1000 272 2228 
Q 272 3488 737 4044 
Q 1203 4600 1947 4600 
Q 2469 4600 2811 4308 
Q 3153 4016 3247 3459 
z
M 1256 1544 
Q 1256 1116 1453 883 
Q 1650 650 1903 650 
Q 2147 650 2309 840 
Q 2472 1031 2472 1466 
Q 2472 1913 2297 2120 
Q 2122 2328 1859 2328 
Q 1606 2328 1431 2129 
Q 1256 1931 1256 1544 
z
" transform="scale(0.015625)"/>
     <path id="Arial-BoldMT-20" transform="scale(0.015625)"/>
     <path id="Arial-BoldMT-76" d="M 1372 0 
L 34 3319 
L 956 3319 
L 1581 1625 
L 1763 1059 
Q 1834 1275 1853 1344 
Q 1897 1484 1947 1625 
L 2578 3319 
L 3481 3319 
L 2163 0 
L 1372 0 
z
" transform="scale(0.015625)"/>
     <path id="Arial-BoldMT-73" d="M 150 947 
L 1031 1081 
Q 1088 825 1259 692 
Q 1431 559 1741 559 
Q 2081 559 2253 684 
Q 2369 772 2369 919 
Q 2369 1019 2306 1084 
Q 2241 1147 2013 1200 
Q 950 1434 666 1628 
Q 272 1897 272 2375 
Q 272 2806 612 3100 
Q 953 3394 1669 3394 
Q 2350 3394 2681 3172 
Q 3013 2950 3138 2516 
L 2309 2363 
Q 2256 2556 2107 2659 
Q 1959 2763 1684 2763 
Q 1338 2763 1188 2666 
Q 1088 2597 1088 2488 
Q 1088 2394 1175 2328 
Q 1294 2241 1995 2081 
Q 2697 1922 2975 1691 
Q 3250 1456 3250 1038 
Q 3250 581 2869 253 
Q 2488 -75 1741 -75 
Q 1063 -75 667 200 
Q 272 475 150 947 
z
" transform="scale(0.015625)"/>
     <path id="Arial-BoldMT-41" d="M 4597 0 
L 3591 0 
L 3191 1041 
L 1359 1041 
L 981 0 
L 0 0 
L 1784 4581 
L 2763 4581 
L 4597 0 
z
M 2894 1813 
L 2263 3513 
L 1644 1813 
L 2894 1813 
z
" transform="scale(0.015625)"/>
     <path id="Arial-BoldMT-57" d="M 1116 0 
L 22 4581 
L 969 4581 
L 1659 1434 
L 2497 4581 
L 3597 4581 
L 4400 1381 
L 5103 4581 
L 6034 4581 
L 4922 0 
L 3941 0 
L 3028 3425 
L 2119 0 
L 1116 0 
z
" transform="scale(0.015625)"/>
     <path id="Arial-BoldMT-51" d="M 4153 581 
Q 4494 338 4894 194 
L 4553 -459 
Q 4344 -397 4144 -288 
Q 4100 -266 3528 119 
Q 3078 -78 2531 -78 
Q 1475 -78 876 544 
Q 278 1166 278 2291 
Q 278 3413 878 4036 
Q 1478 4659 2506 4659 
Q 3525 4659 4122 4036 
Q 4719 3413 4719 2291 
Q 4719 1697 4553 1247 
Q 4428 903 4153 581 
z
M 3409 1103 
Q 3588 1313 3677 1609 
Q 3766 1906 3766 2291 
Q 3766 3084 3416 3476 
Q 3066 3869 2500 3869 
Q 1934 3869 1582 3475 
Q 1231 3081 1231 2291 
Q 1231 1488 1582 1089 
Q 1934 691 2472 691 
Q 2672 691 2850 756 
Q 2569 941 2278 1044 
L 2538 1572 
Q 2994 1416 3409 1103 
z
" transform="scale(0.015625)"/>
     <path id="Arial-BoldMT-49" d="M 438 0 
L 438 4581 
L 1363 4581 
L 1363 0 
L 438 0 
z
" transform="scale(0.015625)"/>
     <path id="Arial-BoldMT-4e" d="M 475 0 
L 475 4581 
L 1375 4581 
L 3250 1522 
L 3250 4581 
L 4109 4581 
L 4109 0 
L 3181 0 
L 1334 2988 
L 1334 0 
L 475 0 
z
" transform="scale(0.015625)"/>
     <path id="Arial-BoldMT-54" d="M 1497 0 
L 1497 3806 
L 138 3806 
L 138 4581 
L 3778 4581 
L 3778 3806 
L 2422 3806 
L 2422 0 
L 1497 0 
z
" transform="scale(0.015625)"/>
     <path id="Arial-BoldMT-34" d="M 1994 0 
L 1994 922 
L 119 922 
L 119 1691 
L 2106 4600 
L 2844 4600 
L 2844 1694 
L 3413 1694 
L 3413 922 
L 2844 922 
L 2844 0 
L 1994 0 
z
M 1994 1694 
L 1994 3259 
L 941 1694 
L 1994 1694 
z
" transform="scale(0.015625)"/>
     <path id="Arial-BoldMT-3a" d="M 628 2441 
L 628 3319 
L 1506 3319 
L 1506 2441 
L 628 2441 
z
M 628 0 
L 628 878 
L 1506 878 
L 1506 0 
L 628 0 
z
" transform="scale(0.015625)"/>
     <path id="Arial-BoldMT-66" d="M 75 3319 
L 563 3319 
L 563 3569 
Q 563 3988 652 4194 
Q 741 4400 980 4529 
Q 1219 4659 1584 4659 
Q 1959 4659 2319 4547 
L 2200 3934 
Q 1991 3984 1797 3984 
Q 1606 3984 1523 3895 
Q 1441 3806 1441 3553 
L 1441 3319 
L 2097 3319 
L 2097 2628 
L 1441 2628 
L 1441 0 
L 563 0 
L 563 2628 
L 75 2628 
L 75 3319 
z
" transform="scale(0.015625)"/>
     <path id="Arial-BoldMT-69" d="M 459 3769 
L 459 4581 
L 1338 4581 
L 1338 3769 
L 459 3769 
z
M 459 0 
L 459 3319 
L 1338 3319 
L 1338 0 
L 459 0 
z
" transform="scale(0.015625)"/>
     <path id="Arial-BoldMT-72" d="M 1300 0 
L 422 0 
L 422 3319 
L 1238 3319 
L 1238 2847 
Q 1447 3181 1614 3287 
Q 1781 3394 1994 3394 
Q 2294 3394 2572 3228 
L 2300 2463 
Q 2078 2606 1888 2606 
Q 1703 2606 1575 2504 
Q 1447 2403 1373 2137 
Q 1300 1872 1300 1025 
L 1300 0 
z
" transform="scale(0.015625)"/>
     <path id="Arial-BoldMT-74" d="M 1981 3319 
L 1981 2619 
L 1381 2619 
L 1381 1281 
Q 1381 875 1398 808 
Q 1416 741 1477 697 
Q 1538 653 1625 653 
Q 1747 653 1978 738 
L 2053 56 
Q 1747 -75 1359 -75 
Q 1122 -75 931 4 
Q 741 84 652 211 
Q 563 338 528 553 
Q 500 706 500 1172 
L 500 2619 
L 97 2619 
L 97 3319 
L 500 3319 
L 500 3978 
L 1381 4491 
L 1381 3319 
L 1981 3319 
z
" transform="scale(0.015625)"/>
     <path id="Arial-BoldMT-61" d="M 1116 2306 
L 319 2450 
Q 453 2931 781 3162 
Q 1109 3394 1756 3394 
Q 2344 3394 2631 3255 
Q 2919 3116 3036 2902 
Q 3153 2688 3153 2116 
L 3144 1091 
Q 3144 653 3186 445 
Q 3228 238 3344 0 
L 2475 0 
Q 2441 88 2391 259 
Q 2369 338 2359 363 
Q 2134 144 1878 34 
Q 1622 -75 1331 -75 
Q 819 -75 523 203 
Q 228 481 228 906 
Q 228 1188 362 1408 
Q 497 1628 739 1745 
Q 981 1863 1438 1950 
Q 2053 2066 2291 2166 
L 2291 2253 
Q 2291 2506 2166 2614 
Q 2041 2722 1694 2722 
Q 1459 2722 1328 2630 
Q 1197 2538 1116 2306 
z
M 2291 1594 
Q 2122 1538 1756 1459 
Q 1391 1381 1278 1306 
Q 1106 1184 1106 997 
Q 1106 813 1243 678 
Q 1381 544 1594 544 
Q 1831 544 2047 700 
Q 2206 819 2256 991 
Q 2291 1103 2291 1419 
L 2291 1594 
z
" transform="scale(0.015625)"/>
     <path id="Arial-BoldMT-65" d="M 2381 1056 
L 3256 909 
Q 3088 428 2723 176 
Q 2359 -75 1813 -75 
Q 947 -75 531 491 
Q 203 944 203 1634 
Q 203 2459 634 2926 
Q 1066 3394 1725 3394 
Q 2466 3394 2894 2905 
Q 3322 2416 3303 1406 
L 1103 1406 
Q 1113 1016 1316 798 
Q 1519 581 1822 581 
Q 2028 581 2168 693 
Q 2309 806 2381 1056 
z
M 2431 1944 
Q 2422 2325 2234 2523 
Q 2047 2722 1778 2722 
Q 1491 2722 1303 2513 
Q 1116 2303 1119 1944 
L 2431 1944 
z
" transform="scale(0.015625)"/>
     <path id="Arial-BoldMT-6d" d="M 394 3319 
L 1203 3319 
L 1203 2866 
Q 1638 3394 2238 3394 
Q 2556 3394 2790 3262 
Q 3025 3131 3175 2866 
Q 3394 3131 3647 3262 
Q 3900 3394 4188 3394 
Q 4553 3394 4806 3245 
Q 5059 3097 5184 2809 
Q 5275 2597 5275 2122 
L 5275 0 
L 4397 0 
L 4397 1897 
Q 4397 2391 4306 2534 
Q 4184 2722 3931 2722 
Q 3747 2722 3584 2609 
Q 3422 2497 3350 2280 
Q 3278 2063 3278 1594 
L 3278 0 
L 2400 0 
L 2400 1819 
Q 2400 2303 2353 2443 
Q 2306 2584 2207 2653 
Q 2109 2722 1941 2722 
Q 1738 2722 1575 2612 
Q 1413 2503 1342 2297 
Q 1272 2091 1272 1613 
L 1272 0 
L 394 0 
L 394 3319 
z
" transform="scale(0.015625)"/>
     <path id="Arial-BoldMT-70" d="M 434 3319 
L 1253 3319 
L 1253 2831 
Q 1413 3081 1684 3237 
Q 1956 3394 2288 3394 
Q 2866 3394 3269 2941 
Q 3672 2488 3672 1678 
Q 3672 847 3265 386 
Q 2859 -75 2281 -75 
Q 2006 -75 1782 34 
Q 1559 144 1313 409 
L 1313 -1263 
L 434 -1263 
L 434 3319 
z
M 1303 1716 
Q 1303 1156 1525 889 
Q 1747 622 2066 622 
Q 2372 622 2575 867 
Q 2778 1113 2778 1672 
Q 2778 2194 2568 2447 
Q 2359 2700 2050 2700 
Q 1728 2700 1515 2451 
Q 1303 2203 1303 1716 
z
" transform="scale(0.015625)"/>
    </defs>
    <use xlink:href="#Arial-BoldMT-46"/>
    <use xlink:href="#Arial-BoldMT-50" x="61.083984"/>
    <use xlink:href="#Arial-BoldMT-31" x="127.783203"/>
    <use xlink:href="#Arial-BoldMT-36" x="183.398438"/>
    <use xlink:href="#Arial-BoldMT-20" x="239.013672"/>
    <use xlink:href="#Arial-BoldMT-76" x="266.796875"/>
    <use xlink:href="#Arial-BoldMT-73" x="322.412109"/>
    <use xlink:href="#Arial-BoldMT-20" x="378.027344"/>
    <use xlink:href="#Arial-BoldMT-41" x="402.060547"/>
    <use xlink:href="#Arial-BoldMT-57" x="468.777344"/>
    <use xlink:href="#Arial-BoldMT-51" x="563.162109"/>
    <use xlink:href="#Arial-BoldMT-20" x="640.945312"/>
    <use xlink:href="#Arial-BoldMT-49" x="668.728516"/>
    <use xlink:href="#Arial-BoldMT-4e" x="696.511719"/>
    <use xlink:href="#Arial-BoldMT-54" x="768.728516"/>
    <use xlink:href="#Arial-BoldMT-34" x="829.8125"/>
    <use xlink:href="#Arial-BoldMT-3a" x="885.427734"/>
    <use xlink:href="#Arial-BoldMT-20" x="918.728516"/>
    <use xlink:href="#Arial-BoldMT-66" x="946.511719"/>
    <use xlink:href="#Arial-BoldMT-69" x="979.8125"/>
    <use xlink:href="#Arial-BoldMT-72" x="1007.595703"/>
    <use xlink:href="#Arial-BoldMT-73" x="1046.511719"/>
    <use xlink:href="#Arial-BoldMT-74" x="1102.126953"/>
    <use xlink:href="#Arial-BoldMT-20" x="1135.427734"/>
    <use xlink:href="#Arial-BoldMT-61" x="1163.210938"/>
    <use xlink:href="#Arial-BoldMT-74" x="1218.826172"/>
    <use xlink:href="#Arial-BoldMT-74" x="1252.126953"/>
    <use xlink:href="#Arial-BoldMT-65" x="1285.427734"/>
    <use xlink:href="#Arial-BoldMT-6d" x="1341.042969"/>
    <use xlink:href="#Arial-BoldMT-70" x="1429.958984"/>
    <use xlink:href="#Arial-BoldMT-74" x="1491.042969"/>
   </g>
  </g>
  <g id="text_23">
   <!-- Despite 4x smaller weights, the generic AWQ kernel makes quantization slower than FP16. -->
   <g style="fill: #5f5f5f" transform="translate(62.208 49.994828) scale(0.115 -0.115)">
    <defs>
     <path id="ArialMT-44" d="M 494 0 
L 494 4581 
L 2072 4581 
Q 2606 4581 2888 4516 
Q 3281 4425 3559 4188 
Q 3922 3881 4101 3404 
Q 4281 2928 4281 2316 
Q 4281 1794 4159 1391 
Q 4038 988 3847 723 
Q 3656 459 3429 307 
Q 3203 156 2883 78 
Q 2563 0 2147 0 
L 494 0 
z
M 1100 541 
L 2078 541 
Q 2531 541 2789 625 
Q 3047 709 3200 863 
Q 3416 1078 3536 1442 
Q 3656 1806 3656 2325 
Q 3656 3044 3420 3430 
Q 3184 3816 2847 3947 
Q 2603 4041 2063 4041 
L 1100 4041 
L 1100 541 
z
" transform="scale(0.015625)"/>
     <path id="ArialMT-69" d="M 425 3934 
L 425 4581 
L 988 4581 
L 988 3934 
L 425 3934 
z
M 425 0 
L 425 3319 
L 988 3319 
L 988 0 
L 425 0 
z
" transform="scale(0.015625)"/>
     <path id="ArialMT-78" d="M 47 0 
L 1259 1725 
L 138 3319 
L 841 3319 
L 1350 2541 
Q 1494 2319 1581 2169 
Q 1719 2375 1834 2534 
L 2394 3319 
L 3066 3319 
L 1919 1756 
L 3153 0 
L 2463 0 
L 1781 1031 
L 1600 1309 
L 728 0 
L 47 0 
z
" transform="scale(0.015625)"/>
     <path id="ArialMT-6d" d="M 422 0 
L 422 3319 
L 925 3319 
L 925 2853 
Q 1081 3097 1340 3245 
Q 1600 3394 1931 3394 
Q 2300 3394 2536 3241 
Q 2772 3088 2869 2813 
Q 3263 3394 3894 3394 
Q 4388 3394 4653 3120 
Q 4919 2847 4919 2278 
L 4919 0 
L 4359 0 
L 4359 2091 
Q 4359 2428 4304 2576 
Q 4250 2725 4106 2815 
Q 3963 2906 3769 2906 
Q 3419 2906 3187 2673 
Q 2956 2441 2956 1928 
L 2956 0 
L 2394 0 
L 2394 2156 
Q 2394 2531 2256 2718 
Q 2119 2906 1806 2906 
Q 1569 2906 1367 2781 
Q 1166 2656 1075 2415 
Q 984 2175 984 1722 
L 984 0 
L 422 0 
z
" transform="scale(0.015625)"/>
     <path id="ArialMT-61" d="M 2588 409 
Q 2275 144 1986 34 
Q 1697 -75 1366 -75 
Q 819 -75 525 192 
Q 231 459 231 875 
Q 231 1119 342 1320 
Q 453 1522 633 1644 
Q 813 1766 1038 1828 
Q 1203 1872 1538 1913 
Q 2219 1994 2541 2106 
Q 2544 2222 2544 2253 
Q 2544 2597 2384 2738 
Q 2169 2928 1744 2928 
Q 1347 2928 1158 2789 
Q 969 2650 878 2297 
L 328 2372 
Q 403 2725 575 2942 
Q 747 3159 1072 3276 
Q 1397 3394 1825 3394 
Q 2250 3394 2515 3294 
Q 2781 3194 2906 3042 
Q 3031 2891 3081 2659 
Q 3109 2516 3109 2141 
L 3109 1391 
Q 3109 606 3145 398 
Q 3181 191 3288 0 
L 2700 0 
Q 2613 175 2588 409 
z
M 2541 1666 
Q 2234 1541 1622 1453 
Q 1275 1403 1131 1340 
Q 988 1278 909 1158 
Q 831 1038 831 891 
Q 831 666 1001 516 
Q 1172 366 1500 366 
Q 1825 366 2078 508 
Q 2331 650 2450 897 
Q 2541 1088 2541 1459 
L 2541 1666 
z
" transform="scale(0.015625)"/>
     <path id="ArialMT-6c" d="M 409 0 
L 409 4581 
L 972 4581 
L 972 0 
L 409 0 
z
" transform="scale(0.015625)"/>
     <path id="ArialMT-77" d="M 1034 0 
L 19 3319 
L 600 3319 
L 1128 1403 
L 1325 691 
Q 1338 744 1497 1375 
L 2025 3319 
L 2603 3319 
L 3100 1394 
L 3266 759 
L 3456 1400 
L 4025 3319 
L 4572 3319 
L 3534 0 
L 2950 0 
L 2422 1988 
L 2294 2553 
L 1622 0 
L 1034 0 
z
" transform="scale(0.015625)"/>
     <path id="ArialMT-2c" d="M 569 0 
L 569 641 
L 1209 641 
L 1209 0 
Q 1209 -353 1084 -570 
Q 959 -788 688 -906 
L 531 -666 
Q 709 -588 793 -436 
Q 878 -284 888 0 
L 569 0 
z
" transform="scale(0.015625)"/>
     <path id="ArialMT-41" d="M -9 0 
L 1750 4581 
L 2403 4581 
L 4278 0 
L 3588 0 
L 3053 1388 
L 1138 1388 
L 634 0 
L -9 0 
z
M 1313 1881 
L 2866 1881 
L 2388 3150 
Q 2169 3728 2063 4100 
Q 1975 3659 1816 3225 
L 1313 1881 
z
" transform="scale(0.015625)"/>
     <path id="ArialMT-57" d="M 1294 0 
L 78 4581 
L 700 4581 
L 1397 1578 
Q 1509 1106 1591 641 
Q 1766 1375 1797 1488 
L 2669 4581 
L 3400 4581 
L 4056 2263 
Q 4303 1400 4413 641 
Q 4500 1075 4641 1638 
L 5359 4581 
L 5969 4581 
L 4713 0 
L 4128 0 
L 3163 3491 
Q 3041 3928 3019 4028 
Q 2947 3713 2884 3491 
L 1913 0 
L 1294 0 
z
" transform="scale(0.015625)"/>
     <path id="ArialMT-51" d="M 3966 491 
Q 4388 200 4744 66 
L 4566 -356 
Q 4072 -178 3581 206 
Q 3072 -78 2456 -78 
Q 1834 -78 1328 222 
Q 822 522 548 1065 
Q 275 1609 275 2291 
Q 275 2969 550 3525 
Q 825 4081 1333 4372 
Q 1841 4663 2469 4663 
Q 3103 4663 3612 4361 
Q 4122 4059 4389 3517 
Q 4656 2975 4656 2294 
Q 4656 1728 4484 1276 
Q 4313 825 3966 491 
z
M 2631 1266 
Q 3156 1119 3497 828 
Q 4031 1316 4031 2294 
Q 4031 2850 3842 3265 
Q 3653 3681 3289 3911 
Q 2925 4141 2472 4141 
Q 1794 4141 1347 3677 
Q 900 3213 900 2291 
Q 900 1397 1342 919 
Q 1784 441 2472 441 
Q 2797 441 3084 563 
Q 2800 747 2484 825 
L 2631 1266 
z
" transform="scale(0.015625)"/>
     <path id="ArialMT-71" d="M 2538 -1272 
L 2538 353 
Q 2406 169 2170 47 
Q 1934 -75 1669 -75 
Q 1078 -75 651 397 
Q 225 869 225 1691 
Q 225 2191 398 2587 
Q 572 2984 901 3189 
Q 1231 3394 1625 3394 
Q 2241 3394 2594 2875 
L 2594 3319 
L 3100 3319 
L 3100 -1272 
L 2538 -1272 
z
M 803 1669 
Q 803 1028 1072 708 
Q 1341 388 1716 388 
Q 2075 388 2334 692 
Q 2594 997 2594 1619 
Q 2594 2281 2320 2615 
Q 2047 2950 1678 2950 
Q 1313 2950 1058 2639 
Q 803 2328 803 1669 
z
" transform="scale(0.015625)"/>
     <path id="ArialMT-7a" d="M 125 0 
L 125 456 
L 2238 2881 
Q 1878 2863 1603 2863 
L 250 2863 
L 250 3319 
L 2963 3319 
L 2963 2947 
L 1166 841 
L 819 456 
Q 1197 484 1528 484 
L 3063 484 
L 3063 0 
L 125 0 
z
" transform="scale(0.015625)"/>
     <path id="ArialMT-46" d="M 525 0 
L 525 4581 
L 3616 4581 
L 3616 4041 
L 1131 4041 
L 1131 2622 
L 3281 2622 
L 3281 2081 
L 1131 2081 
L 1131 0 
L 525 0 
z
" transform="scale(0.015625)"/>
     <path id="ArialMT-50" d="M 494 0 
L 494 4581 
L 2222 4581 
Q 2678 4581 2919 4538 
Q 3256 4481 3484 4323 
Q 3713 4166 3852 3881 
Q 3991 3597 3991 3256 
Q 3991 2672 3619 2267 
Q 3247 1863 2275 1863 
L 1100 1863 
L 1100 0 
L 494 0 
z
M 1100 2403 
L 2284 2403 
Q 2872 2403 3119 2622 
Q 3366 2841 3366 3238 
Q 3366 3525 3220 3729 
Q 3075 3934 2838 4000 
Q 2684 4041 2272 4041 
L 1100 4041 
L 1100 2403 
z
" transform="scale(0.015625)"/>
     <path id="ArialMT-2e" d="M 581 0 
L 581 641 
L 1222 641 
L 1222 0 
L 581 0 
z
" transform="scale(0.015625)"/>
    </defs>
    <use xlink:href="#ArialMT-44"/>
    <use xlink:href="#ArialMT-65" x="72.216797"/>
    <use xlink:href="#ArialMT-73" x="127.832031"/>
    <use xlink:href="#ArialMT-70" x="177.832031"/>
    <use xlink:href="#ArialMT-69" x="233.447266"/>
    <use xlink:href="#ArialMT-74" x="255.664062"/>
    <use xlink:href="#ArialMT-65" x="283.447266"/>
    <use xlink:href="#ArialMT-20" x="339.0625"/>
    <use xlink:href="#ArialMT-34" x="366.845703"/>
    <use xlink:href="#ArialMT-78" x="422.460938"/>
    <use xlink:href="#ArialMT-20" x="472.460938"/>
    <use xlink:href="#ArialMT-73" x="500.244141"/>
    <use xlink:href="#ArialMT-6d" x="550.244141"/>
    <use xlink:href="#ArialMT-61" x="633.544922"/>
    <use xlink:href="#ArialMT-6c" x="689.160156"/>
    <use xlink:href="#ArialMT-6c" x="711.376953"/>
    <use xlink:href="#ArialMT-65" x="733.59375"/>
    <use xlink:href="#ArialMT-72" x="789.208984"/>
    <use xlink:href="#ArialMT-20" x="822.509766"/>
    <use xlink:href="#ArialMT-77" x="850.292969"/>
    <use xlink:href="#ArialMT-65" x="922.509766"/>
    <use xlink:href="#ArialMT-69" x="978.125"/>
    <use xlink:href="#ArialMT-67" x="1000.341797"/>
    <use xlink:href="#ArialMT-68" x="1055.957031"/>
    <use xlink:href="#ArialMT-74" x="1111.572266"/>
    <use xlink:href="#ArialMT-73" x="1139.355469"/>
    <use xlink:href="#ArialMT-2c" x="1189.355469"/>
    <use xlink:href="#ArialMT-20" x="1217.138672"/>
    <use xlink:href="#ArialMT-74" x="1244.921875"/>
    <use xlink:href="#ArialMT-68" x="1272.705078"/>
    <use xlink:href="#ArialMT-65" x="1328.320312"/>
    <use xlink:href="#ArialMT-20" x="1383.935547"/>
    <use xlink:href="#ArialMT-67" x="1411.71875"/>
    <use xlink:href="#ArialMT-65" x="1467.333984"/>
    <use xlink:href="#ArialMT-6e" x="1522.949219"/>
    <use xlink:href="#ArialMT-65" x="1578.564453"/>
    <use xlink:href="#ArialMT-72" x="1634.179688"/>
    <use xlink:href="#ArialMT-69" x="1667.480469"/>
    <use xlink:href="#ArialMT-63" x="1689.697266"/>
    <use xlink:href="#ArialMT-20" x="1739.697266"/>
    <use xlink:href="#ArialMT-41" x="1761.980469"/>
    <use xlink:href="#ArialMT-57" x="1824.929688"/>
    <use xlink:href="#ArialMT-51" x="1919.314453"/>
    <use xlink:href="#ArialMT-20" x="1997.097656"/>
    <use xlink:href="#ArialMT-6b" x="2024.880859"/>
    <use xlink:href="#ArialMT-65" x="2074.880859"/>
    <use xlink:href="#ArialMT-72" x="2130.496094"/>
    <use xlink:href="#ArialMT-6e" x="2163.796875"/>
    <use xlink:href="#ArialMT-65" x="2219.412109"/>
    <use xlink:href="#ArialMT-6c" x="2275.027344"/>
    <use xlink:href="#ArialMT-20" x="2297.244141"/>
    <use xlink:href="#ArialMT-6d" x="2325.027344"/>
    <use xlink:href="#ArialMT-61" x="2408.328125"/>
    <use xlink:href="#ArialMT-6b" x="2463.943359"/>
    <use xlink:href="#ArialMT-65" x="2513.943359"/>
    <use xlink:href="#ArialMT-73" x="2569.558594"/>
    <use xlink:href="#ArialMT-20" x="2619.558594"/>
    <use xlink:href="#ArialMT-71" x="2647.341797"/>
    <use xlink:href="#ArialMT-75" x="2702.957031"/>
    <use xlink:href="#ArialMT-61" x="2758.572266"/>
    <use xlink:href="#ArialMT-6e" x="2814.1875"/>
    <use xlink:href="#ArialMT-74" x="2869.802734"/>
    <use xlink:href="#ArialMT-69" x="2897.585938"/>
    <use xlink:href="#ArialMT-7a" x="2919.802734"/>
    <use xlink:href="#ArialMT-61" x="2969.802734"/>
    <use xlink:href="#ArialMT-74" x="3025.417969"/>
    <use xlink:href="#ArialMT-69" x="3053.201172"/>
    <use xlink:href="#ArialMT-6f" x="3075.417969"/>
    <use xlink:href="#ArialMT-6e" x="3131.033203"/>
    <use xlink:href="#ArialMT-20" x="3186.648438"/>
    <use xlink:href="#ArialMT-73" x="3214.431641"/>
    <use xlink:href="#ArialMT-6c" x="3264.431641"/>
    <use xlink:href="#ArialMT-6f" x="3286.648438"/>
    <use xlink:href="#ArialMT-77" x="3342.263672"/>
    <use xlink:href="#ArialMT-65" x="3414.480469"/>
    <use xlink:href="#ArialMT-72" x="3470.095703"/>
    <use xlink:href="#ArialMT-20" x="3503.396484"/>
    <use xlink:href="#ArialMT-74" x="3531.179688"/>
    <use xlink:href="#ArialMT-68" x="3558.962891"/>
    <use xlink:href="#ArialMT-61" x="3614.578125"/>
    <use xlink:href="#ArialMT-6e" x="3670.193359"/>
    <use xlink:href="#ArialMT-20" x="3725.808594"/>
    <use xlink:href="#ArialMT-46" x="3753.591797"/>
    <use xlink:href="#ArialMT-50" x="3814.675781"/>
    <use xlink:href="#ArialMT-31" x="3881.375"/>
    <use xlink:href="#ArialMT-36" x="3936.990234"/>
    <use xlink:href="#ArialMT-2e" x="3992.605469"/>
   </g>
  </g>
 </g>
 <defs>
  <clipPath id="pd14cad0352">
   <rect x="93.312" y="107.712" width="653.184" height="313.344"/>
  </clipPath>
 </defs>
</svg>
