<?xml version="1.0" encoding="utf-8" standalone="no"?>
<!DOCTYPE svg PUBLIC "-//W3C//DTD SVG 1.1//EN"
  "http://www.w3.org/Graphics/SVG/1.1/DTD/svg11.dtd">
<svg xmlns:xlink="http://www.w3.org/1999/xlink" width="950.4pt" height="734.4pt" viewBox="0 0 950.4 734.4" xmlns="http://www.w3.org/2000/svg" version="1.1">
 <metadata>
  <rdf:RDF xmlns:dc="http://purl.org/dc/elements/1.1/" xmlns:cc="http://creativecommons.org/ns#" xmlns:rdf="http://www.w3.org/1999/02/22-rdf-syntax-ns#">
   <cc:Work>
    <dc:type rdf:resource="http://purl.org/dc/dcmitype/StillImage"/>
    <dc:date>2026-03-26T15:16:04.087069</dc:date>
    <dc:format>image/svg+xml</dc:format>
    <dc:creator>
     <cc:Agent>
      <dc:title>Matplotlib v3.9.2, https://matplotlib.org/</dc:title>
     </cc:Agent>
    </dc:creator>
   </cc:Work>
  </rdf:RDF>
 </metadata>
 <defs>
  <style type="text/css">*{stroke-linejoin: round; stroke-linecap: butt}</style>
 </defs>
 <g id="figure_1">
  <g id="patch_1">
   <path d="M 0 734.4 
L 950.4 734.4 
L 950.4 0 
L 0 0 
L 0 734.4 
z
" style="fill: none; opacity: 0"/>
  </g>
  <g id="axes_1">
   <g id="patch_2">
    <path d="M 85.536 353.190857 
L 432.638609 353.190857 
L 432.638609 124.848 
L 85.536 124.848 
L 85.536 353.190857 
z
" style="fill: none"/>
   </g>
   <g id="matplotlib.axis_1">
    <g id="xtick_1">
     <g id="line2d_1"/>
     <g id="text_1">
      <!-- 1 -->
      <g style="fill: #5f5f5f" transform="translate(83.146276 367.064451) scale(0.11 -0.11)">
       <defs>
        <path id="ArialMT-31" d="M 2384 0 
L 1822 0 
L 1822 3584 
Q 1619 3391 1289 3197 
Q 959 3003 697 2906 
L 697 3450 
Q 1169 3672 1522 3987 
Q 1875 4303 2022 4600 
L 2384 4600 
L 2384 0 
z
" transform="scale(0.015625)"/>
       </defs>
       <use xlink:href="#ArialMT-31"/>
      </g>
     </g>
    </g>
    <g id="xtick_2">
     <g id="line2d_2"/>
     <g id="text_2">
      <!-- 4 -->
      <g style="fill: #5f5f5f" transform="translate(87.159022 367.064451) scale(0.11 -0.11)">
       <defs>
        <path id="ArialMT-34" d="M 2069 0 
L 2069 1097 
L 81 1097 
L 81 1613 
L 2172 4581 
L 2631 4581 
L 2631 1613 
L 3250 1613 
L 3250 1097 
L 2631 1097 
L 2631 0 
L 2069 0 
z
M 2069 1613 
L 2069 3678 
L 634 1613 
L 2069 1613 
z
" transform="scale(0.015625)"/>
       </defs>
       <use xlink:href="#ArialMT-34"/>
      </g>
     </g>
    </g>
    <g id="xtick_3">
     <g id="line2d_3"/>
     <g id="text_3">
      <!-- 8 -->
      <g style="fill: #5f5f5f" transform="translate(92.509352 367.064451) scale(0.11 -0.11)">
       <defs>
        <path id="ArialMT-38" d="M 1131 2484 
Q 781 2613 612 2850 
Q 444 3088 444 3419 
Q 444 3919 803 4259 
Q 1163 4600 1759 4600 
Q 2359 4600 2725 4251 
Q 3091 3903 3091 3403 
Q 3091 3084 2923 2848 
Q 2756 2613 2416 2484 
Q 2838 2347 3058 2040 
Q 3278 1734 3278 1309 
Q 3278 722 2862 322 
Q 2447 -78 1769 -78 
Q 1091 -78 675 323 
Q 259 725 259 1325 
Q 259 1772 486 2073 
Q 713 2375 1131 2484 
z
M 1019 3438 
Q 1019 3113 1228 2906 
Q 1438 2700 1772 2700 
Q 2097 2700 2305 2904 
Q 2513 3109 2513 3406 
Q 2513 3716 2298 3927 
Q 2084 4138 1766 4138 
Q 1444 4138 1231 3931 
Q 1019 3725 1019 3438 
z
M 838 1322 
Q 838 1081 952 856 
Q 1066 631 1291 507 
Q 1516 384 1775 384 
Q 2178 384 2440 643 
Q 2703 903 2703 1303 
Q 2703 1709 2433 1975 
Q 2163 2241 1756 2241 
Q 1359 2241 1098 1978 
Q 838 1716 838 1322 
z
" transform="scale(0.015625)"/>
       </defs>
       <use xlink:href="#ArialMT-38"/>
      </g>
     </g>
    </g>
    <g id="xtick_4">
     <g id="line2d_4"/>
     <g id="text_4">
      <!-- 16 -->
      <g style="fill: #5f5f5f" transform="translate(100.151495 367.064451) scale(0.11 -0.11)">
       <defs>
        <path id="ArialMT-36" d="M 3184 3459 
L 2625 3416 
Q 2550 3747 2413 3897 
Q 2184 4138 1850 4138 
Q 1581 4138 1378 3988 
Q 1113 3794 959 3422 
Q 806 3050 800 2363 
Q 1003 2672 1297 2822 
Q 1591 2972 1913 2972 
Q 2475 2972 2870 2558 
Q 3266 2144 3266 1488 
Q 3266 1056 3080 686 
Q 2894 316 2569 119 
Q 2244 -78 1831 -78 
Q 1128 -78 684 439 
Q 241 956 241 2144 
Q 241 3472 731 4075 
Q 1159 4600 1884 4600 
Q 2425 4600 2770 4297 
Q 3116 3994 3184 3459 
z
M 888 1484 
Q 888 1194 1011 928 
Q 1134 663 1356 523 
Q 1578 384 1822 384 
Q 2178 384 2434 671 
Q 2691 959 2691 1453 
Q 2691 1928 2437 2201 
Q 2184 2475 1800 2475 
Q 1419 2475 1153 2201 
Q 888 1928 888 1484 
z
" transform="scale(0.015625)"/>
       </defs>
       <use xlink:href="#ArialMT-31"/>
       <use xlink:href="#ArialMT-36" x="55.615234"/>
      </g>
     </g>
    </g>
    <g id="xtick_5">
     <g id="line2d_5"/>
     <g id="text_5">
      <!-- 32 -->
      <g style="fill: #5f5f5f" transform="translate(121.552811 367.064451) scale(0.11 -0.11)">
       <defs>
        <path id="ArialMT-33" d="M 269 1209 
L 831 1284 
Q 928 806 1161 595 
Q 1394 384 1728 384 
Q 2125 384 2398 659 
Q 2672 934 2672 1341 
Q 2672 1728 2419 1979 
Q 2166 2231 1775 2231 
Q 1616 2231 1378 2169 
L 1441 2663 
Q 1497 2656 1531 2656 
Q 1891 2656 2178 2843 
Q 2466 3031 2466 3422 
Q 2466 3731 2256 3934 
Q 2047 4138 1716 4138 
Q 1388 4138 1169 3931 
Q 950 3725 888 3313 
L 325 3413 
Q 428 3978 793 4289 
Q 1159 4600 1703 4600 
Q 2078 4600 2393 4439 
Q 2709 4278 2876 4000 
Q 3044 3722 3044 3409 
Q 3044 3113 2884 2869 
Q 2725 2625 2413 2481 
Q 2819 2388 3044 2092 
Q 3269 1797 3269 1353 
Q 3269 753 2831 336 
Q 2394 -81 1725 -81 
Q 1122 -81 723 278 
Q 325 638 269 1209 
z
" transform="scale(0.015625)"/>
        <path id="ArialMT-32" d="M 3222 541 
L 3222 0 
L 194 0 
Q 188 203 259 391 
Q 375 700 629 1000 
Q 884 1300 1366 1694 
Q 2113 2306 2375 2664 
Q 2638 3022 2638 3341 
Q 2638 3675 2398 3904 
Q 2159 4134 1775 4134 
Q 1369 4134 1125 3890 
Q 881 3647 878 3216 
L 300 3275 
Q 359 3922 746 4261 
Q 1134 4600 1788 4600 
Q 2447 4600 2831 4234 
Q 3216 3869 3216 3328 
Q 3216 3053 3103 2787 
Q 2991 2522 2730 2228 
Q 2469 1934 1863 1422 
Q 1356 997 1212 845 
Q 1069 694 975 541 
L 3222 541 
z
" transform="scale(0.015625)"/>
       </defs>
       <use xlink:href="#ArialMT-33"/>
       <use xlink:href="#ArialMT-32" x="55.615234"/>
      </g>
     </g>
    </g>
    <g id="xtick_6">
     <g id="line2d_6"/>
     <g id="text_6">
      <!-- 64 -->
      <g style="fill: #5f5f5f" transform="translate(164.355445 367.064451) scale(0.11 -0.11)">
       <use xlink:href="#ArialMT-36"/>
       <use xlink:href="#ArialMT-34" x="55.615234"/>
      </g>
     </g>
    </g>
    <g id="xtick_7">
     <g id="line2d_7"/>
     <g id="text_7">
      <!-- 128 -->
      <g style="fill: #5f5f5f" transform="translate(246.902197 367.064451) scale(0.11 -0.11)">
       <use xlink:href="#ArialMT-31"/>
       <use xlink:href="#ArialMT-32" x="55.615234"/>
       <use xlink:href="#ArialMT-38" x="111.230469"/>
      </g>
     </g>
    </g>
    <g id="xtick_8">
     <g id="line2d_8"/>
     <g id="text_8">
      <!-- 256 -->
      <g style="fill: #5f5f5f" transform="translate(418.112733 367.064451) scale(0.11 -0.11)">
       <defs>
        <path id="ArialMT-35" d="M 266 1200 
L 856 1250 
Q 922 819 1161 601 
Q 1400 384 1738 384 
Q 2144 384 2425 690 
Q 2706 997 2706 1503 
Q 2706 1984 2436 2262 
Q 2166 2541 1728 2541 
Q 1456 2541 1237 2417 
Q 1019 2294 894 2097 
L 366 2166 
L 809 4519 
L 3088 4519 
L 3088 3981 
L 1259 3981 
L 1013 2750 
Q 1425 3038 1878 3038 
Q 2478 3038 2890 2622 
Q 3303 2206 3303 1553 
Q 3303 931 2941 478 
Q 2500 -78 1738 -78 
Q 1113 -78 717 272 
Q 322 622 266 1200 
z
" transform="scale(0.015625)"/>
       </defs>
       <use xlink:href="#ArialMT-32"/>
       <use xlink:href="#ArialMT-35" x="55.615234"/>
       <use xlink:href="#ArialMT-36" x="111.230469"/>
      </g>
     </g>
    </g>
    <g id="text_9">
     <!-- Concurrency -->
     <g style="fill: #5f5f5f" transform="translate(225.075742 391.986326) scale(0.12 -0.12)">
      <defs>
       <path id="ArialMT-43" d="M 3763 1606 
L 4369 1453 
Q 4178 706 3683 314 
Q 3188 -78 2472 -78 
Q 1731 -78 1267 223 
Q 803 525 561 1097 
Q 319 1669 319 2325 
Q 319 3041 592 3573 
Q 866 4106 1370 4382 
Q 1875 4659 2481 4659 
Q 3169 4659 3637 4309 
Q 4106 3959 4291 3325 
L 3694 3184 
Q 3534 3684 3231 3912 
Q 2928 4141 2469 4141 
Q 1941 4141 1586 3887 
Q 1231 3634 1087 3207 
Q 944 2781 944 2328 
Q 944 1744 1114 1308 
Q 1284 872 1643 656 
Q 2003 441 2422 441 
Q 2931 441 3284 734 
Q 3638 1028 3763 1606 
z
" transform="scale(0.015625)"/>
       <path id="ArialMT-6f" d="M 213 1659 
Q 213 2581 725 3025 
Q 1153 3394 1769 3394 
Q 2453 3394 2887 2945 
Q 3322 2497 3322 1706 
Q 3322 1066 3130 698 
Q 2938 331 2570 128 
Q 2203 -75 1769 -75 
Q 1072 -75 642 372 
Q 213 819 213 1659 
z
M 791 1659 
Q 791 1022 1069 705 
Q 1347 388 1769 388 
Q 2188 388 2466 706 
Q 2744 1025 2744 1678 
Q 2744 2294 2464 2611 
Q 2184 2928 1769 2928 
Q 1347 2928 1069 2612 
Q 791 2297 791 1659 
z
" transform="scale(0.015625)"/>
       <path id="ArialMT-6e" d="M 422 0 
L 422 3319 
L 928 3319 
L 928 2847 
Q 1294 3394 1984 3394 
Q 2284 3394 2536 3286 
Q 2788 3178 2913 3003 
Q 3038 2828 3088 2588 
Q 3119 2431 3119 2041 
L 3119 0 
L 2556 0 
L 2556 2019 
Q 2556 2363 2490 2533 
Q 2425 2703 2258 2804 
Q 2091 2906 1866 2906 
Q 1506 2906 1245 2678 
Q 984 2450 984 1813 
L 984 0 
L 422 0 
z
" transform="scale(0.015625)"/>
       <path id="ArialMT-63" d="M 2588 1216 
L 3141 1144 
Q 3050 572 2676 248 
Q 2303 -75 1759 -75 
Q 1078 -75 664 370 
Q 250 816 250 1647 
Q 250 2184 428 2587 
Q 606 2991 970 3192 
Q 1334 3394 1763 3394 
Q 2303 3394 2647 3120 
Q 2991 2847 3088 2344 
L 2541 2259 
Q 2463 2594 2264 2762 
Q 2066 2931 1784 2931 
Q 1359 2931 1093 2626 
Q 828 2322 828 1663 
Q 828 994 1084 691 
Q 1341 388 1753 388 
Q 2084 388 2306 591 
Q 2528 794 2588 1216 
z
" transform="scale(0.015625)"/>
       <path id="ArialMT-75" d="M 2597 0 
L 2597 488 
Q 2209 -75 1544 -75 
Q 1250 -75 995 37 
Q 741 150 617 320 
Q 494 491 444 738 
Q 409 903 409 1263 
L 409 3319 
L 972 3319 
L 972 1478 
Q 972 1038 1006 884 
Q 1059 663 1231 536 
Q 1403 409 1656 409 
Q 1909 409 2131 539 
Q 2353 669 2445 892 
Q 2538 1116 2538 1541 
L 2538 3319 
L 3100 3319 
L 3100 0 
L 2597 0 
z
" transform="scale(0.015625)"/>
       <path id="ArialMT-72" d="M 416 0 
L 416 3319 
L 922 3319 
L 922 2816 
Q 1116 3169 1280 3281 
Q 1444 3394 1641 3394 
Q 1925 3394 2219 3213 
L 2025 2691 
Q 1819 2813 1613 2813 
Q 1428 2813 1281 2702 
Q 1134 2591 1072 2394 
Q 978 2094 978 1738 
L 978 0 
L 416 0 
z
" transform="scale(0.015625)"/>
       <path id="ArialMT-65" d="M 2694 1069 
L 3275 997 
Q 3138 488 2766 206 
Q 2394 -75 1816 -75 
Q 1088 -75 661 373 
Q 234 822 234 1631 
Q 234 2469 665 2931 
Q 1097 3394 1784 3394 
Q 2450 3394 2872 2941 
Q 3294 2488 3294 1666 
Q 3294 1616 3291 1516 
L 816 1516 
Q 847 969 1125 678 
Q 1403 388 1819 388 
Q 2128 388 2347 550 
Q 2566 713 2694 1069 
z
M 847 1978 
L 2700 1978 
Q 2663 2397 2488 2606 
Q 2219 2931 1791 2931 
Q 1403 2931 1139 2672 
Q 875 2413 847 1978 
z
" transform="scale(0.015625)"/>
       <path id="ArialMT-79" d="M 397 -1278 
L 334 -750 
Q 519 -800 656 -800 
Q 844 -800 956 -737 
Q 1069 -675 1141 -563 
Q 1194 -478 1313 -144 
Q 1328 -97 1363 -6 
L 103 3319 
L 709 3319 
L 1400 1397 
Q 1534 1031 1641 628 
Q 1738 1016 1872 1384 
L 2581 3319 
L 3144 3319 
L 1881 -56 
Q 1678 -603 1566 -809 
Q 1416 -1088 1222 -1217 
Q 1028 -1347 759 -1347 
Q 597 -1347 397 -1278 
z
" transform="scale(0.015625)"/>
      </defs>
      <use xlink:href="#ArialMT-43"/>
      <use xlink:href="#ArialMT-6f" x="72.216797"/>
      <use xlink:href="#ArialMT-6e" x="127.832031"/>
      <use xlink:href="#ArialMT-63" x="183.447266"/>
      <use xlink:href="#ArialMT-75" x="233.447266"/>
      <use xlink:href="#ArialMT-72" x="289.0625"/>
      <use xlink:href="#ArialMT-72" x="322.363281"/>
      <use xlink:href="#ArialMT-65" x="355.664062"/>
      <use xlink:href="#ArialMT-6e" x="411.279297"/>
      <use xlink:href="#ArialMT-63" x="466.894531"/>
      <use xlink:href="#ArialMT-79" x="516.894531"/>
     </g>
    </g>
   </g>
   <g id="matplotlib.axis_2">
    <g id="ytick_1">
     <g id="line2d_9">
      <path d="M 85.536 328.558916 
L 432.638609 328.558916 
" clip-path="url(#p4339153633)" style="fill: none; stroke: #e8e8e3; stroke-width: 0.9; stroke-linecap: square"/>
     </g>
     <g id="line2d_10"/>
     <g id="text_10">
      <!-- $\mathdefault{10^{3}}$ -->
      <g style="fill: #5f5f5f" transform="translate(62.266 334.230791) scale(0.11 -0.11)">
       <defs>
        <path id="ArialMT-30" d="M 266 2259 
Q 266 3072 433 3567 
Q 600 4063 929 4331 
Q 1259 4600 1759 4600 
Q 2128 4600 2406 4451 
Q 2684 4303 2865 4023 
Q 3047 3744 3150 3342 
Q 3253 2941 3253 2259 
Q 3253 1453 3087 958 
Q 2922 463 2592 192 
Q 2263 -78 1759 -78 
Q 1097 -78 719 397 
Q 266 969 266 2259 
z
M 844 2259 
Q 844 1131 1108 757 
Q 1372 384 1759 384 
Q 2147 384 2411 759 
Q 2675 1134 2675 2259 
Q 2675 3391 2411 3762 
Q 2147 4134 1753 4134 
Q 1366 4134 1134 3806 
Q 844 3388 844 2259 
z
" transform="scale(0.015625)"/>
       </defs>
       <use xlink:href="#ArialMT-31" transform="translate(0 0.99375)"/>
       <use xlink:href="#ArialMT-30" transform="translate(55.615234 0.99375)"/>
       <use xlink:href="#ArialMT-33" transform="translate(112.972813 70.6875) scale(0.7)"/>
      </g>
     </g>
    </g>
    <g id="ytick_2">
     <g id="line2d_11">
      <defs>
       <path id="m414302ee77" d="M 0 0 
L -2 0 
" style="stroke: #5f5f5f; stroke-width: 0.6"/>
      </defs>
      <g>
       <use xlink:href="#m414302ee77" x="85.536" y="346.244748" style="fill: #5f5f5f; stroke: #5f5f5f; stroke-width: 0.6"/>
      </g>
     </g>
    </g>
    <g id="ytick_3">
     <g id="line2d_12">
      <g>
       <use xlink:href="#m414302ee77" x="85.536" y="212.207119" style="fill: #5f5f5f; stroke: #5f5f5f; stroke-width: 0.6"/>
      </g>
     </g>
     <g id="text_11">
      <!-- $\mathdefault{2\times10^{3}}$ -->
      <g style="fill: #5f5f5f" transform="translate(49.136 217.363369) scale(0.1 -0.1)">
       <defs>
        <path id="ArialMT-d7" d="M 503 1278 
L 1488 2263 
L 506 3244 
L 888 3625 
L 1869 2644 
L 2847 3622 
L 3222 3244 
L 2247 2266 
L 3228 1284 
L 2847 903 
L 1866 1884 
L 881 900 
L 503 1278 
z
" transform="scale(0.015625)"/>
       </defs>
       <use xlink:href="#ArialMT-32" transform="translate(0 0.99375)"/>
       <use xlink:href="#ArialMT-d7" transform="translate(75.097656 0.99375)"/>
       <use xlink:href="#ArialMT-31" transform="translate(152.978516 0.99375)"/>
       <use xlink:href="#ArialMT-30" transform="translate(208.59375 0.99375)"/>
       <use xlink:href="#ArialMT-33" transform="translate(265.951328 70.6875) scale(0.7)"/>
      </g>
     </g>
    </g>
    <g id="ytick_4">
     <g id="line2d_13">
      <g>
       <use xlink:href="#m414302ee77" x="85.536" y="144.145681" style="fill: #5f5f5f; stroke: #5f5f5f; stroke-width: 0.6"/>
      </g>
     </g>
     <g id="text_12">
      <!-- $\mathdefault{3\times10^{3}}$ -->
      <g style="fill: #5f5f5f" transform="translate(49.136 149.301931) scale(0.1 -0.1)">
       <use xlink:href="#ArialMT-33" transform="translate(0 0.99375)"/>
       <use xlink:href="#ArialMT-d7" transform="translate(75.097656 0.99375)"/>
       <use xlink:href="#ArialMT-31" transform="translate(152.978516 0.99375)"/>
       <use xlink:href="#ArialMT-30" transform="translate(208.59375 0.99375)"/>
       <use xlink:href="#ArialMT-33" transform="translate(265.951328 70.6875) scale(0.7)"/>
      </g>
     </g>
    </g>
    <g id="text_13">
     <!-- Total Latency (ms) -->
     <g style="fill: #5f5f5f" transform="translate(34.610375 288.030054) rotate(-90) scale(0.12 -0.12)">
      <defs>
       <path id="ArialMT-54" d="M 1659 0 
L 1659 4041 
L 150 4041 
L 150 4581 
L 3781 4581 
L 3781 4041 
L 2266 4041 
L 2266 0 
L 1659 0 
z
" transform="scale(0.015625)"/>
       <path id="ArialMT-74" d="M 1650 503 
L 1731 6 
Q 1494 -44 1306 -44 
Q 1000 -44 831 53 
Q 663 150 594 308 
Q 525 466 525 972 
L 525 2881 
L 113 2881 
L 113 3319 
L 525 3319 
L 525 4141 
L 1084 4478 
L 1084 3319 
L 1650 3319 
L 1650 2881 
L 1084 2881 
L 1084 941 
Q 1084 700 1114 631 
Q 1144 563 1211 522 
Q 1278 481 1403 481 
Q 1497 481 1650 503 
z
" transform="scale(0.015625)"/>
       <path id="ArialMT-61" d="M 2588 409 
Q 2275 144 1986 34 
Q 1697 -75 1366 -75 
Q 819 -75 525 192 
Q 231 459 231 875 
Q 231 1119 342 1320 
Q 453 1522 633 1644 
Q 813 1766 1038 1828 
Q 1203 1872 1538 1913 
Q 2219 1994 2541 2106 
Q 2544 2222 2544 2253 
Q 2544 2597 2384 2738 
Q 2169 2928 1744 2928 
Q 1347 2928 1158 2789 
Q 969 2650 878 2297 
L 328 2372 
Q 403 2725 575 2942 
Q 747 3159 1072 3276 
Q 1397 3394 1825 3394 
Q 2250 3394 2515 3294 
Q 2781 3194 2906 3042 
Q 3031 2891 3081 2659 
Q 3109 2516 3109 2141 
L 3109 1391 
Q 3109 606 3145 398 
Q 3181 191 3288 0 
L 2700 0 
Q 2613 175 2588 409 
z
M 2541 1666 
Q 2234 1541 1622 1453 
Q 1275 1403 1131 1340 
Q 988 1278 909 1158 
Q 831 1038 831 891 
Q 831 666 1001 516 
Q 1172 366 1500 366 
Q 1825 366 2078 508 
Q 2331 650 2450 897 
Q 2541 1088 2541 1459 
L 2541 1666 
z
" transform="scale(0.015625)"/>
       <path id="ArialMT-6c" d="M 409 0 
L 409 4581 
L 972 4581 
L 972 0 
L 409 0 
z
" transform="scale(0.015625)"/>
       <path id="ArialMT-20" transform="scale(0.015625)"/>
       <path id="ArialMT-4c" d="M 469 0 
L 469 4581 
L 1075 4581 
L 1075 541 
L 3331 541 
L 3331 0 
L 469 0 
z
" transform="scale(0.015625)"/>
       <path id="ArialMT-28" d="M 1497 -1347 
Q 1031 -759 709 28 
Q 388 816 388 1659 
Q 388 2403 628 3084 
Q 909 3875 1497 4659 
L 1900 4659 
Q 1522 4009 1400 3731 
Q 1209 3300 1100 2831 
Q 966 2247 966 1656 
Q 966 153 1900 -1347 
L 1497 -1347 
z
" transform="scale(0.015625)"/>
       <path id="ArialMT-6d" d="M 422 0 
L 422 3319 
L 925 3319 
L 925 2853 
Q 1081 3097 1340 3245 
Q 1600 3394 1931 3394 
Q 2300 3394 2536 3241 
Q 2772 3088 2869 2813 
Q 3263 3394 3894 3394 
Q 4388 3394 4653 3120 
Q 4919 2847 4919 2278 
L 4919 0 
L 4359 0 
L 4359 2091 
Q 4359 2428 4304 2576 
Q 4250 2725 4106 2815 
Q 3963 2906 3769 2906 
Q 3419 2906 3187 2673 
Q 2956 2441 2956 1928 
L 2956 0 
L 2394 0 
L 2394 2156 
Q 2394 2531 2256 2718 
Q 2119 2906 1806 2906 
Q 1569 2906 1367 2781 
Q 1166 2656 1075 2415 
Q 984 2175 984 1722 
L 984 0 
L 422 0 
z
" transform="scale(0.015625)"/>
       <path id="ArialMT-73" d="M 197 991 
L 753 1078 
Q 800 744 1014 566 
Q 1228 388 1613 388 
Q 2000 388 2187 545 
Q 2375 703 2375 916 
Q 2375 1106 2209 1216 
Q 2094 1291 1634 1406 
Q 1016 1563 777 1677 
Q 538 1791 414 1992 
Q 291 2194 291 2438 
Q 291 2659 392 2848 
Q 494 3038 669 3163 
Q 800 3259 1026 3326 
Q 1253 3394 1513 3394 
Q 1903 3394 2198 3281 
Q 2494 3169 2634 2976 
Q 2775 2784 2828 2463 
L 2278 2388 
Q 2241 2644 2061 2787 
Q 1881 2931 1553 2931 
Q 1166 2931 1000 2803 
Q 834 2675 834 2503 
Q 834 2394 903 2306 
Q 972 2216 1119 2156 
Q 1203 2125 1616 2013 
Q 2213 1853 2448 1751 
Q 2684 1650 2818 1456 
Q 2953 1263 2953 975 
Q 2953 694 2789 445 
Q 2625 197 2315 61 
Q 2006 -75 1616 -75 
Q 969 -75 630 194 
Q 291 463 197 991 
z
" transform="scale(0.015625)"/>
       <path id="ArialMT-29" d="M 791 -1347 
L 388 -1347 
Q 1322 153 1322 1656 
Q 1322 2244 1188 2822 
Q 1081 3291 891 3722 
Q 769 4003 388 4659 
L 791 4659 
Q 1378 3875 1659 3084 
Q 1900 2403 1900 1659 
Q 1900 816 1576 28 
Q 1253 -759 791 -1347 
z
" transform="scale(0.015625)"/>
      </defs>
      <use xlink:href="#ArialMT-54"/>
      <use xlink:href="#ArialMT-6f" x="49.958984"/>
      <use xlink:href="#ArialMT-74" x="105.574219"/>
      <use xlink:href="#ArialMT-61" x="133.357422"/>
      <use xlink:href="#ArialMT-6c" x="188.972656"/>
      <use xlink:href="#ArialMT-20" x="211.189453"/>
      <use xlink:href="#ArialMT-4c" x="238.972656"/>
      <use xlink:href="#ArialMT-61" x="294.587891"/>
      <use xlink:href="#ArialMT-74" x="350.203125"/>
      <use xlink:href="#ArialMT-65" x="377.986328"/>
      <use xlink:href="#ArialMT-6e" x="433.601562"/>
      <use xlink:href="#ArialMT-63" x="489.216797"/>
      <use xlink:href="#ArialMT-79" x="539.216797"/>
      <use xlink:href="#ArialMT-20" x="589.216797"/>
      <use xlink:href="#ArialMT-28" x="617"/>
      <use xlink:href="#ArialMT-6d" x="650.300781"/>
      <use xlink:href="#ArialMT-73" x="733.601562"/>
      <use xlink:href="#ArialMT-29" x="783.601562"/>
     </g>
    </g>
   </g>
   <g id="line2d_14">
    <path d="M 86.204791 171.502681 
L 90.217538 163.075706 
L 95.567867 161.728886 
L 106.268526 158.896818 
L 127.669843 145.517911 
L 170.472477 135.227221 
" clip-path="url(#p4339153633)" style="fill: none; stroke: #5c6470; stroke-width: 2.6; stroke-linecap: round"/>
   </g>
   <g id="line2d_15">
    <path d="M 86.204791 341.923317 
L 90.217538 335.77871 
L 95.567867 333.301353 
L 106.268526 328.554108 
L 127.669843 305.943025 
L 170.472477 282.578132 
L 256.077744 236.385277 
L 427.288279 235.372709 
" clip-path="url(#p4339153633)" style="fill: none; stroke: #9f6b32; stroke-width: 2.6; stroke-linecap: round"/>
   </g>
   <g id="line2d_16">
    <path d="M 86.204791 342.811636 
L 90.217538 337.364273 
L 95.567867 335.095062 
L 106.268526 329.576963 
L 127.669843 304.894851 
L 170.472477 287.30699 
L 256.077744 240.811338 
L 427.288279 244.058636 
" clip-path="url(#p4339153633)" style="fill: none; stroke: #4f7768; stroke-width: 2.6; stroke-linecap: round"/>
   </g>
   <g id="patch_3">
    <path d="M 85.536 353.190857 
L 85.536 124.848 
" style="fill: none; stroke: #d9d9d2; stroke-width: 0.8; stroke-linejoin: miter; stroke-linecap: square"/>
   </g>
   <g id="patch_4">
    <path d="M 85.536 353.190857 
L 432.638609 353.190857 
" style="fill: none; stroke: #d9d9d2; stroke-width: 0.8; stroke-linejoin: miter; stroke-linecap: square"/>
   </g>
   <g id="text_14">
    <!-- Total latency -->
    <g style="fill: #171717" transform="translate(85.536 114.848) scale(0.13 -0.13)">
     <defs>
      <path id="Arial-BoldMT-54" d="M 1497 0 
L 1497 3806 
L 138 3806 
L 138 4581 
L 3778 4581 
L 3778 3806 
L 2422 3806 
L 2422 0 
L 1497 0 
z
" transform="scale(0.015625)"/>
      <path id="Arial-BoldMT-6f" d="M 256 1706 
Q 256 2144 472 2553 
Q 688 2963 1083 3178 
Q 1478 3394 1966 3394 
Q 2719 3394 3200 2905 
Q 3681 2416 3681 1669 
Q 3681 916 3195 420 
Q 2709 -75 1972 -75 
Q 1516 -75 1102 131 
Q 688 338 472 736 
Q 256 1134 256 1706 
z
M 1156 1659 
Q 1156 1166 1390 903 
Q 1625 641 1969 641 
Q 2313 641 2545 903 
Q 2778 1166 2778 1666 
Q 2778 2153 2545 2415 
Q 2313 2678 1969 2678 
Q 1625 2678 1390 2415 
Q 1156 2153 1156 1659 
z
" transform="scale(0.015625)"/>
      <path id="Arial-BoldMT-74" d="M 1981 3319 
L 1981 2619 
L 1381 2619 
L 1381 1281 
Q 1381 875 1398 808 
Q 1416 741 1477 697 
Q 1538 653 1625 653 
Q 1747 653 1978 738 
L 2053 56 
Q 1747 -75 1359 -75 
Q 1122 -75 931 4 
Q 741 84 652 211 
Q 563 338 528 553 
Q 500 706 500 1172 
L 500 2619 
L 97 2619 
L 97 3319 
L 500 3319 
L 500 3978 
L 1381 4491 
L 1381 3319 
L 1981 3319 
z
" transform="scale(0.015625)"/>
      <path id="Arial-BoldMT-61" d="M 1116 2306 
L 319 2450 
Q 453 2931 781 3162 
Q 1109 3394 1756 3394 
Q 2344 3394 2631 3255 
Q 2919 3116 3036 2902 
Q 3153 2688 3153 2116 
L 3144 1091 
Q 3144 653 3186 445 
Q 3228 238 3344 0 
L 2475 0 
Q 2441 88 2391 259 
Q 2369 338 2359 363 
Q 2134 144 1878 34 
Q 1622 -75 1331 -75 
Q 819 -75 523 203 
Q 228 481 228 906 
Q 228 1188 362 1408 
Q 497 1628 739 1745 
Q 981 1863 1438 1950 
Q 2053 2066 2291 2166 
L 2291 2253 
Q 2291 2506 2166 2614 
Q 2041 2722 1694 2722 
Q 1459 2722 1328 2630 
Q 1197 2538 1116 2306 
z
M 2291 1594 
Q 2122 1538 1756 1459 
Q 1391 1381 1278 1306 
Q 1106 1184 1106 997 
Q 1106 813 1243 678 
Q 1381 544 1594 544 
Q 1831 544 2047 700 
Q 2206 819 2256 991 
Q 2291 1103 2291 1419 
L 2291 1594 
z
" transform="scale(0.015625)"/>
      <path id="Arial-BoldMT-6c" d="M 459 0 
L 459 4581 
L 1338 4581 
L 1338 0 
L 459 0 
z
" transform="scale(0.015625)"/>
      <path id="Arial-BoldMT-20" transform="scale(0.015625)"/>
      <path id="Arial-BoldMT-65" d="M 2381 1056 
L 3256 909 
Q 3088 428 2723 176 
Q 2359 -75 1813 -75 
Q 947 -75 531 491 
Q 203 944 203 1634 
Q 203 2459 634 2926 
Q 1066 3394 1725 3394 
Q 2466 3394 2894 2905 
Q 3322 2416 3303 1406 
L 1103 1406 
Q 1113 1016 1316 798 
Q 1519 581 1822 581 
Q 2028 581 2168 693 
Q 2309 806 2381 1056 
z
M 2431 1944 
Q 2422 2325 2234 2523 
Q 2047 2722 1778 2722 
Q 1491 2722 1303 2513 
Q 1116 2303 1119 1944 
L 2431 1944 
z
" transform="scale(0.015625)"/>
      <path id="Arial-BoldMT-6e" d="M 3478 0 
L 2600 0 
L 2600 1694 
Q 2600 2231 2544 2389 
Q 2488 2547 2361 2634 
Q 2234 2722 2056 2722 
Q 1828 2722 1647 2597 
Q 1466 2472 1398 2265 
Q 1331 2059 1331 1503 
L 1331 0 
L 453 0 
L 453 3319 
L 1269 3319 
L 1269 2831 
Q 1703 3394 2363 3394 
Q 2653 3394 2893 3289 
Q 3134 3184 3257 3021 
Q 3381 2859 3429 2653 
Q 3478 2447 3478 2063 
L 3478 0 
z
" transform="scale(0.015625)"/>
      <path id="Arial-BoldMT-63" d="M 3353 2338 
L 2488 2181 
Q 2444 2441 2289 2572 
Q 2134 2703 1888 2703 
Q 1559 2703 1364 2476 
Q 1169 2250 1169 1719 
Q 1169 1128 1367 884 
Q 1566 641 1900 641 
Q 2150 641 2309 783 
Q 2469 925 2534 1272 
L 3397 1125 
Q 3263 531 2881 228 
Q 2500 -75 1859 -75 
Q 1131 -75 698 384 
Q 266 844 266 1656 
Q 266 2478 700 2936 
Q 1134 3394 1875 3394 
Q 2481 3394 2839 3133 
Q 3197 2872 3353 2338 
z
" transform="scale(0.015625)"/>
      <path id="Arial-BoldMT-79" d="M 44 3319 
L 978 3319 
L 1772 963 
L 2547 3319 
L 3456 3319 
L 2284 125 
L 2075 -453 
Q 1959 -744 1854 -897 
Q 1750 -1050 1614 -1145 
Q 1478 -1241 1279 -1294 
Q 1081 -1347 831 -1347 
Q 578 -1347 334 -1294 
L 256 -606 
Q 463 -647 628 -647 
Q 934 -647 1081 -467 
Q 1228 -288 1306 -9 
L 44 3319 
z
" transform="scale(0.015625)"/>
     </defs>
     <use xlink:href="#Arial-BoldMT-54"/>
     <use xlink:href="#Arial-BoldMT-6f" x="53.708984"/>
     <use xlink:href="#Arial-BoldMT-74" x="114.792969"/>
     <use xlink:href="#Arial-BoldMT-61" x="148.09375"/>
     <use xlink:href="#Arial-BoldMT-6c" x="203.708984"/>
     <use xlink:href="#Arial-BoldMT-20" x="231.492188"/>
     <use xlink:href="#Arial-BoldMT-6c" x="259.275391"/>
     <use xlink:href="#Arial-BoldMT-61" x="287.058594"/>
     <use xlink:href="#Arial-BoldMT-74" x="342.673828"/>
     <use xlink:href="#Arial-BoldMT-65" x="375.974609"/>
     <use xlink:href="#Arial-BoldMT-6e" x="431.589844"/>
     <use xlink:href="#Arial-BoldMT-63" x="492.673828"/>
     <use xlink:href="#Arial-BoldMT-79" x="548.289062"/>
    </g>
   </g>
  </g>
  <g id="axes_2">
   <g id="patch_5">
    <path d="M 536.769391 353.190857 
L 883.872 353.190857 
L 883.872 124.848 
L 536.769391 124.848 
L 536.769391 353.190857 
z
" style="fill: none"/>
   </g>
   <g id="matplotlib.axis_3">
    <g id="xtick_9">
     <g id="line2d_17"/>
     <g id="text_15">
      <!-- 1 -->
      <g style="fill: #5f5f5f" transform="translate(534.379667 367.064451) scale(0.11 -0.11)">
       <use xlink:href="#ArialMT-31"/>
      </g>
     </g>
    </g>
    <g id="xtick_10">
     <g id="line2d_18"/>
     <g id="text_16">
      <!-- 4 -->
      <g style="fill: #5f5f5f" transform="translate(538.392414 367.064451) scale(0.11 -0.11)">
       <use xlink:href="#ArialMT-34"/>
      </g>
     </g>
    </g>
    <g id="xtick_11">
     <g id="line2d_19"/>
     <g id="text_17">
      <!-- 8 -->
      <g style="fill: #5f5f5f" transform="translate(543.742743 367.064451) scale(0.11 -0.11)">
       <use xlink:href="#ArialMT-38"/>
      </g>
     </g>
    </g>
    <g id="xtick_12">
     <g id="line2d_20"/>
     <g id="text_18">
      <!-- 16 -->
      <g style="fill: #5f5f5f" transform="translate(551.384886 367.064451) scale(0.11 -0.11)">
       <use xlink:href="#ArialMT-31"/>
       <use xlink:href="#ArialMT-36" x="55.615234"/>
      </g>
     </g>
    </g>
    <g id="xtick_13">
     <g id="line2d_21"/>
     <g id="text_19">
      <!-- 32 -->
      <g style="fill: #5f5f5f" transform="translate(572.786203 367.064451) scale(0.11 -0.11)">
       <use xlink:href="#ArialMT-33"/>
       <use xlink:href="#ArialMT-32" x="55.615234"/>
      </g>
     </g>
    </g>
    <g id="xtick_14">
     <g id="line2d_22"/>
     <g id="text_20">
      <!-- 64 -->
      <g style="fill: #5f5f5f" transform="translate(615.588837 367.064451) scale(0.11 -0.11)">
       <use xlink:href="#ArialMT-36"/>
       <use xlink:href="#ArialMT-34" x="55.615234"/>
      </g>
     </g>
    </g>
    <g id="xtick_15">
     <g id="line2d_23"/>
     <g id="text_21">
      <!-- 128 -->
      <g style="fill: #5f5f5f" transform="translate(698.135589 367.064451) scale(0.11 -0.11)">
       <use xlink:href="#ArialMT-31"/>
       <use xlink:href="#ArialMT-32" x="55.615234"/>
       <use xlink:href="#ArialMT-38" x="111.230469"/>
      </g>
     </g>
    </g>
    <g id="xtick_16">
     <g id="line2d_24"/>
     <g id="text_22">
      <!-- 256 -->
      <g style="fill: #5f5f5f" transform="translate(869.346124 367.064451) scale(0.11 -0.11)">
       <use xlink:href="#ArialMT-32"/>
       <use xlink:href="#ArialMT-35" x="55.615234"/>
       <use xlink:href="#ArialMT-36" x="111.230469"/>
      </g>
     </g>
    </g>
    <g id="text_23">
     <!-- Concurrency -->
     <g style="fill: #5f5f5f" transform="translate(676.309133 391.986326) scale(0.12 -0.12)">
      <use xlink:href="#ArialMT-43"/>
      <use xlink:href="#ArialMT-6f" x="72.216797"/>
      <use xlink:href="#ArialMT-6e" x="127.832031"/>
      <use xlink:href="#ArialMT-63" x="183.447266"/>
      <use xlink:href="#ArialMT-75" x="233.447266"/>
      <use xlink:href="#ArialMT-72" x="289.0625"/>
      <use xlink:href="#ArialMT-72" x="322.363281"/>
      <use xlink:href="#ArialMT-65" x="355.664062"/>
      <use xlink:href="#ArialMT-6e" x="411.279297"/>
      <use xlink:href="#ArialMT-63" x="466.894531"/>
      <use xlink:href="#ArialMT-79" x="516.894531"/>
     </g>
    </g>
   </g>
   <g id="matplotlib.axis_4">
    <g id="ytick_5">
     <g id="line2d_25">
      <g>
       <use xlink:href="#m414302ee77" x="536.769391" y="285.879092" style="fill: #5f5f5f; stroke: #5f5f5f; stroke-width: 0.6"/>
      </g>
     </g>
     <g id="text_24">
      <!-- $\mathdefault{2\times10^{1}}$ -->
      <g style="fill: #5f5f5f" transform="translate(500.369391 291.035342) scale(0.1 -0.1)">
       <use xlink:href="#ArialMT-32" transform="translate(0 0.99375)"/>
       <use xlink:href="#ArialMT-d7" transform="translate(75.097656 0.99375)"/>
       <use xlink:href="#ArialMT-31" transform="translate(152.978516 0.99375)"/>
       <use xlink:href="#ArialMT-30" transform="translate(208.59375 0.99375)"/>
       <use xlink:href="#ArialMT-31" transform="translate(265.951328 70.6875) scale(0.7)"/>
      </g>
     </g>
    </g>
    <g id="ytick_6">
     <g id="line2d_26">
      <g>
       <use xlink:href="#m414302ee77" x="536.769391" y="217.288801" style="fill: #5f5f5f; stroke: #5f5f5f; stroke-width: 0.6"/>
      </g>
     </g>
     <g id="text_25">
      <!-- $\mathdefault{3\times10^{1}}$ -->
      <g style="fill: #5f5f5f" transform="translate(500.369391 222.445051) scale(0.1 -0.1)">
       <use xlink:href="#ArialMT-33" transform="translate(0 0.99375)"/>
       <use xlink:href="#ArialMT-d7" transform="translate(75.097656 0.99375)"/>
       <use xlink:href="#ArialMT-31" transform="translate(152.978516 0.99375)"/>
       <use xlink:href="#ArialMT-30" transform="translate(208.59375 0.99375)"/>
       <use xlink:href="#ArialMT-31" transform="translate(265.951328 70.6875) scale(0.7)"/>
      </g>
     </g>
    </g>
    <g id="ytick_7">
     <g id="line2d_27">
      <g>
       <use xlink:href="#m414302ee77" x="536.769391" y="168.623215" style="fill: #5f5f5f; stroke: #5f5f5f; stroke-width: 0.6"/>
      </g>
     </g>
     <g id="text_26">
      <!-- $\mathdefault{4\times10^{1}}$ -->
      <g style="fill: #5f5f5f" transform="translate(500.369391 173.779465) scale(0.1 -0.1)">
       <use xlink:href="#ArialMT-34" transform="translate(0 0.99375)"/>
       <use xlink:href="#ArialMT-d7" transform="translate(75.097656 0.99375)"/>
       <use xlink:href="#ArialMT-31" transform="translate(152.978516 0.99375)"/>
       <use xlink:href="#ArialMT-30" transform="translate(208.59375 0.99375)"/>
       <use xlink:href="#ArialMT-31" transform="translate(265.951328 70.6875) scale(0.7)"/>
      </g>
     </g>
    </g>
    <g id="ytick_8">
     <g id="line2d_28">
      <g>
       <use xlink:href="#m414302ee77" x="536.769391" y="130.875254" style="fill: #5f5f5f; stroke: #5f5f5f; stroke-width: 0.6"/>
      </g>
     </g>
    </g>
    <g id="text_27">
     <!-- Inter-token Latency (ms) -->
     <g style="fill: #5f5f5f" transform="translate(485.843766 304.038804) rotate(-90) scale(0.12 -0.12)">
      <defs>
       <path id="ArialMT-49" d="M 597 0 
L 597 4581 
L 1203 4581 
L 1203 0 
L 597 0 
z
" transform="scale(0.015625)"/>
       <path id="ArialMT-2d" d="M 203 1375 
L 203 1941 
L 1931 1941 
L 1931 1375 
L 203 1375 
z
" transform="scale(0.015625)"/>
       <path id="ArialMT-6b" d="M 425 0 
L 425 4581 
L 988 4581 
L 988 1969 
L 2319 3319 
L 3047 3319 
L 1778 2088 
L 3175 0 
L 2481 0 
L 1384 1697 
L 988 1316 
L 988 0 
L 425 0 
z
" transform="scale(0.015625)"/>
      </defs>
      <use xlink:href="#ArialMT-49"/>
      <use xlink:href="#ArialMT-6e" x="27.783203"/>
      <use xlink:href="#ArialMT-74" x="83.398438"/>
      <use xlink:href="#ArialMT-65" x="111.181641"/>
      <use xlink:href="#ArialMT-72" x="166.796875"/>
      <use xlink:href="#ArialMT-2d" x="200.097656"/>
      <use xlink:href="#ArialMT-74" x="233.398438"/>
      <use xlink:href="#ArialMT-6f" x="261.181641"/>
      <use xlink:href="#ArialMT-6b" x="316.796875"/>
      <use xlink:href="#ArialMT-65" x="366.796875"/>
      <use xlink:href="#ArialMT-6e" x="422.412109"/>
      <use xlink:href="#ArialMT-20" x="478.027344"/>
      <use xlink:href="#ArialMT-4c" x="505.810547"/>
      <use xlink:href="#ArialMT-61" x="561.425781"/>
      <use xlink:href="#ArialMT-74" x="617.041016"/>
      <use xlink:href="#ArialMT-65" x="644.824219"/>
      <use xlink:href="#ArialMT-6e" x="700.439453"/>
      <use xlink:href="#ArialMT-63" x="756.054688"/>
      <use xlink:href="#ArialMT-79" x="806.054688"/>
      <use xlink:href="#ArialMT-20" x="856.054688"/>
      <use xlink:href="#ArialMT-28" x="883.837891"/>
      <use xlink:href="#ArialMT-6d" x="917.138672"/>
      <use xlink:href="#ArialMT-73" x="1000.439453"/>
      <use xlink:href="#ArialMT-29" x="1050.439453"/>
     </g>
    </g>
   </g>
   <g id="line2d_29">
    <path d="M 537.438182 169.74595 
L 541.450929 162.805939 
L 546.801259 161.305863 
L 557.501917 158.862066 
L 578.903234 145.554138 
L 621.705868 135.227221 
" clip-path="url(#p0d83513a75)" style="fill: none; stroke: #5c6470; stroke-width: 2.6; stroke-linecap: round"/>
   </g>
   <g id="line2d_30">
    <path d="M 537.438182 341.899788 
L 541.450929 337.316045 
L 546.801259 335.151297 
L 557.501917 331.093273 
L 578.903234 308.351623 
L 621.705868 287.177196 
L 707.311135 239.235242 
L 878.521671 240.885449 
" clip-path="url(#p0d83513a75)" style="fill: none; stroke: #9f6b32; stroke-width: 2.6; stroke-linecap: round"/>
   </g>
   <g id="line2d_31">
    <path d="M 537.438182 342.811636 
L 541.450929 338.383819 
L 546.801259 336.432294 
L 557.501917 331.957583 
L 578.903234 307.201687 
L 621.705868 290.891748 
L 707.311135 246.220731 
L 878.521671 247.436544 
" clip-path="url(#p0d83513a75)" style="fill: none; stroke: #4f7768; stroke-width: 2.6; stroke-linecap: round"/>
   </g>
   <g id="patch_6">
    <path d="M 536.769391 353.190857 
L 536.769391 124.848 
" style="fill: none; stroke: #d9d9d2; stroke-width: 0.8; stroke-linejoin: miter; stroke-linecap: square"/>
   </g>
   <g id="patch_7">
    <path d="M 536.769391 353.190857 
L 883.872 353.190857 
" style="fill: none; stroke: #d9d9d2; stroke-width: 0.8; stroke-linejoin: miter; stroke-linecap: square"/>
   </g>
   <g id="text_28">
    <!-- Inter-token latency -->
    <g style="fill: #171717" transform="translate(536.769391 114.848) scale(0.13 -0.13)">
     <defs>
      <path id="Arial-BoldMT-49" d="M 438 0 
L 438 4581 
L 1363 4581 
L 1363 0 
L 438 0 
z
" transform="scale(0.015625)"/>
      <path id="Arial-BoldMT-72" d="M 1300 0 
L 422 0 
L 422 3319 
L 1238 3319 
L 1238 2847 
Q 1447 3181 1614 3287 
Q 1781 3394 1994 3394 
Q 2294 3394 2572 3228 
L 2300 2463 
Q 2078 2606 1888 2606 
Q 1703 2606 1575 2504 
Q 1447 2403 1373 2137 
Q 1300 1872 1300 1025 
L 1300 0 
z
" transform="scale(0.015625)"/>
      <path id="Arial-BoldMT-2d" d="M 359 1222 
L 359 2100 
L 2084 2100 
L 2084 1222 
L 359 1222 
z
" transform="scale(0.015625)"/>
      <path id="Arial-BoldMT-6b" d="M 428 0 
L 428 4581 
L 1306 4581 
L 1306 2150 
L 2334 3319 
L 3416 3319 
L 2281 2106 
L 3497 0 
L 2550 0 
L 1716 1491 
L 1306 1063 
L 1306 0 
L 428 0 
z
" transform="scale(0.015625)"/>
     </defs>
     <use xlink:href="#Arial-BoldMT-49"/>
     <use xlink:href="#Arial-BoldMT-6e" x="27.783203"/>
     <use xlink:href="#Arial-BoldMT-74" x="88.867188"/>
     <use xlink:href="#Arial-BoldMT-65" x="122.167969"/>
     <use xlink:href="#Arial-BoldMT-72" x="177.783203"/>
     <use xlink:href="#Arial-BoldMT-2d" x="216.699219"/>
     <use xlink:href="#Arial-BoldMT-74" x="250"/>
     <use xlink:href="#Arial-BoldMT-6f" x="283.300781"/>
     <use xlink:href="#Arial-BoldMT-6b" x="344.384766"/>
     <use xlink:href="#Arial-BoldMT-65" x="400"/>
     <use xlink:href="#Arial-BoldMT-6e" x="455.615234"/>
     <use xlink:href="#Arial-BoldMT-20" x="516.699219"/>
     <use xlink:href="#Arial-BoldMT-6c" x="544.482422"/>
     <use xlink:href="#Arial-BoldMT-61" x="572.265625"/>
     <use xlink:href="#Arial-BoldMT-74" x="627.880859"/>
     <use xlink:href="#Arial-BoldMT-65" x="661.181641"/>
     <use xlink:href="#Arial-BoldMT-6e" x="716.796875"/>
     <use xlink:href="#Arial-BoldMT-63" x="777.880859"/>
     <use xlink:href="#Arial-BoldMT-79" x="833.496094"/>
    </g>
   </g>
  </g>
  <g id="axes_3">
   <g id="patch_8">
    <path d="M 85.536 668.304 
L 432.638609 668.304 
L 432.638609 439.961143 
L 85.536 439.961143 
L 85.536 668.304 
z
" style="fill: none"/>
   </g>
   <g id="matplotlib.axis_5">
    <g id="xtick_17">
     <g id="line2d_32"/>
     <g id="text_29">
      <!-- 1 -->
      <g style="fill: #5f5f5f" transform="translate(83.146276 682.177594) scale(0.11 -0.11)">
       <use xlink:href="#ArialMT-31"/>
      </g>
     </g>
    </g>
    <g id="xtick_18">
     <g id="line2d_33"/>
     <g id="text_30">
      <!-- 4 -->
      <g style="fill: #5f5f5f" transform="translate(87.159022 682.177594) scale(0.11 -0.11)">
       <use xlink:href="#ArialMT-34"/>
      </g>
     </g>
    </g>
    <g id="xtick_19">
     <g id="line2d_34"/>
     <g id="text_31">
      <!-- 8 -->
      <g style="fill: #5f5f5f" transform="translate(92.509352 682.177594) scale(0.11 -0.11)">
       <use xlink:href="#ArialMT-38"/>
      </g>
     </g>
    </g>
    <g id="xtick_20">
     <g id="line2d_35"/>
     <g id="text_32">
      <!-- 16 -->
      <g style="fill: #5f5f5f" transform="translate(100.151495 682.177594) scale(0.11 -0.11)">
       <use xlink:href="#ArialMT-31"/>
       <use xlink:href="#ArialMT-36" x="55.615234"/>
      </g>
     </g>
    </g>
    <g id="xtick_21">
     <g id="line2d_36"/>
     <g id="text_33">
      <!-- 32 -->
      <g style="fill: #5f5f5f" transform="translate(121.552811 682.177594) scale(0.11 -0.11)">
       <use xlink:href="#ArialMT-33"/>
       <use xlink:href="#ArialMT-32" x="55.615234"/>
      </g>
     </g>
    </g>
    <g id="xtick_22">
     <g id="line2d_37"/>
     <g id="text_34">
      <!-- 64 -->
      <g style="fill: #5f5f5f" transform="translate(164.355445 682.177594) scale(0.11 -0.11)">
       <use xlink:href="#ArialMT-36"/>
       <use xlink:href="#ArialMT-34" x="55.615234"/>
      </g>
     </g>
    </g>
    <g id="xtick_23">
     <g id="line2d_38"/>
     <g id="text_35">
      <!-- 128 -->
      <g style="fill: #5f5f5f" transform="translate(246.902197 682.177594) scale(0.11 -0.11)">
       <use xlink:href="#ArialMT-31"/>
       <use xlink:href="#ArialMT-32" x="55.615234"/>
       <use xlink:href="#ArialMT-38" x="111.230469"/>
      </g>
     </g>
    </g>
    <g id="xtick_24">
     <g id="line2d_39"/>
     <g id="text_36">
      <!-- 256 -->
      <g style="fill: #5f5f5f" transform="translate(418.112733 682.177594) scale(0.11 -0.11)">
       <use xlink:href="#ArialMT-32"/>
       <use xlink:href="#ArialMT-35" x="55.615234"/>
       <use xlink:href="#ArialMT-36" x="111.230469"/>
      </g>
     </g>
    </g>
    <g id="text_37">
     <!-- Concurrency -->
     <g style="fill: #5f5f5f" transform="translate(225.075742 707.099469) scale(0.12 -0.12)">
      <use xlink:href="#ArialMT-43"/>
      <use xlink:href="#ArialMT-6f" x="72.216797"/>
      <use xlink:href="#ArialMT-6e" x="127.832031"/>
      <use xlink:href="#ArialMT-63" x="183.447266"/>
      <use xlink:href="#ArialMT-75" x="233.447266"/>
      <use xlink:href="#ArialMT-72" x="289.0625"/>
      <use xlink:href="#ArialMT-72" x="322.363281"/>
      <use xlink:href="#ArialMT-65" x="355.664062"/>
      <use xlink:href="#ArialMT-6e" x="411.279297"/>
      <use xlink:href="#ArialMT-63" x="466.894531"/>
      <use xlink:href="#ArialMT-79" x="516.894531"/>
     </g>
    </g>
   </g>
   <g id="matplotlib.axis_6">
    <g id="ytick_9">
     <g id="line2d_40">
      <path d="M 85.536 659.688216 
L 432.638609 659.688216 
" clip-path="url(#p52c4774871)" style="fill: none; stroke: #e8e8e3; stroke-width: 0.9; stroke-linecap: square"/>
     </g>
     <g id="line2d_41"/>
     <g id="text_38">
      <!-- 0 -->
      <g style="fill: #5f5f5f" transform="translate(73.418969 663.625013) scale(0.11 -0.11)">
       <use xlink:href="#ArialMT-30"/>
      </g>
     </g>
    </g>
    <g id="ytick_10">
     <g id="line2d_42">
      <path d="M 85.536 624.080704 
L 432.638609 624.080704 
" clip-path="url(#p52c4774871)" style="fill: none; stroke: #e8e8e3; stroke-width: 0.9; stroke-linecap: square"/>
     </g>
     <g id="line2d_43"/>
     <g id="text_39">
      <!-- 500 -->
      <g style="fill: #5f5f5f" transform="translate(61.184906 628.017501) scale(0.11 -0.11)">
       <use xlink:href="#ArialMT-35"/>
       <use xlink:href="#ArialMT-30" x="55.615234"/>
       <use xlink:href="#ArialMT-30" x="111.230469"/>
      </g>
     </g>
    </g>
    <g id="ytick_11">
     <g id="line2d_44">
      <path d="M 85.536 588.473191 
L 432.638609 588.473191 
" clip-path="url(#p52c4774871)" style="fill: none; stroke: #e8e8e3; stroke-width: 0.9; stroke-linecap: square"/>
     </g>
     <g id="line2d_45"/>
     <g id="text_40">
      <!-- 1000 -->
      <g style="fill: #5f5f5f" transform="translate(55.067875 592.409988) scale(0.11 -0.11)">
       <use xlink:href="#ArialMT-31"/>
       <use xlink:href="#ArialMT-30" x="55.615234"/>
       <use xlink:href="#ArialMT-30" x="111.230469"/>
       <use xlink:href="#ArialMT-30" x="166.845703"/>
      </g>
     </g>
    </g>
    <g id="ytick_12">
     <g id="line2d_46">
      <path d="M 85.536 552.865679 
L 432.638609 552.865679 
" clip-path="url(#p52c4774871)" style="fill: none; stroke: #e8e8e3; stroke-width: 0.9; stroke-linecap: square"/>
     </g>
     <g id="line2d_47"/>
     <g id="text_41">
      <!-- 1500 -->
      <g style="fill: #5f5f5f" transform="translate(55.067875 556.802476) scale(0.11 -0.11)">
       <use xlink:href="#ArialMT-31"/>
       <use xlink:href="#ArialMT-35" x="55.615234"/>
       <use xlink:href="#ArialMT-30" x="111.230469"/>
       <use xlink:href="#ArialMT-30" x="166.845703"/>
      </g>
     </g>
    </g>
    <g id="ytick_13">
     <g id="line2d_48">
      <path d="M 85.536 517.258167 
L 432.638609 517.258167 
" clip-path="url(#p52c4774871)" style="fill: none; stroke: #e8e8e3; stroke-width: 0.9; stroke-linecap: square"/>
     </g>
     <g id="line2d_49"/>
     <g id="text_42">
      <!-- 2000 -->
      <g style="fill: #5f5f5f" transform="translate(55.067875 521.194964) scale(0.11 -0.11)">
       <use xlink:href="#ArialMT-32"/>
       <use xlink:href="#ArialMT-30" x="55.615234"/>
       <use xlink:href="#ArialMT-30" x="111.230469"/>
       <use xlink:href="#ArialMT-30" x="166.845703"/>
      </g>
     </g>
    </g>
    <g id="ytick_14">
     <g id="line2d_50">
      <path d="M 85.536 481.650655 
L 432.638609 481.650655 
" clip-path="url(#p52c4774871)" style="fill: none; stroke: #e8e8e3; stroke-width: 0.9; stroke-linecap: square"/>
     </g>
     <g id="line2d_51"/>
     <g id="text_43">
      <!-- 2500 -->
      <g style="fill: #5f5f5f" transform="translate(55.067875 485.587452) scale(0.11 -0.11)">
       <use xlink:href="#ArialMT-32"/>
       <use xlink:href="#ArialMT-35" x="55.615234"/>
       <use xlink:href="#ArialMT-30" x="111.230469"/>
       <use xlink:href="#ArialMT-30" x="166.845703"/>
      </g>
     </g>
    </g>
    <g id="ytick_15">
     <g id="line2d_52">
      <path d="M 85.536 446.043143 
L 432.638609 446.043143 
" clip-path="url(#p52c4774871)" style="fill: none; stroke: #e8e8e3; stroke-width: 0.9; stroke-linecap: square"/>
     </g>
     <g id="line2d_53"/>
     <g id="text_44">
      <!-- 3000 -->
      <g style="fill: #5f5f5f" transform="translate(55.067875 449.979939) scale(0.11 -0.11)">
       <use xlink:href="#ArialMT-33"/>
       <use xlink:href="#ArialMT-30" x="55.615234"/>
       <use xlink:href="#ArialMT-30" x="111.230469"/>
       <use xlink:href="#ArialMT-30" x="166.845703"/>
      </g>
     </g>
    </g>
    <g id="text_45">
     <!-- Throughput (tokens/s) -->
     <g style="fill: #5f5f5f" transform="translate(40.54225 612.823821) rotate(-90) scale(0.12 -0.12)">
      <defs>
       <path id="ArialMT-68" d="M 422 0 
L 422 4581 
L 984 4581 
L 984 2938 
Q 1378 3394 1978 3394 
Q 2347 3394 2619 3248 
Q 2891 3103 3008 2847 
Q 3125 2591 3125 2103 
L 3125 0 
L 2563 0 
L 2563 2103 
Q 2563 2525 2380 2717 
Q 2197 2909 1863 2909 
Q 1613 2909 1392 2779 
Q 1172 2650 1078 2428 
Q 984 2206 984 1816 
L 984 0 
L 422 0 
z
" transform="scale(0.015625)"/>
       <path id="ArialMT-67" d="M 319 -275 
L 866 -356 
Q 900 -609 1056 -725 
Q 1266 -881 1628 -881 
Q 2019 -881 2231 -725 
Q 2444 -569 2519 -288 
Q 2563 -116 2559 434 
Q 2191 0 1641 0 
Q 956 0 581 494 
Q 206 988 206 1678 
Q 206 2153 378 2554 
Q 550 2956 876 3175 
Q 1203 3394 1644 3394 
Q 2231 3394 2613 2919 
L 2613 3319 
L 3131 3319 
L 3131 450 
Q 3131 -325 2973 -648 
Q 2816 -972 2473 -1159 
Q 2131 -1347 1631 -1347 
Q 1038 -1347 672 -1080 
Q 306 -813 319 -275 
z
M 784 1719 
Q 784 1066 1043 766 
Q 1303 466 1694 466 
Q 2081 466 2343 764 
Q 2606 1063 2606 1700 
Q 2606 2309 2336 2618 
Q 2066 2928 1684 2928 
Q 1309 2928 1046 2623 
Q 784 2319 784 1719 
z
" transform="scale(0.015625)"/>
       <path id="ArialMT-70" d="M 422 -1272 
L 422 3319 
L 934 3319 
L 934 2888 
Q 1116 3141 1344 3267 
Q 1572 3394 1897 3394 
Q 2322 3394 2647 3175 
Q 2972 2956 3137 2557 
Q 3303 2159 3303 1684 
Q 3303 1175 3120 767 
Q 2938 359 2589 142 
Q 2241 -75 1856 -75 
Q 1575 -75 1351 44 
Q 1128 163 984 344 
L 984 -1272 
L 422 -1272 
z
M 931 1641 
Q 931 1000 1190 694 
Q 1450 388 1819 388 
Q 2194 388 2461 705 
Q 2728 1022 2728 1688 
Q 2728 2322 2467 2637 
Q 2206 2953 1844 2953 
Q 1484 2953 1207 2617 
Q 931 2281 931 1641 
z
" transform="scale(0.015625)"/>
       <path id="ArialMT-2f" d="M 0 -78 
L 1328 4659 
L 1778 4659 
L 453 -78 
L 0 -78 
z
" transform="scale(0.015625)"/>
      </defs>
      <use xlink:href="#ArialMT-54"/>
      <use xlink:href="#ArialMT-68" x="61.083984"/>
      <use xlink:href="#ArialMT-72" x="116.699219"/>
      <use xlink:href="#ArialMT-6f" x="150"/>
      <use xlink:href="#ArialMT-75" x="205.615234"/>
      <use xlink:href="#ArialMT-67" x="261.230469"/>
      <use xlink:href="#ArialMT-68" x="316.845703"/>
      <use xlink:href="#ArialMT-70" x="372.460938"/>
      <use xlink:href="#ArialMT-75" x="428.076172"/>
      <use xlink:href="#ArialMT-74" x="483.691406"/>
      <use xlink:href="#ArialMT-20" x="511.474609"/>
      <use xlink:href="#ArialMT-28" x="539.257812"/>
      <use xlink:href="#ArialMT-74" x="572.558594"/>
      <use xlink:href="#ArialMT-6f" x="600.341797"/>
      <use xlink:href="#ArialMT-6b" x="655.957031"/>
      <use xlink:href="#ArialMT-65" x="705.957031"/>
      <use xlink:href="#ArialMT-6e" x="761.572266"/>
      <use xlink:href="#ArialMT-73" x="817.1875"/>
      <use xlink:href="#ArialMT-2f" x="867.1875"/>
      <use xlink:href="#ArialMT-73" x="894.970703"/>
      <use xlink:href="#ArialMT-29" x="944.970703"/>
     </g>
    </g>
   </g>
   <g id="line2d_54">
    <path d="M 86.204791 657.924779 
L 90.217538 652.989434 
L 95.567867 646.531682 
L 106.268526 633.804192 
L 127.669843 612.69572 
L 170.472477 574.885071 
" clip-path="url(#p52c4774871)" style="fill: none; stroke: #5c6470; stroke-width: 2.6; stroke-linecap: round"/>
   </g>
   <g id="line2d_55">
    <path d="M 86.204791 654.931092 
L 90.217538 641.362471 
L 95.567867 623.84409 
L 106.268526 589.946958 
L 127.669843 540.005382 
L 170.472477 468.625082 
L 256.077744 450.340364 
L 427.288279 466.968762 
" clip-path="url(#p52c4774871)" style="fill: none; stroke: #9f6b32; stroke-width: 2.6; stroke-linecap: round"/>
   </g>
   <g id="line2d_56">
    <path d="M 86.204791 654.911585 
L 90.217538 641.184662 
L 95.567867 623.325978 
L 106.268526 589.870156 
L 127.669843 541.338569 
L 170.472477 460.25495 
L 256.077744 452.170471 
L 427.288279 460.974007 
" clip-path="url(#p52c4774871)" style="fill: none; stroke: #4f7768; stroke-width: 2.6; stroke-linecap: round"/>
   </g>
   <g id="patch_9">
    <path d="M 85.536 668.304 
L 85.536 439.961143 
" style="fill: none; stroke: #d9d9d2; stroke-width: 0.8; stroke-linejoin: miter; stroke-linecap: square"/>
   </g>
   <g id="patch_10">
    <path d="M 85.536 668.304 
L 432.638609 668.304 
" style="fill: none; stroke: #d9d9d2; stroke-width: 0.8; stroke-linejoin: miter; stroke-linecap: square"/>
   </g>
   <g id="text_46">
    <!-- Throughput -->
    <g style="fill: #171717" transform="translate(85.536 429.961143) scale(0.13 -0.13)">
     <defs>
      <path id="Arial-BoldMT-68" d="M 1334 4581 
L 1334 2897 
Q 1759 3394 2350 3394 
Q 2653 3394 2897 3281 
Q 3141 3169 3264 2994 
Q 3388 2819 3433 2606 
Q 3478 2394 3478 1947 
L 3478 0 
L 2600 0 
L 2600 1753 
Q 2600 2275 2550 2415 
Q 2500 2556 2373 2639 
Q 2247 2722 2056 2722 
Q 1838 2722 1666 2615 
Q 1494 2509 1414 2295 
Q 1334 2081 1334 1663 
L 1334 0 
L 456 0 
L 456 4581 
L 1334 4581 
z
" transform="scale(0.015625)"/>
      <path id="Arial-BoldMT-75" d="M 2644 0 
L 2644 497 
Q 2463 231 2167 78 
Q 1872 -75 1544 -75 
Q 1209 -75 943 72 
Q 678 219 559 484 
Q 441 750 441 1219 
L 441 3319 
L 1319 3319 
L 1319 1794 
Q 1319 1094 1367 936 
Q 1416 778 1544 686 
Q 1672 594 1869 594 
Q 2094 594 2272 717 
Q 2450 841 2515 1023 
Q 2581 1206 2581 1919 
L 2581 3319 
L 3459 3319 
L 3459 0 
L 2644 0 
z
" transform="scale(0.015625)"/>
      <path id="Arial-BoldMT-67" d="M 378 -219 
L 1381 -341 
Q 1406 -516 1497 -581 
Q 1622 -675 1891 -675 
Q 2234 -675 2406 -572 
Q 2522 -503 2581 -350 
Q 2622 -241 2622 53 
L 2622 538 
Q 2228 0 1628 0 
Q 959 0 569 566 
Q 263 1013 263 1678 
Q 263 2513 664 2953 
Q 1066 3394 1663 3394 
Q 2278 3394 2678 2853 
L 2678 3319 
L 3500 3319 
L 3500 341 
Q 3500 -247 3403 -537 
Q 3306 -828 3131 -993 
Q 2956 -1159 2664 -1253 
Q 2372 -1347 1925 -1347 
Q 1081 -1347 728 -1058 
Q 375 -769 375 -325 
Q 375 -281 378 -219 
z
M 1163 1728 
Q 1163 1200 1367 954 
Q 1572 709 1872 709 
Q 2194 709 2416 961 
Q 2638 1213 2638 1706 
Q 2638 2222 2425 2472 
Q 2213 2722 1888 2722 
Q 1572 2722 1367 2476 
Q 1163 2231 1163 1728 
z
" transform="scale(0.015625)"/>
      <path id="Arial-BoldMT-70" d="M 434 3319 
L 1253 3319 
L 1253 2831 
Q 1413 3081 1684 3237 
Q 1956 3394 2288 3394 
Q 2866 3394 3269 2941 
Q 3672 2488 3672 1678 
Q 3672 847 3265 386 
Q 2859 -75 2281 -75 
Q 2006 -75 1782 34 
Q 1559 144 1313 409 
L 1313 -1263 
L 434 -1263 
L 434 3319 
z
M 1303 1716 
Q 1303 1156 1525 889 
Q 1747 622 2066 622 
Q 2372 622 2575 867 
Q 2778 1113 2778 1672 
Q 2778 2194 2568 2447 
Q 2359 2700 2050 2700 
Q 1728 2700 1515 2451 
Q 1303 2203 1303 1716 
z
" transform="scale(0.015625)"/>
     </defs>
     <use xlink:href="#Arial-BoldMT-54"/>
     <use xlink:href="#Arial-BoldMT-68" x="61.083984"/>
     <use xlink:href="#Arial-BoldMT-72" x="122.167969"/>
     <use xlink:href="#Arial-BoldMT-6f" x="161.083984"/>
     <use xlink:href="#Arial-BoldMT-75" x="222.167969"/>
     <use xlink:href="#Arial-BoldMT-67" x="283.251953"/>
     <use xlink:href="#Arial-BoldMT-68" x="344.335938"/>
     <use xlink:href="#Arial-BoldMT-70" x="405.419922"/>
     <use xlink:href="#Arial-BoldMT-75" x="466.503906"/>
     <use xlink:href="#Arial-BoldMT-74" x="527.587891"/>
    </g>
   </g>
  </g>
  <g id="axes_4">
   <g id="patch_11">
    <path d="M 536.769391 668.304 
L 883.872 668.304 
L 883.872 439.961143 
L 536.769391 439.961143 
L 536.769391 668.304 
z
" style="fill: none"/>
   </g>
   <g id="matplotlib.axis_7">
    <g id="xtick_25">
     <g id="line2d_57"/>
     <g id="text_47">
      <!-- 1 -->
      <g style="fill: #5f5f5f" transform="translate(534.379667 682.177594) scale(0.11 -0.11)">
       <use xlink:href="#ArialMT-31"/>
      </g>
     </g>
    </g>
    <g id="xtick_26">
     <g id="line2d_58"/>
     <g id="text_48">
      <!-- 4 -->
      <g style="fill: #5f5f5f" transform="translate(538.392414 682.177594) scale(0.11 -0.11)">
       <use xlink:href="#ArialMT-34"/>
      </g>
     </g>
    </g>
    <g id="xtick_27">
     <g id="line2d_59"/>
     <g id="text_49">
      <!-- 8 -->
      <g style="fill: #5f5f5f" transform="translate(543.742743 682.177594) scale(0.11 -0.11)">
       <use xlink:href="#ArialMT-38"/>
      </g>
     </g>
    </g>
    <g id="xtick_28">
     <g id="line2d_60"/>
     <g id="text_50">
      <!-- 16 -->
      <g style="fill: #5f5f5f" transform="translate(551.384886 682.177594) scale(0.11 -0.11)">
       <use xlink:href="#ArialMT-31"/>
       <use xlink:href="#ArialMT-36" x="55.615234"/>
      </g>
     </g>
    </g>
    <g id="xtick_29">
     <g id="line2d_61"/>
     <g id="text_51">
      <!-- 32 -->
      <g style="fill: #5f5f5f" transform="translate(572.786203 682.177594) scale(0.11 -0.11)">
       <use xlink:href="#ArialMT-33"/>
       <use xlink:href="#ArialMT-32" x="55.615234"/>
      </g>
     </g>
    </g>
    <g id="xtick_30">
     <g id="line2d_62"/>
     <g id="text_52">
      <!-- 64 -->
      <g style="fill: #5f5f5f" transform="translate(615.588837 682.177594) scale(0.11 -0.11)">
       <use xlink:href="#ArialMT-36"/>
       <use xlink:href="#ArialMT-34" x="55.615234"/>
      </g>
     </g>
    </g>
    <g id="xtick_31">
     <g id="line2d_63"/>
     <g id="text_53">
      <!-- 128 -->
      <g style="fill: #5f5f5f" transform="translate(698.135589 682.177594) scale(0.11 -0.11)">
       <use xlink:href="#ArialMT-31"/>
       <use xlink:href="#ArialMT-32" x="55.615234"/>
       <use xlink:href="#ArialMT-38" x="111.230469"/>
      </g>
     </g>
    </g>
    <g id="xtick_32">
     <g id="line2d_64"/>
     <g id="text_54">
      <!-- 256 -->
      <g style="fill: #5f5f5f" transform="translate(869.346124 682.177594) scale(0.11 -0.11)">
       <use xlink:href="#ArialMT-32"/>
       <use xlink:href="#ArialMT-35" x="55.615234"/>
       <use xlink:href="#ArialMT-36" x="111.230469"/>
      </g>
     </g>
    </g>
    <g id="text_55">
     <!-- Concurrency -->
     <g style="fill: #5f5f5f" transform="translate(676.309133 707.099469) scale(0.12 -0.12)">
      <use xlink:href="#ArialMT-43"/>
      <use xlink:href="#ArialMT-6f" x="72.216797"/>
      <use xlink:href="#ArialMT-6e" x="127.832031"/>
      <use xlink:href="#ArialMT-63" x="183.447266"/>
      <use xlink:href="#ArialMT-75" x="233.447266"/>
      <use xlink:href="#ArialMT-72" x="289.0625"/>
      <use xlink:href="#ArialMT-72" x="322.363281"/>
      <use xlink:href="#ArialMT-65" x="355.664062"/>
      <use xlink:href="#ArialMT-6e" x="411.279297"/>
      <use xlink:href="#ArialMT-63" x="466.894531"/>
      <use xlink:href="#ArialMT-79" x="516.894531"/>
     </g>
    </g>
   </g>
   <g id="matplotlib.axis_8">
    <g id="ytick_16">
     <g id="line2d_65">
      <path d="M 536.769391 448.105365 
L 883.872 448.105365 
" clip-path="url(#p20fbfa9db0)" style="fill: none; stroke: #e8e8e3; stroke-width: 0.9; stroke-linecap: square"/>
     </g>
     <g id="line2d_66"/>
     <g id="text_56">
      <!-- $\mathdefault{10^{2}}$ -->
      <g style="fill: #5f5f5f" transform="translate(513.499391 453.77724) scale(0.11 -0.11)">
       <use xlink:href="#ArialMT-31" transform="translate(0 0.99375)"/>
       <use xlink:href="#ArialMT-30" transform="translate(55.615234 0.99375)"/>
       <use xlink:href="#ArialMT-32" transform="translate(112.972813 70.6875) scale(0.7)"/>
      </g>
     </g>
    </g>
    <g id="ytick_17">
     <g id="line2d_67">
      <g>
       <use xlink:href="#m414302ee77" x="536.769391" y="649.079081" style="fill: #5f5f5f; stroke: #5f5f5f; stroke-width: 0.6"/>
      </g>
     </g>
     <g id="text_57">
      <!-- $\mathdefault{2\times10^{1}}$ -->
      <g style="fill: #5f5f5f" transform="translate(500.369391 654.235331) scale(0.1 -0.1)">
       <use xlink:href="#ArialMT-32" transform="translate(0 0.99375)"/>
       <use xlink:href="#ArialMT-d7" transform="translate(75.097656 0.99375)"/>
       <use xlink:href="#ArialMT-31" transform="translate(152.978516 0.99375)"/>
       <use xlink:href="#ArialMT-30" transform="translate(208.59375 0.99375)"/>
       <use xlink:href="#ArialMT-31" transform="translate(265.951328 70.6875) scale(0.7)"/>
      </g>
     </g>
    </g>
    <g id="ytick_18">
     <g id="line2d_68">
      <g>
       <use xlink:href="#m414302ee77" x="536.769391" y="598.447846" style="fill: #5f5f5f; stroke: #5f5f5f; stroke-width: 0.6"/>
      </g>
     </g>
     <g id="text_58">
      <!-- $\mathdefault{3\times10^{1}}$ -->
      <g style="fill: #5f5f5f" transform="translate(500.369391 603.604096) scale(0.1 -0.1)">
       <use xlink:href="#ArialMT-33" transform="translate(0 0.99375)"/>
       <use xlink:href="#ArialMT-d7" transform="translate(75.097656 0.99375)"/>
       <use xlink:href="#ArialMT-31" transform="translate(152.978516 0.99375)"/>
       <use xlink:href="#ArialMT-30" transform="translate(208.59375 0.99375)"/>
       <use xlink:href="#ArialMT-31" transform="translate(265.951328 70.6875) scale(0.7)"/>
      </g>
     </g>
    </g>
    <g id="ytick_19">
     <g id="line2d_69">
      <g>
       <use xlink:href="#m414302ee77" x="536.769391" y="562.524413" style="fill: #5f5f5f; stroke: #5f5f5f; stroke-width: 0.6"/>
      </g>
     </g>
     <g id="text_59">
      <!-- $\mathdefault{4\times10^{1}}$ -->
      <g style="fill: #5f5f5f" transform="translate(500.369391 567.680663) scale(0.1 -0.1)">
       <use xlink:href="#ArialMT-34" transform="translate(0 0.99375)"/>
       <use xlink:href="#ArialMT-d7" transform="translate(75.097656 0.99375)"/>
       <use xlink:href="#ArialMT-31" transform="translate(152.978516 0.99375)"/>
       <use xlink:href="#ArialMT-30" transform="translate(208.59375 0.99375)"/>
       <use xlink:href="#ArialMT-31" transform="translate(265.951328 70.6875) scale(0.7)"/>
      </g>
     </g>
    </g>
    <g id="ytick_20">
     <g id="line2d_70">
      <g>
       <use xlink:href="#m414302ee77" x="536.769391" y="534.660034" style="fill: #5f5f5f; stroke: #5f5f5f; stroke-width: 0.6"/>
      </g>
     </g>
    </g>
    <g id="ytick_21">
     <g id="line2d_71">
      <g>
       <use xlink:href="#m414302ee77" x="536.769391" y="511.893178" style="fill: #5f5f5f; stroke: #5f5f5f; stroke-width: 0.6"/>
      </g>
     </g>
     <g id="text_60">
      <!-- $\mathdefault{6\times10^{1}}$ -->
      <g style="fill: #5f5f5f" transform="translate(500.369391 517.049428) scale(0.1 -0.1)">
       <use xlink:href="#ArialMT-36" transform="translate(0 0.99375)"/>
       <use xlink:href="#ArialMT-d7" transform="translate(75.097656 0.99375)"/>
       <use xlink:href="#ArialMT-31" transform="translate(152.978516 0.99375)"/>
       <use xlink:href="#ArialMT-30" transform="translate(208.59375 0.99375)"/>
       <use xlink:href="#ArialMT-31" transform="translate(265.951328 70.6875) scale(0.7)"/>
      </g>
     </g>
    </g>
    <g id="ytick_22">
     <g id="line2d_72">
      <g>
       <use xlink:href="#m414302ee77" x="536.769391" y="492.644076" style="fill: #5f5f5f; stroke: #5f5f5f; stroke-width: 0.6"/>
      </g>
     </g>
    </g>
    <g id="ytick_23">
     <g id="line2d_73">
      <g>
       <use xlink:href="#m414302ee77" x="536.769391" y="475.969745" style="fill: #5f5f5f; stroke: #5f5f5f; stroke-width: 0.6"/>
      </g>
     </g>
    </g>
    <g id="ytick_24">
     <g id="line2d_74">
      <g>
       <use xlink:href="#m414302ee77" x="536.769391" y="461.261943" style="fill: #5f5f5f; stroke: #5f5f5f; stroke-width: 0.6"/>
      </g>
     </g>
    </g>
    <g id="text_61">
     <!-- TTFT (ms) -->
     <g style="fill: #5f5f5f" transform="translate(485.843766 582.346634) rotate(-90) scale(0.12 -0.12)">
      <defs>
       <path id="ArialMT-46" d="M 525 0 
L 525 4581 
L 3616 4581 
L 3616 4041 
L 1131 4041 
L 1131 2622 
L 3281 2622 
L 3281 2081 
L 1131 2081 
L 1131 0 
L 525 0 
z
" transform="scale(0.015625)"/>
      </defs>
      <use xlink:href="#ArialMT-54"/>
      <use xlink:href="#ArialMT-54" x="61.083984"/>
      <use xlink:href="#ArialMT-46" x="122.167969"/>
      <use xlink:href="#ArialMT-54" x="183.251953"/>
      <use xlink:href="#ArialMT-20" x="242.585938"/>
      <use xlink:href="#ArialMT-28" x="270.369141"/>
      <use xlink:href="#ArialMT-6d" x="303.669922"/>
      <use xlink:href="#ArialMT-73" x="386.970703"/>
      <use xlink:href="#ArialMT-29" x="436.970703"/>
     </g>
    </g>
   </g>
   <g id="line2d_75">
    <path d="M 537.438182 546.519107 
L 541.450929 489.371468 
L 546.801259 492.251532 
L 557.501917 479.293969 
L 578.903234 464.991124 
L 621.705868 456.268987 
" clip-path="url(#p20fbfa9db0)" style="fill: none; stroke: #5c6470; stroke-width: 2.6; stroke-linecap: round"/>
   </g>
   <g id="line2d_76">
    <path d="M 537.438182 657.866683 
L 541.450929 606.082241 
L 546.801259 596.42833 
L 557.501917 577.373264 
L 578.903234 559.641587 
L 621.705868 502.457053 
L 707.311135 489.763721 
L 878.521671 450.340364 
" clip-path="url(#p20fbfa9db0)" style="fill: none; stroke: #9f6b32; stroke-width: 2.6; stroke-linecap: round"/>
   </g>
   <g id="line2d_77">
    <path d="M 537.438182 657.924779 
L 541.450929 620.896473 
L 546.801259 610.400739 
L 557.501917 581.515637 
L 578.903234 560.73015 
L 621.705868 521.993491 
L 707.311135 456.195204 
L 878.521671 487.714571 
" clip-path="url(#p20fbfa9db0)" style="fill: none; stroke: #4f7768; stroke-width: 2.6; stroke-linecap: round"/>
   </g>
   <g id="patch_12">
    <path d="M 536.769391 668.304 
L 536.769391 439.961143 
" style="fill: none; stroke: #d9d9d2; stroke-width: 0.8; stroke-linejoin: miter; stroke-linecap: square"/>
   </g>
   <g id="patch_13">
    <path d="M 536.769391 668.304 
L 883.872 668.304 
" style="fill: none; stroke: #d9d9d2; stroke-width: 0.8; stroke-linejoin: miter; stroke-linecap: square"/>
   </g>
   <g id="text_62">
    <!-- Time to first token -->
    <g style="fill: #171717" transform="translate(536.769391 429.961143) scale(0.13 -0.13)">
     <defs>
      <path id="Arial-BoldMT-69" d="M 459 3769 
L 459 4581 
L 1338 4581 
L 1338 3769 
L 459 3769 
z
M 459 0 
L 459 3319 
L 1338 3319 
L 1338 0 
L 459 0 
z
" transform="scale(0.015625)"/>
      <path id="Arial-BoldMT-6d" d="M 394 3319 
L 1203 3319 
L 1203 2866 
Q 1638 3394 2238 3394 
Q 2556 3394 2790 3262 
Q 3025 3131 3175 2866 
Q 3394 3131 3647 3262 
Q 3900 3394 4188 3394 
Q 4553 3394 4806 3245 
Q 5059 3097 5184 2809 
Q 5275 2597 5275 2122 
L 5275 0 
L 4397 0 
L 4397 1897 
Q 4397 2391 4306 2534 
Q 4184 2722 3931 2722 
Q 3747 2722 3584 2609 
Q 3422 2497 3350 2280 
Q 3278 2063 3278 1594 
L 3278 0 
L 2400 0 
L 2400 1819 
Q 2400 2303 2353 2443 
Q 2306 2584 2207 2653 
Q 2109 2722 1941 2722 
Q 1738 2722 1575 2612 
Q 1413 2503 1342 2297 
Q 1272 2091 1272 1613 
L 1272 0 
L 394 0 
L 394 3319 
z
" transform="scale(0.015625)"/>
      <path id="Arial-BoldMT-66" d="M 75 3319 
L 563 3319 
L 563 3569 
Q 563 3988 652 4194 
Q 741 4400 980 4529 
Q 1219 4659 1584 4659 
Q 1959 4659 2319 4547 
L 2200 3934 
Q 1991 3984 1797 3984 
Q 1606 3984 1523 3895 
Q 1441 3806 1441 3553 
L 1441 3319 
L 2097 3319 
L 2097 2628 
L 1441 2628 
L 1441 0 
L 563 0 
L 563 2628 
L 75 2628 
L 75 3319 
z
" transform="scale(0.015625)"/>
      <path id="Arial-BoldMT-73" d="M 150 947 
L 1031 1081 
Q 1088 825 1259 692 
Q 1431 559 1741 559 
Q 2081 559 2253 684 
Q 2369 772 2369 919 
Q 2369 1019 2306 1084 
Q 2241 1147 2013 1200 
Q 950 1434 666 1628 
Q 272 1897 272 2375 
Q 272 2806 612 3100 
Q 953 3394 1669 3394 
Q 2350 3394 2681 3172 
Q 3013 2950 3138 2516 
L 2309 2363 
Q 2256 2556 2107 2659 
Q 1959 2763 1684 2763 
Q 1338 2763 1188 2666 
Q 1088 2597 1088 2488 
Q 1088 2394 1175 2328 
Q 1294 2241 1995 2081 
Q 2697 1922 2975 1691 
Q 3250 1456 3250 1038 
Q 3250 581 2869 253 
Q 2488 -75 1741 -75 
Q 1063 -75 667 200 
Q 272 475 150 947 
z
" transform="scale(0.015625)"/>
     </defs>
     <use xlink:href="#Arial-BoldMT-54"/>
     <use xlink:href="#Arial-BoldMT-69" x="59.333984"/>
     <use xlink:href="#Arial-BoldMT-6d" x="87.117188"/>
     <use xlink:href="#Arial-BoldMT-65" x="176.033203"/>
     <use xlink:href="#Arial-BoldMT-20" x="231.648438"/>
     <use xlink:href="#Arial-BoldMT-74" x="259.431641"/>
     <use xlink:href="#Arial-BoldMT-6f" x="292.732422"/>
     <use xlink:href="#Arial-BoldMT-20" x="353.816406"/>
     <use xlink:href="#Arial-BoldMT-66" x="381.599609"/>
     <use xlink:href="#Arial-BoldMT-69" x="414.900391"/>
     <use xlink:href="#Arial-BoldMT-72" x="442.683594"/>
     <use xlink:href="#Arial-BoldMT-73" x="481.599609"/>
     <use xlink:href="#Arial-BoldMT-74" x="537.214844"/>
     <use xlink:href="#Arial-BoldMT-20" x="570.515625"/>
     <use xlink:href="#Arial-BoldMT-74" x="598.298828"/>
     <use xlink:href="#Arial-BoldMT-6f" x="631.599609"/>
     <use xlink:href="#Arial-BoldMT-6b" x="692.683594"/>
     <use xlink:href="#Arial-BoldMT-65" x="748.298828"/>
     <use xlink:href="#Arial-BoldMT-6e" x="803.914062"/>
    </g>
   </g>
  </g>
  <g id="text_63">
   <!-- Quantization summary -->
   <g style="fill: #171717" transform="translate(76.032 40.231219) scale(0.25 -0.25)">
    <defs>
     <path id="Arial-BoldMT-51" d="M 4153 581 
Q 4494 338 4894 194 
L 4553 -459 
Q 4344 -397 4144 -288 
Q 4100 -266 3528 119 
Q 3078 -78 2531 -78 
Q 1475 -78 876 544 
Q 278 1166 278 2291 
Q 278 3413 878 4036 
Q 1478 4659 2506 4659 
Q 3525 4659 4122 4036 
Q 4719 3413 4719 2291 
Q 4719 1697 4553 1247 
Q 4428 903 4153 581 
z
M 3409 1103 
Q 3588 1313 3677 1609 
Q 3766 1906 3766 2291 
Q 3766 3084 3416 3476 
Q 3066 3869 2500 3869 
Q 1934 3869 1582 3475 
Q 1231 3081 1231 2291 
Q 1231 1488 1582 1089 
Q 1934 691 2472 691 
Q 2672 691 2850 756 
Q 2569 941 2278 1044 
L 2538 1572 
Q 2994 1416 3409 1103 
z
" transform="scale(0.015625)"/>
     <path id="Arial-BoldMT-7a" d="M 106 0 
L 106 684 
L 1350 2113 
Q 1656 2463 1803 2609 
Q 1650 2600 1400 2597 
L 228 2591 
L 228 3319 
L 2972 3319 
L 2972 2697 
L 1703 1234 
L 1256 750 
Q 1622 772 1709 772 
L 3069 772 
L 3069 0 
L 106 0 
z
" transform="scale(0.015625)"/>
    </defs>
    <use xlink:href="#Arial-BoldMT-51"/>
    <use xlink:href="#Arial-BoldMT-75" x="77.783203"/>
    <use xlink:href="#Arial-BoldMT-61" x="138.867188"/>
    <use xlink:href="#Arial-BoldMT-6e" x="194.482422"/>
    <use xlink:href="#Arial-BoldMT-74" x="255.566406"/>
    <use xlink:href="#Arial-BoldMT-69" x="288.867188"/>
    <use xlink:href="#Arial-BoldMT-7a" x="316.650391"/>
    <use xlink:href="#Arial-BoldMT-61" x="366.650391"/>
    <use xlink:href="#Arial-BoldMT-74" x="422.265625"/>
    <use xlink:href="#Arial-BoldMT-69" x="455.566406"/>
    <use xlink:href="#Arial-BoldMT-6f" x="483.349609"/>
    <use xlink:href="#Arial-BoldMT-6e" x="544.433594"/>
    <use xlink:href="#Arial-BoldMT-20" x="605.517578"/>
    <use xlink:href="#Arial-BoldMT-73" x="633.300781"/>
    <use xlink:href="#Arial-BoldMT-75" x="688.916016"/>
    <use xlink:href="#Arial-BoldMT-6d" x="750"/>
    <use xlink:href="#Arial-BoldMT-6d" x="838.916016"/>
    <use xlink:href="#Arial-BoldMT-61" x="927.832031"/>
    <use xlink:href="#Arial-BoldMT-72" x="983.447266"/>
    <use xlink:href="#Arial-BoldMT-79" x="1022.363281"/>
   </g>
  </g>
  <g id="text_64">
   <!-- Same L40S host, same workload, different model formats and kernels -->
   <g style="fill: #5f5f5f" transform="translate(76.032 70.655484) scale(0.115 -0.115)">
    <defs>
     <path id="ArialMT-53" d="M 288 1472 
L 859 1522 
Q 900 1178 1048 958 
Q 1197 738 1509 602 
Q 1822 466 2213 466 
Q 2559 466 2825 569 
Q 3091 672 3220 851 
Q 3350 1031 3350 1244 
Q 3350 1459 3225 1620 
Q 3100 1781 2813 1891 
Q 2628 1963 1997 2114 
Q 1366 2266 1113 2400 
Q 784 2572 623 2826 
Q 463 3081 463 3397 
Q 463 3744 659 4045 
Q 856 4347 1234 4503 
Q 1613 4659 2075 4659 
Q 2584 4659 2973 4495 
Q 3363 4331 3572 4012 
Q 3781 3694 3797 3291 
L 3216 3247 
Q 3169 3681 2898 3903 
Q 2628 4125 2100 4125 
Q 1550 4125 1298 3923 
Q 1047 3722 1047 3438 
Q 1047 3191 1225 3031 
Q 1400 2872 2139 2705 
Q 2878 2538 3153 2413 
Q 3553 2228 3743 1945 
Q 3934 1663 3934 1294 
Q 3934 928 3725 604 
Q 3516 281 3123 101 
Q 2731 -78 2241 -78 
Q 1619 -78 1198 103 
Q 778 284 539 648 
Q 300 1013 288 1472 
z
" transform="scale(0.015625)"/>
     <path id="ArialMT-2c" d="M 569 0 
L 569 641 
L 1209 641 
L 1209 0 
Q 1209 -353 1084 -570 
Q 959 -788 688 -906 
L 531 -666 
Q 709 -588 793 -436 
Q 878 -284 888 0 
L 569 0 
z
" transform="scale(0.015625)"/>
     <path id="ArialMT-77" d="M 1034 0 
L 19 3319 
L 600 3319 
L 1128 1403 
L 1325 691 
Q 1338 744 1497 1375 
L 2025 3319 
L 2603 3319 
L 3100 1394 
L 3266 759 
L 3456 1400 
L 4025 3319 
L 4572 3319 
L 3534 0 
L 2950 0 
L 2422 1988 
L 2294 2553 
L 1622 0 
L 1034 0 
z
" transform="scale(0.015625)"/>
     <path id="ArialMT-64" d="M 2575 0 
L 2575 419 
Q 2259 -75 1647 -75 
Q 1250 -75 917 144 
Q 584 363 401 755 
Q 219 1147 219 1656 
Q 219 2153 384 2558 
Q 550 2963 881 3178 
Q 1213 3394 1622 3394 
Q 1922 3394 2156 3267 
Q 2391 3141 2538 2938 
L 2538 4581 
L 3097 4581 
L 3097 0 
L 2575 0 
z
M 797 1656 
Q 797 1019 1065 703 
Q 1334 388 1700 388 
Q 2069 388 2326 689 
Q 2584 991 2584 1609 
Q 2584 2291 2321 2609 
Q 2059 2928 1675 2928 
Q 1300 2928 1048 2622 
Q 797 2316 797 1656 
z
" transform="scale(0.015625)"/>
     <path id="ArialMT-69" d="M 425 3934 
L 425 4581 
L 988 4581 
L 988 3934 
L 425 3934 
z
M 425 0 
L 425 3319 
L 988 3319 
L 988 0 
L 425 0 
z
" transform="scale(0.015625)"/>
     <path id="ArialMT-66" d="M 556 0 
L 556 2881 
L 59 2881 
L 59 3319 
L 556 3319 
L 556 3672 
Q 556 4006 616 4169 
Q 697 4388 901 4523 
Q 1106 4659 1475 4659 
Q 1713 4659 2000 4603 
L 1916 4113 
Q 1741 4144 1584 4144 
Q 1328 4144 1222 4034 
Q 1116 3925 1116 3625 
L 1116 3319 
L 1763 3319 
L 1763 2881 
L 1116 2881 
L 1116 0 
L 556 0 
z
" transform="scale(0.015625)"/>
    </defs>
    <use xlink:href="#ArialMT-53"/>
    <use xlink:href="#ArialMT-61" x="66.699219"/>
    <use xlink:href="#ArialMT-6d" x="122.314453"/>
    <use xlink:href="#ArialMT-65" x="205.615234"/>
    <use xlink:href="#ArialMT-20" x="261.230469"/>
    <use xlink:href="#ArialMT-4c" x="289.013672"/>
    <use xlink:href="#ArialMT-34" x="344.628906"/>
    <use xlink:href="#ArialMT-30" x="400.244141"/>
    <use xlink:href="#ArialMT-53" x="455.859375"/>
    <use xlink:href="#ArialMT-20" x="522.558594"/>
    <use xlink:href="#ArialMT-68" x="550.341797"/>
    <use xlink:href="#ArialMT-6f" x="605.957031"/>
    <use xlink:href="#ArialMT-73" x="661.572266"/>
    <use xlink:href="#ArialMT-74" x="711.572266"/>
    <use xlink:href="#ArialMT-2c" x="739.355469"/>
    <use xlink:href="#ArialMT-20" x="767.138672"/>
    <use xlink:href="#ArialMT-73" x="794.921875"/>
    <use xlink:href="#ArialMT-61" x="844.921875"/>
    <use xlink:href="#ArialMT-6d" x="900.537109"/>
    <use xlink:href="#ArialMT-65" x="983.837891"/>
    <use xlink:href="#ArialMT-20" x="1039.453125"/>
    <use xlink:href="#ArialMT-77" x="1067.236328"/>
    <use xlink:href="#ArialMT-6f" x="1139.453125"/>
    <use xlink:href="#ArialMT-72" x="1195.068359"/>
    <use xlink:href="#ArialMT-6b" x="1228.369141"/>
    <use xlink:href="#ArialMT-6c" x="1278.369141"/>
    <use xlink:href="#ArialMT-6f" x="1300.585938"/>
    <use xlink:href="#ArialMT-61" x="1356.201172"/>
    <use xlink:href="#ArialMT-64" x="1411.816406"/>
    <use xlink:href="#ArialMT-2c" x="1467.431641"/>
    <use xlink:href="#ArialMT-20" x="1495.214844"/>
    <use xlink:href="#ArialMT-64" x="1522.998047"/>
    <use xlink:href="#ArialMT-69" x="1578.613281"/>
    <use xlink:href="#ArialMT-66" x="1600.830078"/>
    <use xlink:href="#ArialMT-66" x="1626.863281"/>
    <use xlink:href="#ArialMT-65" x="1654.646484"/>
    <use xlink:href="#ArialMT-72" x="1710.261719"/>
    <use xlink:href="#ArialMT-65" x="1743.5625"/>
    <use xlink:href="#ArialMT-6e" x="1799.177734"/>
    <use xlink:href="#ArialMT-74" x="1854.792969"/>
    <use xlink:href="#ArialMT-20" x="1882.576172"/>
    <use xlink:href="#ArialMT-6d" x="1910.359375"/>
    <use xlink:href="#ArialMT-6f" x="1993.660156"/>
    <use xlink:href="#ArialMT-64" x="2049.275391"/>
    <use xlink:href="#ArialMT-65" x="2104.890625"/>
    <use xlink:href="#ArialMT-6c" x="2160.505859"/>
    <use xlink:href="#ArialMT-20" x="2182.722656"/>
    <use xlink:href="#ArialMT-66" x="2210.505859"/>
    <use xlink:href="#ArialMT-6f" x="2238.289062"/>
    <use xlink:href="#ArialMT-72" x="2293.904297"/>
    <use xlink:href="#ArialMT-6d" x="2327.205078"/>
    <use xlink:href="#ArialMT-61" x="2410.505859"/>
    <use xlink:href="#ArialMT-74" x="2466.121094"/>
    <use xlink:href="#ArialMT-73" x="2493.904297"/>
    <use xlink:href="#ArialMT-20" x="2543.904297"/>
    <use xlink:href="#ArialMT-61" x="2571.6875"/>
    <use xlink:href="#ArialMT-6e" x="2627.302734"/>
    <use xlink:href="#ArialMT-64" x="2682.917969"/>
    <use xlink:href="#ArialMT-20" x="2738.533203"/>
    <use xlink:href="#ArialMT-6b" x="2766.316406"/>
    <use xlink:href="#ArialMT-65" x="2816.316406"/>
    <use xlink:href="#ArialMT-72" x="2871.931641"/>
    <use xlink:href="#ArialMT-6e" x="2905.232422"/>
    <use xlink:href="#ArialMT-65" x="2960.847656"/>
    <use xlink:href="#ArialMT-6c" x="3016.462891"/>
    <use xlink:href="#ArialMT-73" x="3038.679688"/>
   </g>
  </g>
  <g id="legend_1">
   <g id="line2d_78">
    <path d="M 94.086 99.981297 
L 107.386 99.981297 
L 120.686 99.981297 
" style="fill: none; stroke: #5c6470; stroke-width: 2.6; stroke-linecap: round"/>
   </g>
   <g id="text_65">
    <!-- FP16 (baseline) -->
    <g style="fill: #5f5f5f" transform="translate(128.286 103.306297) scale(0.095 -0.095)">
     <defs>
      <path id="DejaVuSansMono-46" d="M 728 4666 
L 3475 4666 
L 3475 4134 
L 1363 4134 
L 1363 2759 
L 3278 2759 
L 3278 2228 
L 1363 2228 
L 1363 0 
L 728 0 
L 728 4666 
z
" transform="scale(0.015625)"/>
      <path id="DejaVuSansMono-50" d="M 1247 4147 
L 1247 2394 
L 1978 2394 
Q 2416 2394 2661 2625 
Q 2906 2856 2906 3272 
Q 2906 3688 2662 3917 
Q 2419 4147 1978 4147 
L 1247 4147 
z
M 616 4666 
L 1978 4666 
Q 2759 4666 3162 4311 
Q 3566 3956 3566 3272 
Q 3566 2581 3164 2228 
Q 2763 1875 1978 1875 
L 1247 1875 
L 1247 0 
L 616 0 
L 616 4666 
z
" transform="scale(0.015625)"/>
      <path id="DejaVuSansMono-31" d="M 844 531 
L 1825 531 
L 1825 4097 
L 769 3859 
L 769 4434 
L 1819 4666 
L 2450 4666 
L 2450 531 
L 3419 531 
L 3419 0 
L 844 0 
L 844 531 
z
" transform="scale(0.015625)"/>
      <path id="DejaVuSansMono-36" d="M 3097 4563 
L 3097 3981 
Q 2900 4097 2678 4158 
Q 2456 4219 2216 4219 
Q 1616 4219 1306 3767 
Q 997 3316 997 2438 
Q 1147 2750 1412 2917 
Q 1678 3084 2022 3084 
Q 2697 3084 3067 2670 
Q 3438 2256 3438 1497 
Q 3438 741 3056 325 
Q 2675 -91 1984 -91 
Q 1172 -91 794 492 
Q 416 1075 416 2328 
Q 416 3509 870 4129 
Q 1325 4750 2188 4750 
Q 2419 4750 2650 4701 
Q 2881 4653 3097 4563 
z
M 1972 2591 
Q 1569 2591 1337 2300 
Q 1106 2009 1106 1497 
Q 1106 984 1337 693 
Q 1569 403 1972 403 
Q 2391 403 2603 679 
Q 2816 956 2816 1497 
Q 2816 2041 2603 2316 
Q 2391 2591 1972 2591 
z
" transform="scale(0.015625)"/>
      <path id="DejaVuSansMono-20" transform="scale(0.015625)"/>
      <path id="DejaVuSansMono-28" d="M 2766 4856 
Q 2350 4144 2145 3436 
Q 1941 2728 1941 2009 
Q 1941 1294 2145 584 
Q 2350 -125 2766 -844 
L 2266 -844 
Q 1794 -100 1562 604 
Q 1331 1309 1331 2009 
Q 1331 2706 1562 3412 
Q 1794 4119 2266 4856 
L 2766 4856 
z
" transform="scale(0.015625)"/>
      <path id="DejaVuSansMono-62" d="M 2869 1747 
Q 2869 2416 2656 2756 
Q 2444 3097 2028 3097 
Q 1609 3097 1393 2755 
Q 1178 2413 1178 1747 
Q 1178 1084 1393 740 
Q 1609 397 2028 397 
Q 2444 397 2656 737 
Q 2869 1078 2869 1747 
z
M 1178 3053 
Q 1316 3309 1558 3446 
Q 1800 3584 2119 3584 
Q 2750 3584 3112 3098 
Q 3475 2613 3475 1759 
Q 3475 894 3111 401 
Q 2747 -91 2113 -91 
Q 1800 -91 1561 45 
Q 1322 181 1178 441 
L 1178 0 
L 603 0 
L 603 4863 
L 1178 4863 
L 1178 3053 
z
" transform="scale(0.015625)"/>
      <path id="DejaVuSansMono-61" d="M 2194 1759 
L 2003 1759 
Q 1500 1759 1245 1582 
Q 991 1406 991 1056 
Q 991 741 1181 566 
Q 1372 391 1709 391 
Q 2184 391 2456 720 
Q 2728 1050 2731 1631 
L 2731 1759 
L 2194 1759 
z
M 3309 1997 
L 3309 0 
L 2731 0 
L 2731 519 
Q 2547 206 2267 57 
Q 1988 -91 1588 -91 
Q 1053 -91 734 211 
Q 416 513 416 1019 
Q 416 1603 808 1906 
Q 1200 2209 1959 2209 
L 2731 2209 
L 2731 2300 
Q 2728 2719 2518 2908 
Q 2309 3097 1850 3097 
Q 1556 3097 1256 3012 
Q 956 2928 672 2766 
L 672 3341 
Q 991 3463 1283 3523 
Q 1575 3584 1850 3584 
Q 2284 3584 2592 3456 
Q 2900 3328 3091 3072 
Q 3209 2916 3259 2686 
Q 3309 2456 3309 1997 
z
" transform="scale(0.015625)"/>
      <path id="DejaVuSansMono-73" d="M 3041 3378 
L 3041 2816 
Q 2794 2959 2544 3031 
Q 2294 3103 2034 3103 
Q 1644 3103 1451 2976 
Q 1259 2850 1259 2591 
Q 1259 2356 1403 2240 
Q 1547 2125 2119 2016 
L 2350 1972 
Q 2778 1891 2998 1647 
Q 3219 1403 3219 1013 
Q 3219 494 2850 201 
Q 2481 -91 1825 -91 
Q 1566 -91 1281 -36 
Q 997 19 666 128 
L 666 722 
Q 988 556 1281 473 
Q 1575 391 1838 391 
Q 2219 391 2428 545 
Q 2638 700 2638 978 
Q 2638 1378 1872 1531 
L 1847 1538 
L 1631 1581 
Q 1134 1678 906 1908 
Q 678 2138 678 2534 
Q 678 3038 1018 3311 
Q 1359 3584 1991 3584 
Q 2272 3584 2531 3532 
Q 2791 3481 3041 3378 
z
" transform="scale(0.015625)"/>
      <path id="DejaVuSansMono-65" d="M 3475 1894 
L 3475 1613 
L 984 1613 
L 984 1594 
Q 984 1022 1282 709 
Q 1581 397 2125 397 
Q 2400 397 2700 484 
Q 3000 572 3341 750 
L 3341 178 
Q 3013 44 2708 -23 
Q 2403 -91 2119 -91 
Q 1303 -91 843 398 
Q 384 888 384 1747 
Q 384 2584 834 3084 
Q 1284 3584 2034 3584 
Q 2703 3584 3089 3131 
Q 3475 2678 3475 1894 
z
M 2900 2063 
Q 2888 2569 2661 2833 
Q 2434 3097 2009 3097 
Q 1594 3097 1325 2822 
Q 1056 2547 1006 2059 
L 2900 2063 
z
" transform="scale(0.015625)"/>
      <path id="DejaVuSansMono-6c" d="M 1997 1269 
Q 1997 881 2139 684 
Q 2281 488 2559 488 
L 3231 488 
L 3231 0 
L 2503 0 
Q 1988 0 1705 331 
Q 1422 663 1422 1269 
L 1422 4447 
L 500 4447 
L 500 4897 
L 1997 4897 
L 1997 1269 
z
" transform="scale(0.015625)"/>
      <path id="DejaVuSansMono-69" d="M 800 3500 
L 2272 3500 
L 2272 447 
L 3413 447 
L 3413 0 
L 556 0 
L 556 447 
L 1697 447 
L 1697 3053 
L 800 3053 
L 800 3500 
z
M 1697 4863 
L 2272 4863 
L 2272 4134 
L 1697 4134 
L 1697 4863 
z
" transform="scale(0.015625)"/>
      <path id="DejaVuSansMono-6e" d="M 3284 2169 
L 3284 0 
L 2706 0 
L 2706 2169 
Q 2706 2641 2540 2862 
Q 2375 3084 2022 3084 
Q 1619 3084 1401 2798 
Q 1184 2513 1184 1978 
L 1184 0 
L 609 0 
L 609 3500 
L 1184 3500 
L 1184 2975 
Q 1338 3275 1600 3429 
Q 1863 3584 2222 3584 
Q 2756 3584 3020 3232 
Q 3284 2881 3284 2169 
z
" transform="scale(0.015625)"/>
      <path id="DejaVuSansMono-29" d="M 1088 4856 
L 1588 4856 
Q 2059 4119 2290 3412 
Q 2522 2706 2522 2009 
Q 2522 1306 2290 600 
Q 2059 -106 1588 -844 
L 1088 -844 
Q 1503 -119 1708 590 
Q 1913 1300 1913 2009 
Q 1913 2722 1708 3431 
Q 1503 4141 1088 4856 
z
" transform="scale(0.015625)"/>
     </defs>
     <use xlink:href="#DejaVuSansMono-46"/>
     <use xlink:href="#DejaVuSansMono-50" x="60.205078"/>
     <use xlink:href="#DejaVuSansMono-31" x="120.410156"/>
     <use xlink:href="#DejaVuSansMono-36" x="180.615234"/>
     <use xlink:href="#DejaVuSansMono-20" x="240.820312"/>
     <use xlink:href="#DejaVuSansMono-28" x="301.025391"/>
     <use xlink:href="#DejaVuSansMono-62" x="361.230469"/>
     <use xlink:href="#DejaVuSansMono-61" x="421.435547"/>
     <use xlink:href="#DejaVuSansMono-73" x="481.640625"/>
     <use xlink:href="#DejaVuSansMono-65" x="541.845703"/>
     <use xlink:href="#DejaVuSansMono-6c" x="602.050781"/>
     <use xlink:href="#DejaVuSansMono-69" x="662.255859"/>
     <use xlink:href="#DejaVuSansMono-6e" x="722.460938"/>
     <use xlink:href="#DejaVuSansMono-65" x="782.666016"/>
     <use xlink:href="#DejaVuSansMono-29" x="842.871094"/>
    </g>
   </g>
   <g id="line2d_79">
    <path d="M 233.075453 99.981297 
L 246.375453 99.981297 
L 259.675453 99.981297 
" style="fill: none; stroke: #9f6b32; stroke-width: 2.6; stroke-linecap: round"/>
   </g>
   <g id="text_66">
    <!-- AWQ Marlin INT4 -->
    <g style="fill: #5f5f5f" transform="translate(267.275453 103.306297) scale(0.095 -0.095)">
     <defs>
      <path id="DejaVuSansMono-41" d="M 1925 4109 
L 1259 1722 
L 2591 1722 
L 1925 4109 
z
M 1544 4666 
L 2309 4666 
L 3738 0 
L 3084 0 
L 2741 1216 
L 1106 1216 
L 769 0 
L 116 0 
L 1544 4666 
z
" transform="scale(0.015625)"/>
      <path id="DejaVuSansMono-57" d="M 0 4666 
L 616 4666 
L 1063 878 
L 1594 3384 
L 2253 3384 
L 2791 872 
L 3238 4666 
L 3853 4666 
L 3156 0 
L 2559 0 
L 1925 2772 
L 1294 0 
L 697 0 
L 0 4666 
z
" transform="scale(0.015625)"/>
      <path id="DejaVuSansMono-51" d="M 2047 -84 
Q 2025 -84 1984 -87 
Q 1944 -91 1919 -91 
Q 1138 -91 752 509 
Q 366 1109 366 2328 
Q 366 3550 752 4150 
Q 1138 4750 1925 4750 
Q 2716 4750 3102 4150 
Q 3488 3550 3488 2328 
Q 3488 1409 3273 848 
Q 3059 288 2625 63 
L 3250 -531 
L 2778 -844 
L 2047 -84 
z
M 2828 2328 
Q 2828 3356 2617 3797 
Q 2406 4238 1925 4238 
Q 1447 4238 1236 3797 
Q 1025 3356 1025 2328 
Q 1025 1303 1236 862 
Q 1447 422 1925 422 
Q 2406 422 2617 861 
Q 2828 1300 2828 2328 
z
" transform="scale(0.015625)"/>
      <path id="DejaVuSansMono-4d" d="M 269 4666 
L 1113 4666 
L 1919 2291 
L 2731 4666 
L 3578 4666 
L 3578 0 
L 2994 0 
L 2994 4122 
L 2163 1663 
L 1684 1663 
L 850 4122 
L 850 0 
L 269 0 
L 269 4666 
z
" transform="scale(0.015625)"/>
      <path id="DejaVuSansMono-72" d="M 3609 2778 
Q 3425 2922 3234 2987 
Q 3044 3053 2816 3053 
Q 2278 3053 1993 2715 
Q 1709 2378 1709 1741 
L 1709 0 
L 1131 0 
L 1131 3500 
L 1709 3500 
L 1709 2816 
Q 1853 3188 2151 3386 
Q 2450 3584 2859 3584 
Q 3072 3584 3256 3531 
Q 3441 3478 3609 3366 
L 3609 2778 
z
" transform="scale(0.015625)"/>
      <path id="DejaVuSansMono-49" d="M 628 4666 
L 3219 4666 
L 3219 4134 
L 2241 4134 
L 2241 531 
L 3219 531 
L 3219 0 
L 628 0 
L 628 531 
L 1606 531 
L 1606 4134 
L 628 4134 
L 628 4666 
z
" transform="scale(0.015625)"/>
      <path id="DejaVuSansMono-4e" d="M 434 4666 
L 1234 4666 
L 2809 825 
L 2809 4666 
L 3419 4666 
L 3419 0 
L 2619 0 
L 1044 3841 
L 1044 0 
L 434 0 
L 434 4666 
z
" transform="scale(0.015625)"/>
      <path id="DejaVuSansMono-54" d="M 147 4666 
L 3706 4666 
L 3706 4134 
L 2247 4134 
L 2247 0 
L 1613 0 
L 1613 4134 
L 147 4134 
L 147 4666 
z
" transform="scale(0.015625)"/>
      <path id="DejaVuSansMono-34" d="M 2297 4091 
L 825 1625 
L 2297 1625 
L 2297 4091 
z
M 2194 4666 
L 2925 4666 
L 2925 1625 
L 3547 1625 
L 3547 1113 
L 2925 1113 
L 2925 0 
L 2297 0 
L 2297 1113 
L 319 1113 
L 319 1709 
L 2194 4666 
z
" transform="scale(0.015625)"/>
     </defs>
     <use xlink:href="#DejaVuSansMono-41"/>
     <use xlink:href="#DejaVuSansMono-57" x="60.205078"/>
     <use xlink:href="#DejaVuSansMono-51" x="120.410156"/>
     <use xlink:href="#DejaVuSansMono-20" x="180.615234"/>
     <use xlink:href="#DejaVuSansMono-4d" x="240.820312"/>
     <use xlink:href="#DejaVuSansMono-61" x="301.025391"/>
     <use xlink:href="#DejaVuSansMono-72" x="361.230469"/>
     <use xlink:href="#DejaVuSansMono-6c" x="421.435547"/>
     <use xlink:href="#DejaVuSansMono-69" x="481.640625"/>
     <use xlink:href="#DejaVuSansMono-6e" x="541.845703"/>
     <use xlink:href="#DejaVuSansMono-20" x="602.050781"/>
     <use xlink:href="#DejaVuSansMono-49" x="662.255859"/>
     <use xlink:href="#DejaVuSansMono-4e" x="722.460938"/>
     <use xlink:href="#DejaVuSansMono-54" x="782.666016"/>
     <use xlink:href="#DejaVuSansMono-34" x="842.871094"/>
    </g>
   </g>
   <g id="line2d_80">
    <path d="M 372.064906 99.981297 
L 385.364906 99.981297 
L 398.664906 99.981297 
" style="fill: none; stroke: #4f7768; stroke-width: 2.6; stroke-linecap: round"/>
   </g>
   <g id="text_67">
    <!-- GPTQ Marlin INT4 -->
    <g style="fill: #5f5f5f" transform="translate(406.264906 103.306297) scale(0.095 -0.095)">
     <defs>
      <path id="DejaVuSansMono-47" d="M 3450 384 
Q 3197 150 2880 29 
Q 2563 -91 2194 -91 
Q 1306 -91 812 545 
Q 319 1181 319 2328 
Q 319 3472 819 4111 
Q 1319 4750 2209 4750 
Q 2503 4750 2772 4667 
Q 3041 4584 3291 4416 
L 3291 3769 
Q 3038 4009 2772 4123 
Q 2506 4238 2209 4238 
Q 1594 4238 1286 3761 
Q 978 3284 978 2328 
Q 978 1356 1276 889 
Q 1575 422 2194 422 
Q 2403 422 2561 470 
Q 2719 519 2847 622 
L 2847 1875 
L 2169 1875 
L 2169 2394 
L 3450 2394 
L 3450 384 
z
" transform="scale(0.015625)"/>
     </defs>
     <use xlink:href="#DejaVuSansMono-47"/>
     <use xlink:href="#DejaVuSansMono-50" x="60.205078"/>
     <use xlink:href="#DejaVuSansMono-54" x="120.410156"/>
     <use xlink:href="#DejaVuSansMono-51" x="180.615234"/>
     <use xlink:href="#DejaVuSansMono-20" x="240.820312"/>
     <use xlink:href="#DejaVuSansMono-4d" x="301.025391"/>
     <use xlink:href="#DejaVuSansMono-61" x="361.230469"/>
     <use xlink:href="#DejaVuSansMono-72" x="421.435547"/>
     <use xlink:href="#DejaVuSansMono-6c" x="481.640625"/>
     <use xlink:href="#DejaVuSansMono-69" x="541.845703"/>
     <use xlink:href="#DejaVuSansMono-6e" x="602.050781"/>
     <use xlink:href="#DejaVuSansMono-20" x="662.255859"/>
     <use xlink:href="#DejaVuSansMono-49" x="722.460938"/>
     <use xlink:href="#DejaVuSansMono-4e" x="782.666016"/>
     <use xlink:href="#DejaVuSansMono-54" x="842.871094"/>
     <use xlink:href="#DejaVuSansMono-34" x="903.076172"/>
    </g>
   </g>
  </g>
 </g>
 <defs>
  <clipPath id="p4339153633">
   <rect x="85.536" y="124.848" width="347.102609" height="228.342857"/>
  </clipPath>
  <clipPath id="p0d83513a75">
   <rect x="536.769391" y="124.848" width="347.102609" height="228.342857"/>
  </clipPath>
  <clipPath id="p52c4774871">
   <rect x="85.536" y="439.961143" width="347.102609" height="228.342857"/>
  </clipPath>
  <clipPath id="p20fbfa9db0">
   <rect x="536.769391" y="439.961143" width="347.102609" height="228.342857"/>
  </clipPath>
 </defs>
</svg>
